<svg width="58" height="57" viewBox="0 0 58 57" fill="none" xmlns="http://www.w3.org/2000/svg">
<g filter="url(#filter0_d)">
<path d="M53.1667 41.6667H52.3333V11.6667C52.3333 9.82573 50.8409 8.33334 49 8.33334H41.5V2.5C41.5 2.03979 41.127 1.66667 40.6668 1.66656C40.6153 1.66656 40.564 1.67136 40.5133 1.68084L35.5133 2.61834L34.68 2.775L27.2558 4.16667H22.3333C21.4128 4.16667 20.6667 4.91282 20.6667 5.83334C19.0119 5.83552 17.5152 6.81667 16.8533 8.33334H9C7.15906 8.33334 5.66667 9.82573 5.66667 11.6667V41.6667H4.83333C4.37312 41.6667 4 42.0398 4 42.5V45C4 46.8409 5.4924 48.3333 7.33333 48.3333H50.6667C52.5076 48.3333 54 46.8409 54 45V42.5C54 42.0398 53.6269 41.6667 53.1667 41.6667ZM28.1667 5.69167L39.8333 3.50417V16.5L28.1667 14.3083V5.69167ZM28.1667 16L29.8333 16.3125V17.5H28.1667V16ZM22.3333 5.83334H26.5V14.1667H22.3333V5.83334ZM24 20.8333V15.8333H26.5V20.8333H24ZM26.5 22.5V23.75C26.5 24.4403 25.9403 25 25.25 25C24.5597 25 24 24.4403 24 23.75V22.5H26.5ZM20.6667 7.5V12.5C19.2859 12.5 18.1667 11.3807 18.1667 10C18.1667 8.61927 19.2859 7.5 20.6667 7.5ZM7.33333 11.6667C7.33333 10.7461 8.07948 10 9 10H16.5C16.5027 12.3 18.3667 14.164 20.6667 14.1667C20.6667 15.0872 21.4128 15.8333 22.3333 15.8333V23.75C22.3333 25.3608 23.6392 26.6667 25.25 26.6667C26.8608 26.6667 28.1667 25.3608 28.1667 23.75V19.1667H30.6667C31.1269 19.1667 31.5 18.7935 31.5 18.3333V16.6292L40.5133 18.3192C40.564 18.3284 40.6152 18.3332 40.6667 18.3333C41.1269 18.3333 41.5 17.9602 41.5 17.5V10H49C49.9205 10 50.6667 10.7461 50.6667 11.6667V41.6667H36.5C36.2792 41.6665 36.0672 41.7541 35.9108 41.91L34.4883 43.3333H23.5117L22.0892 41.91C21.9328 41.7541 21.7208 41.6665 21.5 41.6667H7.33333V11.6667ZM52.3333 45C52.3333 45.9205 51.5872 46.6667 50.6667 46.6667H7.33333C6.41281 46.6667 5.66667 45.9205 5.66667 45V43.3333H21.155L22.5775 44.7558C22.7337 44.9121 22.9456 45 23.1667 45H34.8333C35.0544 45 35.2662 44.9121 35.4225 44.7558L36.845 43.3333H52.3333V45Z" fill="#4E00FF"/>
<path d="M47.3334 12.5H44V14.1667H46.5V36.6667H11.5V14.1667H15.6667V12.5H10.6667C10.2065 12.5 9.83337 12.8731 9.83337 13.3333V37.5C9.83337 37.9602 10.2065 38.3333 10.6667 38.3333H47.3334C47.7936 38.3333 48.1667 37.9602 48.1667 37.5V13.3333C48.1667 12.8731 47.7936 12.5 47.3334 12.5Z" fill="#4E00FF"/>
<path d="M29.8333 40H28.1666V41.6667H29.8333V40Z" fill="#4E00FF"/>
<path d="M17.3333 29.1667H15.6666V30.8333H17.3333V29.1667Z" fill="#4E00FF"/>
<path d="M44 29.1667H19V30.8333H44V29.1667Z" fill="#4E00FF"/>
<path d="M41.5 32.5H14V34.1667H41.5V32.5Z" fill="#4E00FF"/>
</g>
<defs>
<filter id="filter0_d" x="0" y="0" width="58" height="58" filterUnits="userSpaceOnUse" color-interpolation-filters="sRGB">
<feFlood flood-opacity="0" result="BackgroundImageFix"/>
<feColorMatrix in="SourceAlpha" type="matrix" values="0 0 0 0 0 0 0 0 0 0 0 0 0 0 0 0 0 0 127 0"/>
<feOffset dy="4"/>
<feGaussianBlur stdDeviation="2"/>
<feColorMatrix type="matrix" values="0 0 0 0 0 0 0 0 0 0 0 0 0 0 0 0 0 0 0.25 0"/>
<feBlend mode="normal" in2="BackgroundImageFix" result="effect1_dropShadow"/>
<feBlend mode="normal" in="SourceGraphic" in2="effect1_dropShadow" result="shape"/>
</filter>
</defs>
</svg>
