<?xml version="1.0" ?><!DOCTYPE svg  PUBLIC '-//W3C//DTD SVG 1.1//EN'  'http://www.w3.org/Graphics/SVG/1.1/DTD/svg11.dtd'><svg enable-background="new 0 0 156.457 156.457" height="156.457" id="Layer_1" overflow="visible" version="1.1" viewBox="0 0 156.457 156.457" width="156.457" xml:space="preserve" xmlns="http://www.w3.org/2000/svg" xmlns:xlink="http://www.w3.org/1999/xlink"><g id="icon"><circle cx="78.229" cy="78.229" fill="#EF7A2B" r="78.229"/><path d="M64.616,117.315c-9.653-0.584-16.453-4.751-19.793-12.154c-1.493-3.292-2.118-6.459-2.153-10.876   c-0.021-2.306,0.403-27.915,0.549-33.193c0.146-5.563,1.188-9.532,3.424-13.019c3.174-4.969,7.667-7.785,14.265-8.879   c2.542-0.424,24.8-0.875,26.96-0.521c5.001,0.827,8.932,2.858,12.224,6.306c2.694,2.823,4.444,6.236,5.257,10.271   c0.563,2.816,0.625,9.584,0.104,12.345c-0.194,0.983-0.223,1.386-0.104,1.386c0.091,0,0.868,0.066,1.716,0.149   c3.403,0.319,5.966,1.132,7.91,2.503c3.396,2.389,5,5.661,5.368,10.928c0.223,3.098,0.181,11.348-0.055,13.293   c-0.792,6.25-2.952,10.979-6.765,14.778c-3.577,3.57-7.737,5.57-13.522,6.501c-1.306,0.208-3.326,0.236-17.467,0.264   C73.735,117.412,65.672,117.371,64.616,117.315L64.616,117.315L64.616,117.315z M99.202,99.036   c1.285-0.334,2.153-0.819,3.091-1.765c2.188-2.194,2.632-5.319,1.16-8.209c-0.417-0.813-1.64-2.027-2.584-2.556   c-1.659-0.931-0.902-0.889-19.335-0.889c-14.862,0-16.786,0.021-17.612,0.223c-3.07,0.757-5.139,3.417-5.139,6.598   c0,1.938,0.66,3.535,2.021,4.868c0.931,0.91,1.632,1.326,2.896,1.688c0.785,0.229,2.097,0.25,17.745,0.264   C96.376,99.258,98.438,99.237,99.202,99.036L99.202,99.036z M85.841,67.988c0.444-0.167,1.139-0.552,1.541-0.854   c4.438-3.333,3.334-10.125-1.958-12.008c-0.569-0.205-1.515-0.267-5.376-0.368c-8.25-0.208-13.695-0.188-14.445,0.052   c-1.194,0.385-2.167,0.972-2.965,1.785c-3.57,3.615-2.167,9.55,2.667,11.275c0.729,0.264,1.34,0.302,6.424,0.417   C83.465,68.551,84.382,68.533,85.841,67.988L85.841,67.988L85.841,67.988z" fill="#FFFFFF"/></g></svg>