<svg width="50" height="50" viewBox="0 0 50 50" fill="none" xmlns="http://www.w3.org/2000/svg">
<path d="M49.1667 41.6667H48.3333V11.6667C48.3333 9.82573 46.8409 8.33334 45 8.33334H37.5V2.5C37.5 2.03979 37.127 1.66667 36.6668 1.66656C36.6153 1.66656 36.564 1.67136 36.5133 1.68084L31.5133 2.61834L30.68 2.775L23.2558 4.16667H18.3333C17.4128 4.16667 16.6667 4.91282 16.6667 5.83334C15.0119 5.83552 13.5152 6.81667 12.8533 8.33334H5C3.15906 8.33334 1.66667 9.82573 1.66667 11.6667V41.6667H0.833333C0.373125 41.6667 0 42.0398 0 42.5V45C0 46.8409 1.4924 48.3333 3.33333 48.3333H46.6667C48.5076 48.3333 50 46.8409 50 45V42.5C50 42.0398 49.6269 41.6667 49.1667 41.6667ZM24.1667 5.69167L35.8333 3.50417V16.5L24.1667 14.3083V5.69167ZM24.1667 16L25.8333 16.3125V17.5H24.1667V16ZM18.3333 5.83334H22.5V14.1667H18.3333V5.83334ZM20 20.8333V15.8333H22.5V20.8333H20ZM22.5 22.5V23.75C22.5 24.4403 21.9403 25 21.25 25C20.5597 25 20 24.4403 20 23.75V22.5H22.5ZM16.6667 7.5V12.5C15.2859 12.5 14.1667 11.3807 14.1667 10C14.1667 8.61927 15.2859 7.5 16.6667 7.5ZM3.33333 11.6667C3.33333 10.7461 4.07948 10 5 10H12.5C12.5027 12.3 14.3667 14.164 16.6667 14.1667C16.6667 15.0872 17.4128 15.8333 18.3333 15.8333V23.75C18.3333 25.3608 19.6392 26.6667 21.25 26.6667C22.8608 26.6667 24.1667 25.3608 24.1667 23.75V19.1667H26.6667C27.1269 19.1667 27.5 18.7935 27.5 18.3333V16.6292L36.5133 18.3192C36.564 18.3284 36.6152 18.3332 36.6667 18.3333C37.1269 18.3333 37.5 17.9602 37.5 17.5V10H45C45.9205 10 46.6667 10.7461 46.6667 11.6667V41.6667H32.5C32.2792 41.6665 32.0672 41.7541 31.9108 41.91L30.4883 43.3333H19.5117L18.0892 41.91C17.9328 41.7541 17.7208 41.6665 17.5 41.6667H3.33333V11.6667ZM48.3333 45C48.3333 45.9205 47.5872 46.6667 46.6667 46.6667H3.33333C2.41281 46.6667 1.66667 45.9205 1.66667 45V43.3333H17.155L18.5775 44.7558C18.7337 44.9121 18.9456 45 19.1667 45H30.8333C31.0544 45 31.2663 44.9121 31.4225 44.7558L32.845 43.3333H48.3333V45Z" fill="white"/>
<path d="M43.3334 12.5H40V14.1667H42.5V36.6667H7.50004V14.1667H11.6667V12.5H6.66671C6.2065 12.5 5.83337 12.8731 5.83337 13.3333V37.5C5.83337 37.9602 6.2065 38.3333 6.66671 38.3333H43.3334C43.7936 38.3333 44.1667 37.9602 44.1667 37.5V13.3333C44.1667 12.8731 43.7936 12.5 43.3334 12.5Z" fill="white"/>
<path d="M25.8333 40H24.1666V41.6667H25.8333V40Z" fill="white"/>
<path d="M13.3333 29.1667H11.6666V30.8333H13.3333V29.1667Z" fill="white"/>
<path d="M40 29.1667H15V30.8333H40V29.1667Z" fill="white"/>
<path d="M37.5 32.5H10V34.1667H37.5V32.5Z" fill="white"/>
</svg>
