<svg width="691" height="695" viewBox="0 0 691 695" fill="none" xmlns="http://www.w3.org/2000/svg">
<path d="M75.4368 3.27762C75.4368 5.08779 77.2192 6.55523 79.4198 6.55523C81.6204 6.55523 83.4028 5.08779 83.4028 3.27762C83.4028 1.46744 81.6204 0 79.4198 0C77.2192 -1.10217e-06 75.4368 1.46744 75.4368 3.27762Z" fill="white"/>
<path d="M27.8248 571.28C27.8248 573.09 29.6085 574.557 31.8092 574.557C34.0085 574.557 35.7922 573.09 35.7922 571.28C35.7922 569.469 34.0085 568.002 31.8092 568.002C29.6085 568.002 27.8248 569.469 27.8248 571.28Z" fill="white"/>
<path d="M27.8262 594.156C27.8262 595.965 29.6098 597.432 31.8105 597.432C34.0097 597.432 35.7934 595.965 35.7934 594.156C35.7934 592.345 34.0097 590.878 31.8105 590.878C29.6098 590.878 27.8262 592.345 27.8262 594.156Z" fill="white"/>
<path d="M27.8262 617.047C27.8262 618.857 29.6098 620.324 31.8105 620.324C34.0097 620.324 35.7934 618.857 35.7934 617.047C35.7934 615.237 34.0097 613.769 31.8105 613.769C29.6098 613.769 27.8262 615.237 27.8262 617.047Z" fill="white"/>
<path d="M0 571.278C0 573.088 1.78366 574.555 3.98426 574.555C6.18353 574.555 7.96722 573.088 7.96722 571.278C7.96722 569.467 6.18353 568 3.98426 568C1.78366 568 0 569.467 0 571.278Z" fill="white"/>
<path d="M0 594.156C0 595.965 1.78366 597.432 3.98426 597.432C6.18353 597.432 7.96722 595.965 7.96722 594.156C7.96722 592.345 6.18353 590.878 3.98426 590.878C1.78366 590.878 0 592.345 0 594.156Z" fill="white"/>
<path d="M0 617.044C0 618.855 1.78366 620.322 3.98426 620.322C6.18353 620.322 7.96722 618.855 7.96722 617.044C7.96722 615.234 6.18353 613.768 3.98426 613.768C1.78366 613.768 0 615.234 0 617.044Z" fill="white"/>
<path d="M682.826 117.278C682.826 119.088 684.61 120.556 686.809 120.556C689.01 120.556 690.793 119.088 690.793 117.278C690.793 115.468 689.01 114.001 686.809 114.001C684.61 114.001 682.826 115.468 682.826 117.278Z" fill="white"/>
<path d="M682.826 140.152C682.826 141.962 684.61 143.43 686.81 143.43C689.01 143.43 690.793 141.962 690.793 140.152C690.793 138.342 689.01 136.874 686.81 136.874C684.61 136.874 682.826 138.342 682.826 140.152Z" fill="white"/>
<path d="M682.826 163.046C682.826 164.857 684.61 166.324 686.81 166.324C689.01 166.324 690.793 164.857 690.793 163.046C690.793 161.237 689.01 159.77 686.81 159.77C684.61 159.77 682.826 161.237 682.826 163.046Z" fill="white"/>
<path d="M655 117.278C655 119.088 656.784 120.555 658.983 120.555C661.184 120.555 662.967 119.088 662.967 117.278C662.967 115.468 661.184 114 658.983 114C656.784 114 655 115.468 655 117.278Z" fill="white"/>
<path d="M655 140.154C655 141.964 656.784 143.432 658.983 143.432C661.184 143.432 662.967 141.964 662.967 140.154C662.967 138.345 661.184 136.877 658.983 136.877C656.784 136.877 655 138.345 655 140.154Z" fill="white"/>
<path d="M655 163.046C655 164.857 656.784 166.324 658.983 166.324C661.184 166.324 662.967 164.857 662.967 163.046C662.967 161.237 661.184 159.769 658.983 159.769C656.784 159.769 655 161.237 655 163.046Z" fill="white"/>
<path d="M654.893 690.946C654.893 692.757 656.677 694.224 658.878 694.224C661.078 694.224 662.861 692.757 662.861 690.946C662.861 689.136 661.078 687.668 658.878 687.668C656.677 687.668 654.893 689.136 654.893 690.946Z" fill="white"/>
<path d="M627.067 690.946C627.067 692.757 628.851 694.224 631.052 694.224C633.251 694.224 635.035 692.757 635.035 690.946C635.035 689.136 633.251 687.668 631.052 687.668C628.851 687.668 627.067 689.136 627.067 690.946Z" fill="white"/>
<path d="M599.262 690.946C599.262 692.757 601.046 694.224 603.246 694.224C605.446 694.224 607.23 692.757 607.23 690.946C607.23 689.136 605.446 687.668 603.246 687.668C601.046 687.668 599.262 689.136 599.262 690.946Z" fill="white"/>
<path d="M571.437 690.946C571.437 692.757 573.22 694.224 575.42 694.224C577.62 694.224 579.404 692.757 579.404 690.946C579.404 689.136 577.62 687.668 575.42 687.668C573.22 687.668 571.437 689.136 571.437 690.946Z" fill="white"/>
<path d="M543.632 690.946C543.632 692.757 545.415 694.224 547.615 694.224C549.815 694.224 551.599 692.757 551.599 690.946C551.599 689.136 549.815 687.668 547.615 687.668C545.415 687.668 543.632 689.136 543.632 690.946Z" fill="white"/>
<path d="M515.805 690.946C515.805 692.757 517.589 694.224 519.789 694.224C521.989 694.224 523.773 692.757 523.773 690.946C523.773 689.136 521.989 687.668 519.789 687.668C517.589 687.668 515.805 689.136 515.805 690.946Z" fill="white"/>
<path d="M488 690.946C488 692.757 489.784 694.224 491.984 694.224C494.184 694.224 495.967 692.757 495.967 690.946C495.967 689.136 494.184 687.668 491.984 687.668C489.784 687.668 488 689.136 488 690.946Z" fill="white"/>
<path d="M654.893 668.39C654.893 670.2 656.677 671.668 658.878 671.668C661.078 671.668 662.861 670.2 662.861 668.39C662.861 666.581 661.078 665.112 658.878 665.112C656.677 665.112 654.893 666.581 654.893 668.39Z" fill="white"/>
<path d="M627.067 668.39C627.067 670.2 628.851 671.668 631.052 671.668C633.251 671.668 635.035 670.2 635.035 668.39C635.035 666.581 633.251 665.112 631.052 665.112C628.851 665.112 627.067 666.581 627.067 668.39Z" fill="white"/>
<path d="M599.262 668.39C599.262 670.2 601.046 671.668 603.246 671.668C605.446 671.668 607.23 670.2 607.23 668.39C607.23 666.581 605.446 665.112 603.246 665.112C601.046 665.112 599.262 666.581 599.262 668.39Z" fill="white"/>
<path d="M571.437 668.39C571.437 670.2 573.22 671.668 575.42 671.668C577.62 671.668 579.404 670.2 579.404 668.39C579.404 666.581 577.62 665.112 575.42 665.112C573.22 665.112 571.437 666.581 571.437 668.39Z" fill="white"/>
<path d="M543.632 668.39C543.632 670.2 545.415 671.668 547.615 671.668C549.815 671.668 551.599 670.2 551.599 668.39C551.599 666.581 549.815 665.112 547.615 665.112C545.415 665.112 543.632 666.581 543.632 668.39Z" fill="white"/>
<path d="M515.805 668.39C515.805 670.2 517.589 671.668 519.789 671.668C521.989 671.668 523.772 670.2 523.772 668.39C523.772 666.581 521.989 665.112 519.789 665.112C517.589 665.112 515.805 666.581 515.805 668.39Z" fill="white"/>
<path d="M488 668.39C488 670.2 489.784 671.668 491.984 671.668C494.184 671.668 495.967 670.2 495.967 668.39C495.967 666.581 494.184 665.112 491.984 665.112C489.784 665.112 488 666.581 488 668.39Z" fill="white"/>
<path d="M654.893 645.835C654.893 647.644 656.677 649.112 658.878 649.112C661.078 649.112 662.861 647.644 662.861 645.835C662.861 644.025 661.078 642.557 658.878 642.557C656.677 642.557 654.893 644.025 654.893 645.835Z" fill="white"/>
<path d="M627.067 645.835C627.067 647.644 628.851 649.112 631.052 649.112C633.251 649.112 635.035 647.644 635.035 645.835C635.035 644.025 633.251 642.557 631.052 642.557C628.851 642.557 627.067 644.025 627.067 645.835Z" fill="white"/>
<path d="M599.262 645.835C599.262 647.644 601.046 649.112 603.246 649.112C605.446 649.112 607.23 647.644 607.23 645.835C607.23 644.025 605.446 642.557 603.246 642.557C601.046 642.557 599.262 644.025 599.262 645.835Z" fill="white"/>
<path d="M571.437 645.835C571.437 647.644 573.22 649.112 575.42 649.112C577.62 649.112 579.404 647.644 579.404 645.835C579.404 644.025 577.62 642.557 575.42 642.557C573.22 642.557 571.437 644.025 571.437 645.835Z" fill="white"/>
<path d="M543.632 645.835C543.632 647.644 545.415 649.112 547.615 649.112C549.815 649.112 551.599 647.644 551.599 645.835C551.599 644.025 549.815 642.557 547.615 642.557C545.415 642.557 543.632 644.025 543.632 645.835Z" fill="white"/>
<path d="M515.805 645.835C515.805 647.644 517.589 649.112 519.789 649.112C521.989 649.112 523.772 647.644 523.772 645.835C523.772 644.025 521.989 642.557 519.789 642.557C517.589 642.557 515.805 644.025 515.805 645.835Z" fill="white"/>
<path d="M488 645.835C488 647.644 489.784 649.112 491.984 649.112C494.184 649.112 495.967 647.644 495.967 645.835C495.967 644.025 494.184 642.557 491.984 642.557C489.784 642.557 488 644.025 488 645.835Z" fill="white"/>
<path d="M654.891 623.279C654.891 625.089 656.674 626.557 658.875 626.557C661.074 626.557 662.858 625.089 662.858 623.279C662.858 621.468 661.074 620.001 658.875 620.001C656.674 620.001 654.891 621.468 654.891 623.279Z" fill="white"/>
<path d="M627.067 623.278C627.067 625.089 628.851 626.556 631.052 626.556C633.251 626.556 635.035 625.089 635.035 623.278C635.035 621.468 633.251 620 631.052 620C628.851 620 627.067 621.468 627.067 623.278Z" fill="white"/>
<path d="M599.262 623.278C599.262 625.089 601.046 626.556 603.246 626.556C605.446 626.556 607.23 625.089 607.23 623.278C607.23 621.468 605.446 620 603.246 620C601.046 620 599.262 621.468 599.262 623.278Z" fill="white"/>
<path d="M571.437 623.278C571.437 625.089 573.22 626.556 575.42 626.556C577.62 626.556 579.404 625.089 579.404 623.278C579.404 621.468 577.62 620 575.42 620C573.22 620 571.437 621.468 571.437 623.278Z" fill="white"/>
<path d="M543.632 623.278C543.632 625.089 545.415 626.556 547.615 626.556C549.815 626.556 551.599 625.089 551.599 623.278C551.599 621.468 549.815 620 547.615 620C545.415 620 543.632 621.468 543.632 623.278Z" fill="white"/>
<path d="M515.805 623.278C515.805 625.089 517.589 626.556 519.789 626.556C521.989 626.556 523.772 625.089 523.772 623.278C523.772 621.468 521.989 620 519.789 620C517.589 620 515.805 621.468 515.805 623.278Z" fill="white"/>
<path d="M488 623.278C488 625.089 489.784 626.556 491.984 626.556C494.184 626.556 495.967 625.089 495.967 623.278C495.967 621.468 494.184 620 491.984 620C489.784 620 488 621.468 488 623.278Z" fill="white"/>
</svg>
