<svg width="1627" height="659" viewBox="0 0 1627 659" fill="none" xmlns="http://www.w3.org/2000/svg">
<g clip-path="url(#clip0)">
<path d="M7.64635 463.785C10.3162 463.81 12.4982 461.916 12.5199 459.553C12.5416 457.19 10.3948 455.255 7.72492 455.23C5.05501 455.206 2.87303 457.101 2.85133 459.464C2.82963 461.827 4.97644 463.761 7.64635 463.785Z" fill="white"/>
<path d="M41.414 464.095C44.0838 464.12 46.2658 462.225 46.2875 459.863C46.3092 457.5 44.1624 455.565 41.4926 455.54C38.8226 455.516 36.6406 457.411 36.6189 459.774C36.5972 462.136 38.744 464.071 41.414 464.095Z" fill="white"/>
<path d="M75.1575 464.405C77.8275 464.43 80.0093 462.534 80.031 460.173C80.0527 457.81 77.906 455.875 75.2361 455.85C72.5661 455.826 70.3843 457.721 70.3626 460.084C70.3409 462.446 72.4876 464.381 75.1575 464.405Z" fill="white"/>
<path d="M108.927 464.716C111.597 464.74 113.779 462.845 113.801 460.483C113.822 458.12 111.676 456.185 109.006 456.161C106.336 456.136 104.154 458.031 104.132 460.394C104.11 462.756 106.257 464.691 108.927 464.716Z" fill="white"/>
<path d="M142.67 465.025C145.34 465.05 147.522 463.155 147.543 460.793C147.565 458.43 145.418 456.495 142.748 456.47C140.078 456.446 137.896 458.341 137.875 460.704C137.853 463.066 140 465.001 142.67 465.025Z" fill="white"/>
<path d="M176.437 465.336C179.108 465.36 181.289 463.465 181.311 461.103C181.332 458.74 179.187 456.805 176.516 456.781C173.846 456.756 171.664 458.652 171.642 461.014C171.621 463.376 173.768 465.311 176.437 465.336Z" fill="white"/>
<path d="M7.37144 493.644C10.0413 493.669 12.2233 491.773 12.245 489.412C12.2667 487.049 10.1199 485.114 7.45001 485.089C4.78011 485.065 2.59813 486.96 2.57643 489.323C2.55474 491.684 4.70154 493.62 7.37144 493.644Z" fill="white"/>
<path d="M41.1401 493.954C43.8099 493.979 45.9919 492.083 46.0136 489.722C46.0353 487.359 43.8885 485.424 41.2187 485.399C38.5487 485.375 36.3667 487.27 36.345 489.633C36.3233 491.995 38.4701 493.93 41.1401 493.954Z" fill="white"/>
<path d="M74.8841 494.264C77.554 494.289 79.7359 492.393 79.7576 490.032C79.7793 487.669 77.6326 485.734 74.9626 485.709C72.2927 485.685 70.1108 487.58 70.0891 489.943C70.0674 492.304 72.2141 494.24 74.8841 494.264Z" fill="white"/>
<path d="M108.653 494.574C111.323 494.599 113.505 492.703 113.526 490.342C113.548 487.979 111.401 486.044 108.731 486.019C106.061 485.995 103.879 487.89 103.858 490.253C103.836 492.615 105.983 494.55 108.653 494.574Z" fill="white"/>
<path d="M142.395 494.884C145.065 494.909 147.247 493.013 147.269 490.652C147.291 488.289 145.144 486.354 142.474 486.329C139.804 486.305 137.622 488.2 137.6 490.563C137.579 492.924 139.725 494.86 142.395 494.884Z" fill="white"/>
<path d="M176.163 495.194C178.834 495.219 181.015 493.323 181.037 490.962C181.058 488.599 178.913 486.664 176.242 486.639C173.572 486.615 171.39 488.51 171.368 490.873C171.347 493.235 173.494 495.17 176.163 495.194Z" fill="white"/>
<path d="M7.09702 523.526C9.76692 523.55 11.9489 521.655 11.9706 519.292C11.9923 516.929 9.8455 514.994 7.1756 514.97C4.5057 514.945 2.32372 516.84 2.30202 519.203C2.28032 521.566 4.42711 523.501 7.09702 523.526Z" fill="white"/>
<path d="M40.8657 523.836C43.5355 523.86 45.7175 521.965 45.7392 519.602C45.7609 517.239 43.6141 515.304 40.9442 515.28C38.2743 515.255 36.0923 517.151 36.0706 519.513C36.0489 521.876 38.1957 523.811 40.8657 523.836Z" fill="white"/>
<path d="M74.6096 524.146C77.2796 524.17 79.4615 522.275 79.4832 519.912C79.5049 517.549 77.3582 515.614 74.6882 515.59C72.0183 515.565 69.8364 517.46 69.8147 519.823C69.793 522.186 71.9397 524.121 74.6096 524.146Z" fill="white"/>
<path d="M108.378 524.456C111.048 524.48 113.23 522.585 113.252 520.222C113.274 517.859 111.127 515.924 108.457 515.9C105.787 515.875 103.605 517.771 103.583 520.133C103.562 522.496 105.708 524.431 108.378 524.456Z" fill="white"/>
<path d="M142.121 524.766C144.791 524.79 146.973 522.895 146.994 520.532C147.016 518.169 144.869 516.234 142.199 516.21C139.53 516.185 137.348 518.081 137.326 520.443C137.304 522.806 139.451 524.741 142.121 524.766Z" fill="white"/>
<path d="M175.889 525.076C178.56 525.101 180.74 523.205 180.762 520.842C180.784 518.479 178.638 516.544 175.967 516.52C173.298 516.495 171.116 518.391 171.094 520.753C171.072 523.116 173.219 525.051 175.889 525.076Z" fill="white"/>
<path d="M6.8226 553.385C9.4925 553.409 11.6745 551.514 11.6962 549.151C11.7179 546.788 9.57109 544.853 6.90118 544.828C4.23128 544.804 2.0493 546.699 2.0276 549.062C2.0059 551.425 4.1527 553.36 6.8226 553.385Z" fill="white"/>
<path d="M40.5912 553.695C43.2611 553.719 45.4431 551.824 45.4648 549.461C45.4865 547.098 43.3396 545.163 40.6698 545.138C37.9999 545.114 35.8179 547.009 35.7962 549.372C35.7745 551.735 37.9213 553.67 40.5912 553.695Z" fill="white"/>
<path d="M74.3352 554.005C77.0052 554.029 79.1871 552.134 79.2088 549.771C79.2305 547.408 77.0838 545.473 74.4138 545.448C71.7439 545.424 69.562 547.319 69.5403 549.682C69.5186 552.045 71.6653 553.98 74.3352 554.005Z" fill="white"/>
<path d="M108.104 554.315C110.774 554.339 112.956 552.444 112.977 550.081C112.999 547.718 110.852 545.783 108.182 545.758C105.513 545.734 103.331 547.629 103.309 549.992C103.287 552.355 105.434 554.29 108.104 554.315Z" fill="white"/>
<path d="M141.847 554.625C144.517 554.649 146.699 552.754 146.72 550.391C146.742 548.028 144.596 546.093 141.926 546.068C139.256 546.044 137.074 547.939 137.052 550.302C137.03 552.665 139.177 554.6 141.847 554.625Z" fill="white"/>
<path d="M175.614 554.935C178.285 554.959 180.466 553.064 180.488 550.701C180.509 548.338 178.364 546.403 175.693 546.378C173.023 546.354 170.841 548.249 170.82 550.612C170.798 552.975 172.945 554.91 175.614 554.935Z" fill="white"/>
<path d="M1124.25 176.012C1126.92 176.037 1129.1 174.141 1129.12 171.779C1129.15 169.416 1127 167.481 1124.33 167.456C1121.66 167.431 1119.48 169.327 1119.45 171.69C1119.43 174.053 1121.58 175.988 1124.25 176.012Z" fill="white"/>
<path d="M1157.99 176.322C1160.66 176.347 1162.84 174.451 1162.87 172.088C1162.89 169.726 1160.74 167.79 1158.07 167.766C1155.4 167.741 1153.22 169.637 1153.2 172C1153.18 174.362 1155.32 176.298 1157.99 176.322Z" fill="white"/>
<path d="M1191.76 176.632C1194.43 176.657 1196.61 174.761 1196.63 172.399C1196.66 170.036 1194.51 168.101 1191.84 168.076C1189.17 168.052 1186.99 169.947 1186.97 172.31C1186.94 174.673 1189.09 176.608 1191.76 176.632Z" fill="white"/>
<path d="M1123.97 205.893C1126.64 205.917 1128.83 204.022 1128.85 201.659C1128.87 199.297 1126.72 197.362 1124.05 197.338C1121.38 197.313 1119.2 199.209 1119.18 201.57C1119.16 203.933 1121.3 205.868 1123.97 205.893Z" fill="white"/>
<path d="M1157.72 206.203C1160.39 206.227 1162.57 204.332 1162.59 201.97C1162.61 199.607 1160.47 197.672 1157.8 197.648C1155.13 197.623 1152.94 199.519 1152.92 201.881C1152.9 204.243 1155.05 206.178 1157.72 206.203Z" fill="white"/>
<path d="M1191.49 206.513C1194.16 206.537 1196.34 204.642 1196.36 202.28C1196.38 199.918 1194.23 197.982 1191.57 197.958C1188.89 197.933 1186.71 199.829 1186.69 202.192C1186.67 204.553 1188.82 206.488 1191.49 206.513Z" fill="white"/>
<path d="M384.48 12.9817C387.15 13.0062 389.332 11.1109 389.353 8.74832C389.375 6.38577 387.228 4.45067 384.559 4.42616C381.888 4.40163 379.707 6.29697 379.685 8.65952C379.664 11.0221 381.809 12.9572 384.48 12.9817Z" fill="white"/>
<path d="M418.221 13.2916C420.891 13.3161 423.073 11.4208 423.095 9.05821C423.116 6.69566 420.969 4.76056 418.3 4.73605C415.63 4.71153 413.448 6.60686 413.427 8.96941C413.405 11.332 415.552 13.2671 418.221 13.2916Z" fill="white"/>
<path d="M451.989 13.6017C454.66 13.6262 456.841 11.7309 456.863 9.36833C456.884 7.00578 454.739 5.0707 452.068 5.04617C449.398 5.02165 447.216 6.91698 447.195 9.27953C447.173 11.6421 449.32 13.5772 451.989 13.6017Z" fill="white"/>
<path d="M384.204 42.863C386.875 42.8875 389.055 40.9921 389.077 38.6295C389.099 36.2671 386.953 34.3319 384.282 34.3074C381.613 34.2828 379.431 36.1783 379.409 38.5407C379.387 40.9033 381.534 42.8385 384.204 42.863Z" fill="white"/>
<path d="M417.947 43.1729C420.617 43.1974 422.799 41.3021 422.821 38.9395C422.842 36.577 420.695 34.6419 418.026 34.6174C415.356 34.5929 413.174 36.4882 413.153 38.8507C413.131 41.2133 415.278 43.1484 417.947 43.1729Z" fill="white"/>
<path d="M451.717 43.483C454.387 43.5076 456.569 41.6122 456.591 39.2497C456.612 36.8871 454.466 34.952 451.796 34.9275C449.125 34.903 446.943 36.7983 446.921 39.1609C446.899 41.5234 449.046 43.4585 451.717 43.483Z" fill="white"/>
<path d="M1617.34 478.569C1620 478.594 1622.19 476.699 1622.21 474.337C1622.23 471.974 1620.08 470.039 1617.42 470.014C1614.74 469.989 1612.57 471.885 1612.55 474.248C1612.53 476.611 1614.66 478.544 1617.34 478.569Z" fill="white"/>
<path d="M1617.07 508.451C1619.73 508.475 1621.92 506.58 1621.94 504.217C1621.96 501.856 1619.81 499.92 1617.14 499.896C1614.47 499.871 1612.29 501.767 1612.27 504.128C1612.25 506.491 1614.39 508.426 1617.07 508.451Z" fill="white"/>
<path d="M1616.79 538.309C1619.45 538.334 1621.64 536.439 1621.66 534.076C1621.69 531.713 1619.53 529.778 1616.87 529.753C1614.19 529.729 1612.02 531.624 1612 533.987C1611.98 536.35 1614.12 538.285 1616.79 538.309Z" fill="white"/>
<path d="M1616.52 568.19C1619.18 568.215 1621.37 566.32 1621.39 563.958C1621.41 561.595 1619.26 559.66 1616.6 559.635C1613.92 559.61 1611.75 561.506 1611.72 563.869C1611.7 566.232 1613.84 568.165 1616.52 568.19Z" fill="white"/>
<path d="M1616.24 598.049C1618.91 598.073 1621.09 596.179 1621.12 593.816C1621.14 591.453 1618.98 589.518 1616.32 589.494C1613.64 589.469 1611.47 591.365 1611.45 593.728C1611.43 596.09 1613.57 598.024 1616.24 598.049Z" fill="white"/>
<path d="M1615.97 627.93C1618.63 627.955 1620.82 626.06 1620.84 623.697C1620.86 621.334 1618.71 619.399 1616.05 619.374C1613.37 619.35 1611.2 621.245 1611.18 623.608C1611.15 625.971 1613.29 627.906 1615.97 627.93Z" fill="white"/>
<path d="M1615.69 657.789C1618.36 657.814 1620.54 655.918 1620.57 653.555C1620.59 651.193 1618.44 649.257 1615.77 649.233C1613.1 649.208 1610.92 651.104 1610.9 653.467C1610.88 655.83 1613.02 657.765 1615.69 657.789Z" fill="white"/>
<path d="M1583.57 478.259C1586.25 478.283 1588.42 476.389 1588.44 474.026C1588.46 471.664 1586.33 469.728 1583.65 469.704C1580.99 469.679 1578.8 471.575 1578.78 473.938C1578.75 476.3 1580.91 478.234 1583.57 478.259Z" fill="white"/>
<path d="M1583.3 508.141C1585.97 508.165 1588.15 506.27 1588.17 503.907C1588.19 501.545 1586.05 499.61 1583.37 499.586C1580.71 499.561 1578.52 501.457 1578.5 503.818C1578.48 506.181 1580.63 508.116 1583.3 508.141Z" fill="white"/>
<path d="M1583.02 537.999C1585.7 538.024 1587.87 536.128 1587.89 533.766C1587.91 531.403 1585.78 529.468 1583.1 529.443C1580.44 529.419 1578.25 531.314 1578.23 533.677C1578.21 536.04 1580.36 537.975 1583.02 537.999Z" fill="white"/>
<path d="M1582.75 567.88C1585.42 567.904 1587.6 566.01 1587.62 563.647C1587.64 561.285 1585.5 559.349 1582.83 559.325C1580.16 559.3 1577.98 561.196 1577.95 563.559C1577.93 565.921 1580.08 567.855 1582.75 567.88Z" fill="white"/>
<path d="M1582.47 597.739C1585.15 597.763 1587.32 595.869 1587.34 593.506C1587.37 591.143 1585.23 589.208 1582.55 589.184C1579.89 589.159 1577.7 591.055 1577.68 593.417C1577.66 595.78 1579.81 597.714 1582.47 597.739Z" fill="white"/>
<path d="M1582.2 627.62C1584.88 627.645 1587.05 625.749 1587.07 623.387C1587.09 621.024 1584.95 619.089 1582.28 619.064C1579.61 619.04 1577.43 620.935 1577.41 623.298C1577.38 625.661 1579.54 627.596 1582.2 627.62Z" fill="white"/>
<path d="M1581.92 657.479C1584.6 657.504 1586.77 655.608 1586.8 653.245C1586.82 650.882 1584.68 648.947 1582 648.923C1579.34 648.898 1577.15 650.794 1577.13 653.157C1577.11 655.519 1579.26 657.455 1581.92 657.479Z" fill="white"/>
<path d="M1549.83 477.949C1552.49 477.974 1554.68 476.079 1554.7 473.717C1554.72 471.354 1552.57 469.418 1549.91 469.394C1547.23 469.369 1545.06 471.265 1545.03 473.628C1545.01 475.991 1547.15 477.924 1549.83 477.949Z" fill="white"/>
<path d="M1549.55 507.831C1552.22 507.855 1554.4 505.96 1554.43 503.597C1554.45 501.235 1552.29 499.3 1549.63 499.276C1546.96 499.251 1544.78 501.147 1544.76 503.508C1544.74 505.871 1546.88 507.806 1549.55 507.831Z" fill="white"/>
<path d="M1549.28 537.69C1551.94 537.714 1554.13 535.819 1554.15 533.456C1554.17 531.093 1552.02 529.158 1549.36 529.133C1546.68 529.109 1544.51 531.004 1544.49 533.367C1544.46 535.73 1546.6 537.665 1549.28 537.69Z" fill="white"/>
<path d="M1549.01 567.57C1551.67 567.594 1553.86 565.7 1553.88 563.337C1553.9 560.975 1551.75 559.039 1549.08 559.015C1546.41 558.99 1544.23 560.886 1544.21 563.249C1544.19 565.612 1546.33 567.545 1549.01 567.57Z" fill="white"/>
<path d="M1548.73 597.429C1551.39 597.453 1553.58 595.559 1553.6 593.196C1553.62 590.833 1551.47 588.898 1548.81 588.874C1546.13 588.849 1543.96 590.745 1543.94 593.107C1543.92 595.47 1546.05 597.404 1548.73 597.429Z" fill="white"/>
<path d="M1548.46 627.31C1551.12 627.335 1553.31 625.439 1553.33 623.077C1553.35 620.714 1551.2 618.779 1548.54 618.754C1545.86 618.73 1543.69 620.625 1543.66 622.988C1543.64 625.351 1545.78 627.286 1548.46 627.31Z" fill="white"/>
<path d="M1548.18 657.169C1550.84 657.194 1553.03 655.298 1553.05 652.935C1553.08 650.573 1550.92 648.637 1548.26 648.613C1545.58 648.588 1543.41 650.484 1543.39 652.847C1543.37 655.209 1545.51 657.145 1548.18 657.169Z" fill="white"/>
<path d="M1516.06 477.639C1518.73 477.663 1520.91 475.769 1520.93 473.406C1520.95 471.044 1518.81 469.108 1516.14 469.084C1513.47 469.059 1511.29 470.955 1511.26 473.318C1511.24 475.68 1513.4 477.614 1516.06 477.639Z" fill="white"/>
<path d="M1515.78 507.521C1518.46 507.545 1520.63 505.65 1520.66 503.287C1520.68 500.925 1518.54 498.99 1515.86 498.966C1513.18 498.941 1511.01 500.837 1510.99 503.198C1510.97 505.561 1513.11 507.496 1515.78 507.521Z" fill="white"/>
<path d="M1515.51 537.379C1518.19 537.404 1520.36 535.508 1520.38 533.146C1520.4 530.783 1518.26 528.848 1515.59 528.823C1512.91 528.798 1510.74 530.694 1510.72 533.057C1510.69 535.42 1512.83 537.355 1515.51 537.379Z" fill="white"/>
<path d="M1515.23 567.26C1517.91 567.284 1520.09 565.39 1520.11 563.027C1520.13 560.664 1517.99 558.729 1515.31 558.705C1512.64 558.68 1510.46 560.576 1510.44 562.939C1510.42 565.301 1512.56 567.235 1515.23 567.26Z" fill="white"/>
<path d="M1514.96 597.119C1517.64 597.143 1519.81 595.249 1519.83 592.886C1519.85 590.523 1517.72 588.588 1515.04 588.564C1512.36 588.539 1510.19 590.434 1510.17 592.797C1510.15 595.16 1512.28 597.094 1514.96 597.119Z" fill="white"/>
<path d="M1514.69 627C1517.36 627.025 1519.54 625.129 1519.56 622.766C1519.58 620.404 1517.44 618.469 1514.76 618.444C1512.09 618.419 1509.91 620.315 1509.89 622.678C1509.87 625.041 1512.01 626.976 1514.69 627Z" fill="white"/>
<path d="M1514.41 656.859C1517.09 656.884 1519.26 654.988 1519.28 652.625C1519.31 650.262 1517.17 648.327 1514.49 648.303C1511.81 648.278 1509.64 650.174 1509.62 652.536C1509.6 654.899 1511.73 656.834 1514.41 656.859Z" fill="white"/>
</g>
<defs>
<clipPath id="clip0">
<rect width="1620.59" height="643.154" fill="white" transform="translate(5.90674) rotate(0.526199)"/>
</clipPath>
</defs>
</svg>
