<svg width="699" height="695" viewBox="0 0 699 695" fill="none" xmlns="http://www.w3.org/2000/svg">
<path d="M83.437 3.278C83.437 5.088 85.219 6.55499 87.42 6.55499C89.62 6.55499 91.403 5.088 91.403 3.278C91.403 1.467 89.62 0 87.42 0C85.219 0 83.437 1.467 83.437 3.278Z" fill="white"/>
<path d="M83.437 26.173C83.437 27.983 85.219 29.451 87.42 29.451C89.62 29.451 91.403 27.983 91.403 26.173C91.403 24.363 89.62 22.896 87.42 22.896C85.219 22.896 83.437 24.363 83.437 26.173Z" fill="white"/>
<path d="M83.437 49.048C83.437 50.858 85.219 52.326 87.42 52.326C89.62 52.326 91.403 50.858 91.403 49.048C91.403 47.238 89.62 45.77 87.42 45.77C85.219 45.77 83.437 47.238 83.437 49.048Z" fill="white"/>
<path d="M83.437 71.94C83.437 73.751 85.219 75.218 87.42 75.218C89.62 75.218 91.403 73.751 91.403 71.94C91.403 70.13 89.62 68.663 87.42 68.663C85.219 68.663 83.437 70.13 83.437 71.94Z" fill="white"/>
<path d="M83.437 94.817C83.437 96.628 85.219 98.095 87.42 98.095C89.62 98.095 91.403 96.628 91.403 94.817C91.403 93.007 89.62 91.54 87.42 91.54C85.219 91.54 83.437 93.007 83.437 94.817Z" fill="white"/>
<path d="M83.437 117.709C83.437 119.52 85.219 120.987 87.42 120.987C89.62 120.987 91.403 119.52 91.403 117.709C91.403 115.9 89.62 114.433 87.42 114.433C85.219 114.433 83.437 115.9 83.437 117.709Z" fill="white"/>
<path d="M55.631 3.278C55.631 5.088 57.414 6.55499 59.615 6.55499C61.814 6.55499 63.598 5.088 63.598 3.278C63.598 1.468 61.814 0 59.615 0C57.414 0 55.631 1.468 55.631 3.278Z" fill="white"/>
<path d="M55.631 26.173C55.631 27.983 57.414 29.451 59.615 29.451C61.814 29.451 63.598 27.983 63.598 26.173C63.598 24.363 61.814 22.896 59.615 22.896C57.414 22.896 55.631 24.363 55.631 26.173Z" fill="white"/>
<path d="M55.631 49.048C55.631 50.858 57.414 52.326 59.615 52.326C61.814 52.326 63.598 50.858 63.598 49.048C63.598 47.238 61.814 45.77 59.615 45.77C57.414 45.77 55.631 47.238 55.631 49.048Z" fill="white"/>
<path d="M55.631 71.94C55.631 73.751 57.414 75.218 59.615 75.218C61.814 75.218 63.598 73.751 63.598 71.94C63.598 70.13 61.814 68.663 59.615 68.663C57.414 68.663 55.631 70.13 55.631 71.94Z" fill="white"/>
<path d="M55.631 94.817C55.631 96.628 57.414 98.095 59.615 98.095C61.814 98.095 63.598 96.628 63.598 94.817C63.598 93.007 61.814 91.54 59.615 91.54C57.414 91.54 55.631 93.007 55.631 94.817Z" fill="white"/>
<path d="M55.631 117.709C55.631 119.52 57.414 120.987 59.615 120.987C61.814 120.987 63.598 119.52 63.598 117.709C63.598 115.9 61.814 114.433 59.615 114.433C57.414 114.433 55.631 115.9 55.631 117.709Z" fill="white"/>
<path d="M27.8051 3.278C27.8051 5.088 29.5881 6.55499 31.7881 6.55499C33.9881 6.55499 35.7721 5.088 35.7721 3.278C35.7721 1.468 33.9881 0 31.7881 0C29.5881 0 27.8051 1.468 27.8051 3.278Z" fill="white"/>
<path d="M27.8051 26.173C27.8051 27.983 29.5881 29.451 31.7881 29.451C33.9881 29.451 35.7721 27.983 35.7721 26.173C35.7721 24.363 33.9881 22.896 31.7881 22.896C29.5881 22.896 27.8051 24.363 27.8051 26.173Z" fill="white"/>
<path d="M27.8051 49.048C27.8051 50.858 29.5881 52.326 31.7881 52.326C33.9881 52.326 35.7721 50.858 35.7721 49.048C35.7721 47.238 33.9881 45.77 31.7881 45.77C29.5881 45.77 27.8051 47.238 27.8051 49.048Z" fill="white"/>
<path d="M27.8051 71.94C27.8051 73.751 29.5881 75.218 31.7881 75.218C33.9881 75.218 35.7721 73.751 35.7721 71.94C35.7721 70.13 33.9881 68.663 31.7881 68.663C29.5881 68.663 27.8051 70.13 27.8051 71.94Z" fill="white"/>
<path d="M27.8051 94.817C27.8051 96.628 29.5881 98.095 31.7881 98.095C33.9881 98.095 35.7721 96.628 35.7721 94.817C35.7721 93.007 33.9881 91.54 31.7881 91.54C29.5881 91.54 27.8051 93.007 27.8051 94.817Z" fill="white"/>
<path d="M27.8051 117.709C27.8051 119.52 29.5881 120.987 31.7881 120.987C33.9881 120.987 35.7721 119.52 35.7721 117.709C35.7721 115.9 33.9881 114.433 31.7881 114.433C29.5881 114.433 27.8051 115.9 27.8051 117.709Z" fill="white"/>
<path d="M0 3.278C0 5.088 1.7835 6.55499 3.9835 6.55499C6.1836 6.55499 7.9671 5.088 7.9671 3.278C7.9671 1.468 6.1836 0 3.9835 0C1.7835 0 0 1.468 0 3.278Z" fill="white"/>
<path d="M0 26.173C0 27.983 1.7835 29.451 3.9835 29.451C6.1836 29.451 7.9671 27.983 7.9671 26.173C7.9671 24.363 6.1836 22.896 3.9835 22.896C1.7835 22.896 0 24.363 0 26.173Z" fill="white"/>
<path d="M0 49.048C0 50.858 1.7835 52.326 3.9835 52.326C6.1836 52.326 7.9671 50.858 7.9671 49.048C7.9671 47.238 6.1836 45.77 3.9835 45.77C1.7835 45.77 0 47.238 0 49.048Z" fill="white"/>
<path d="M0 71.94C0 73.751 1.7835 75.218 3.9835 75.218C6.1836 75.218 7.9671 73.751 7.9671 71.94C7.9671 70.13 6.1836 68.663 3.9835 68.663C1.7835 68.663 0 70.13 0 71.94Z" fill="white"/>
<path d="M0 94.817C0 96.628 1.7835 98.095 3.9835 98.095C6.1836 98.095 7.9671 96.628 7.9671 94.817C7.9671 93.007 6.1836 91.54 3.9835 91.54C1.7835 91.54 0 93.007 0 94.817Z" fill="white"/>
<path d="M0 117.709C0 119.52 1.7835 120.987 3.9835 120.987C6.1836 120.987 7.9671 119.52 7.9671 117.709C7.9671 115.9 6.1836 114.433 3.9835 114.433C1.7835 114.433 0 115.9 0 117.709Z" fill="white"/>
<path d="M35.825 571.28C35.825 573.09 37.609 574.557 39.809 574.557C42.008 574.557 43.792 573.09 43.792 571.28C43.792 569.469 42.008 568.002 39.809 568.002C37.609 568.002 35.825 569.469 35.825 571.28Z" fill="white"/>
<path d="M35.826 594.156C35.826 595.965 37.6101 597.432 39.8101 597.432C42.0101 597.432 43.7931 595.965 43.7931 594.156C43.7931 592.345 42.0101 590.878 39.8101 590.878C37.6101 590.878 35.826 592.345 35.826 594.156Z" fill="white"/>
<path d="M35.826 617.047C35.826 618.857 37.6101 620.324 39.8101 620.324C42.0101 620.324 43.7931 618.857 43.7931 617.047C43.7931 615.237 42.0101 613.769 39.8101 613.769C37.6101 613.769 35.826 615.237 35.826 617.047Z" fill="white"/>
<path d="M8 571.278C8 573.088 9.7837 574.555 11.9843 574.555C14.1835 574.555 15.9672 573.088 15.9672 571.278C15.9672 569.467 14.1835 568 11.9843 568C9.7837 568 8 569.467 8 571.278Z" fill="white"/>
<path d="M8 594.156C8 595.965 9.7837 597.432 11.9843 597.432C14.1835 597.432 15.9672 595.965 15.9672 594.156C15.9672 592.345 14.1835 590.878 11.9843 590.878C9.7837 590.878 8 592.345 8 594.156Z" fill="white"/>
<path d="M8 617.044C8 618.855 9.7837 620.322 11.9843 620.322C14.1835 620.322 15.9672 618.855 15.9672 617.044C15.9672 615.234 14.1835 613.768 11.9843 613.768C9.7837 613.768 8 615.234 8 617.044Z" fill="white"/>
<path d="M690.826 117.278C690.826 119.088 692.61 120.556 694.809 120.556C697.01 120.556 698.793 119.088 698.793 117.278C698.793 115.468 697.01 114.001 694.809 114.001C692.61 114.001 690.826 115.468 690.826 117.278Z" fill="white"/>
<path d="M690.826 140.152C690.826 141.962 692.61 143.43 694.81 143.43C697.01 143.43 698.793 141.962 698.793 140.152C698.793 138.342 697.01 136.874 694.81 136.874C692.61 136.874 690.826 138.342 690.826 140.152Z" fill="white"/>
<path d="M690.826 163.046C690.826 164.857 692.61 166.324 694.81 166.324C697.01 166.324 698.793 164.857 698.793 163.046C698.793 161.237 697.01 159.77 694.81 159.77C692.61 159.77 690.826 161.237 690.826 163.046Z" fill="white"/>
<path d="M663 117.278C663 119.088 664.784 120.555 666.983 120.555C669.184 120.555 670.967 119.088 670.967 117.278C670.967 115.468 669.184 114 666.983 114C664.784 114 663 115.468 663 117.278Z" fill="white"/>
<path d="M663 140.154C663 141.964 664.784 143.432 666.983 143.432C669.184 143.432 670.967 141.964 670.967 140.154C670.967 138.345 669.184 136.877 666.983 136.877C664.784 136.877 663 138.345 663 140.154Z" fill="white"/>
<path d="M663 163.046C663 164.857 664.784 166.324 666.983 166.324C669.184 166.324 670.967 164.857 670.967 163.046C670.967 161.237 669.184 159.769 666.983 159.769C664.784 159.769 663 161.237 663 163.046Z" fill="white"/>
<path d="M662.893 690.946C662.893 692.757 664.677 694.224 666.878 694.224C669.078 694.224 670.861 692.757 670.861 690.946C670.861 689.136 669.078 687.668 666.878 687.668C664.677 687.668 662.893 689.136 662.893 690.946Z" fill="white"/>
<path d="M635.067 690.946C635.067 692.757 636.851 694.224 639.052 694.224C641.251 694.224 643.035 692.757 643.035 690.946C643.035 689.136 641.251 687.668 639.052 687.668C636.851 687.668 635.067 689.136 635.067 690.946Z" fill="white"/>
<path d="M607.262 690.946C607.262 692.757 609.046 694.224 611.246 694.224C613.446 694.224 615.23 692.757 615.23 690.946C615.23 689.136 613.446 687.668 611.246 687.668C609.046 687.668 607.262 689.136 607.262 690.946Z" fill="white"/>
<path d="M579.437 690.946C579.437 692.757 581.22 694.224 583.42 694.224C585.62 694.224 587.404 692.757 587.404 690.946C587.404 689.136 585.62 687.668 583.42 687.668C581.22 687.668 579.437 689.136 579.437 690.946Z" fill="white"/>
<path d="M551.632 690.946C551.632 692.757 553.415 694.224 555.615 694.224C557.815 694.224 559.599 692.757 559.599 690.946C559.599 689.136 557.815 687.668 555.615 687.668C553.415 687.668 551.632 689.136 551.632 690.946Z" fill="white"/>
<path d="M523.805 690.946C523.805 692.757 525.589 694.224 527.789 694.224C529.989 694.224 531.773 692.757 531.773 690.946C531.773 689.136 529.989 687.668 527.789 687.668C525.589 687.668 523.805 689.136 523.805 690.946Z" fill="white"/>
<path d="M496 690.946C496 692.757 497.784 694.224 499.984 694.224C502.184 694.224 503.967 692.757 503.967 690.946C503.967 689.136 502.184 687.668 499.984 687.668C497.784 687.668 496 689.136 496 690.946Z" fill="white"/>
<path d="M662.893 668.39C662.893 670.2 664.677 671.668 666.878 671.668C669.078 671.668 670.861 670.2 670.861 668.39C670.861 666.581 669.078 665.112 666.878 665.112C664.677 665.112 662.893 666.581 662.893 668.39Z" fill="white"/>
<path d="M635.067 668.39C635.067 670.2 636.851 671.668 639.052 671.668C641.251 671.668 643.035 670.2 643.035 668.39C643.035 666.581 641.251 665.112 639.052 665.112C636.851 665.112 635.067 666.581 635.067 668.39Z" fill="white"/>
<path d="M607.262 668.39C607.262 670.2 609.046 671.668 611.246 671.668C613.446 671.668 615.23 670.2 615.23 668.39C615.23 666.581 613.446 665.112 611.246 665.112C609.046 665.112 607.262 666.581 607.262 668.39Z" fill="white"/>
<path d="M579.437 668.39C579.437 670.2 581.22 671.668 583.42 671.668C585.62 671.668 587.404 670.2 587.404 668.39C587.404 666.581 585.62 665.112 583.42 665.112C581.22 665.112 579.437 666.581 579.437 668.39Z" fill="white"/>
<path d="M551.632 668.39C551.632 670.2 553.415 671.668 555.615 671.668C557.815 671.668 559.599 670.2 559.599 668.39C559.599 666.581 557.815 665.112 555.615 665.112C553.415 665.112 551.632 666.581 551.632 668.39Z" fill="white"/>
<path d="M523.805 668.39C523.805 670.2 525.589 671.668 527.789 671.668C529.989 671.668 531.772 670.2 531.772 668.39C531.772 666.581 529.989 665.112 527.789 665.112C525.589 665.112 523.805 666.581 523.805 668.39Z" fill="white"/>
<path d="M496 668.39C496 670.2 497.784 671.668 499.984 671.668C502.184 671.668 503.967 670.2 503.967 668.39C503.967 666.581 502.184 665.112 499.984 665.112C497.784 665.112 496 666.581 496 668.39Z" fill="white"/>
<path d="M662.893 645.835C662.893 647.644 664.677 649.112 666.878 649.112C669.078 649.112 670.861 647.644 670.861 645.835C670.861 644.025 669.078 642.557 666.878 642.557C664.677 642.557 662.893 644.025 662.893 645.835Z" fill="white"/>
<path d="M635.067 645.835C635.067 647.644 636.851 649.112 639.052 649.112C641.251 649.112 643.035 647.644 643.035 645.835C643.035 644.025 641.251 642.557 639.052 642.557C636.851 642.557 635.067 644.025 635.067 645.835Z" fill="white"/>
<path d="M607.262 645.835C607.262 647.644 609.046 649.112 611.246 649.112C613.446 649.112 615.23 647.644 615.23 645.835C615.23 644.025 613.446 642.557 611.246 642.557C609.046 642.557 607.262 644.025 607.262 645.835Z" fill="white"/>
<path d="M579.437 645.835C579.437 647.644 581.22 649.112 583.42 649.112C585.62 649.112 587.404 647.644 587.404 645.835C587.404 644.025 585.62 642.557 583.42 642.557C581.22 642.557 579.437 644.025 579.437 645.835Z" fill="white"/>
<path d="M551.632 645.835C551.632 647.644 553.415 649.112 555.615 649.112C557.815 649.112 559.599 647.644 559.599 645.835C559.599 644.025 557.815 642.557 555.615 642.557C553.415 642.557 551.632 644.025 551.632 645.835Z" fill="white"/>
<path d="M523.805 645.835C523.805 647.644 525.589 649.112 527.789 649.112C529.989 649.112 531.772 647.644 531.772 645.835C531.772 644.025 529.989 642.557 527.789 642.557C525.589 642.557 523.805 644.025 523.805 645.835Z" fill="white"/>
<path d="M496 645.835C496 647.644 497.784 649.112 499.984 649.112C502.184 649.112 503.967 647.644 503.967 645.835C503.967 644.025 502.184 642.557 499.984 642.557C497.784 642.557 496 644.025 496 645.835Z" fill="white"/>
<path d="M662.891 623.279C662.891 625.089 664.674 626.557 666.875 626.557C669.074 626.557 670.858 625.089 670.858 623.279C670.858 621.468 669.074 620.001 666.875 620.001C664.674 620.001 662.891 621.468 662.891 623.279Z" fill="white"/>
<path d="M635.067 623.278C635.067 625.089 636.851 626.556 639.052 626.556C641.251 626.556 643.035 625.089 643.035 623.278C643.035 621.468 641.251 620 639.052 620C636.851 620 635.067 621.468 635.067 623.278Z" fill="white"/>
<path d="M607.262 623.278C607.262 625.089 609.046 626.556 611.246 626.556C613.446 626.556 615.23 625.089 615.23 623.278C615.23 621.468 613.446 620 611.246 620C609.046 620 607.262 621.468 607.262 623.278Z" fill="white"/>
<path d="M579.437 623.278C579.437 625.089 581.22 626.556 583.42 626.556C585.62 626.556 587.404 625.089 587.404 623.278C587.404 621.468 585.62 620 583.42 620C581.22 620 579.437 621.468 579.437 623.278Z" fill="white"/>
<path d="M551.632 623.278C551.632 625.089 553.415 626.556 555.615 626.556C557.815 626.556 559.599 625.089 559.599 623.278C559.599 621.468 557.815 620 555.615 620C553.415 620 551.632 621.468 551.632 623.278Z" fill="white"/>
<path d="M523.805 623.278C523.805 625.089 525.589 626.556 527.789 626.556C529.989 626.556 531.772 625.089 531.772 623.278C531.772 621.468 529.989 620 527.789 620C525.589 620 523.805 621.468 523.805 623.278Z" fill="white"/>
<path d="M496 623.278C496 625.089 497.784 626.556 499.984 626.556C502.184 626.556 503.967 625.089 503.967 623.278C503.967 621.468 502.184 620 499.984 620C497.784 620 496 621.468 496 623.278Z" fill="white"/>
</svg>
