<svg width="50" height="50" viewBox="0 0 50 50" fill="none" xmlns="http://www.w3.org/2000/svg">
<g clip-path="url(#clip0)">
<path d="M49.3603 44.5795V9.68319C49.4284 6.79137 47.1394 4.39193 44.2475 4.32398C44.1654 4.32199 44.0832 4.32199 44.001 4.32398H37.7891V1.21802C37.7892 0.545305 37.2439 0 36.5712 0C35.8985 0 35.3532 0.545305 35.3532 1.21802V4.32398H14.6468V1.21802C14.6468 0.545305 14.1015 0 13.4288 0C12.7561 0 12.2108 0.545305 12.2108 1.21802V4.32398H5.99889C3.10718 4.2559 0.707746 6.54495 0.63967 9.43677C0.637688 9.51895 0.637688 9.60113 0.63967 9.68331V44.5795C0.572177 47.5049 2.88908 49.9311 5.81448 49.9986C5.87591 50 5.93745 50.0004 5.999 49.9996H44.0011C46.9271 50.034 49.327 47.69 49.3614 44.764C49.3622 44.7024 49.3619 44.6409 49.3603 44.5795ZM5.74978 6.76001C5.83278 6.75628 5.91589 6.75628 5.99889 6.76001H12.2108V9.80501C12.2108 10.4777 12.7561 11.023 13.4288 11.023C14.1015 11.023 14.6468 10.4777 14.6468 9.80501V6.76001H35.3532V9.80501C35.3532 10.4777 35.8985 11.023 36.5712 11.023C37.2439 11.023 37.7892 10.4777 37.7892 9.80501V6.76001H44.0011C45.5468 6.69124 46.8555 7.88839 46.9244 9.43409C46.9281 9.51708 46.9281 9.60019 46.9244 9.68319V14.6771H3.07571V9.68319C3.00693 8.13762 4.2042 6.82879 5.74978 6.76001ZM44.1872 47.5616C44.1251 47.5643 44.0631 47.5649 44.0011 47.5635H5.999C4.41857 47.5986 3.10893 46.3458 3.07384 44.7654C3.07244 44.7034 3.07314 44.6414 3.07571 44.5794V17.1131H46.9243V44.5795C46.992 46.1589 45.7665 47.494 44.1872 47.5616Z" fill="white"/>
<path d="M12.3935 22.107C9.73634 22.107 7.5824 24.2611 7.5824 26.9181C7.5824 29.5753 9.73646 31.7293 12.3935 31.7293C15.0507 31.7293 17.2046 29.5752 17.2046 26.9181C17.2046 24.2611 15.0507 22.107 12.3935 22.107ZM12.517 29.2933C12.4758 29.2944 12.4347 29.2944 12.3935 29.2933C11.1158 29.3274 10.0525 28.3193 10.0184 27.0417C10.0174 27.0006 10.0174 26.9594 10.0184 26.9183C10.0184 25.6065 11.0818 24.5431 12.3935 24.5431C13.7053 24.5431 14.7687 25.6064 14.7687 26.9183C14.8027 28.1959 13.7947 29.2593 12.517 29.2933Z" fill="white"/>
<path d="M25.0001 22.107C22.3429 22.107 20.189 24.2611 20.189 26.9181C20.189 29.5753 22.343 31.7293 25.0001 31.7293C27.6571 31.7293 29.8112 29.5752 29.8112 26.9181C29.8112 24.2611 27.6572 22.107 25.0001 22.107ZM25.1235 29.2933C25.0824 29.2944 25.0412 29.2944 25.0001 29.2933C23.7224 29.3274 22.659 28.3193 22.6249 27.0417C22.6238 27.0006 22.6238 26.9594 22.6249 26.9183C22.6256 25.6065 23.6895 24.5437 25.0012 24.5443C26.3121 24.545 27.3745 25.6075 27.3752 26.9183C27.4093 28.1959 26.4011 29.2593 25.1235 29.2933Z" fill="white"/>
<path d="M37.6065 22.107C34.9494 22.107 32.7954 24.2611 32.7954 26.9181C32.7954 29.5753 34.9495 31.7293 37.6065 31.7293C40.2637 31.7293 42.4176 29.5752 42.4176 26.9181C42.4176 24.2611 40.2636 22.107 37.6065 22.107ZM37.73 29.2933C37.6888 29.2944 37.6477 29.2944 37.6065 29.2933C36.3288 29.3274 35.2655 28.3193 35.2315 27.0417C35.2304 27.0006 35.2304 26.9594 35.2315 26.9183C35.2315 25.6065 36.2948 24.5431 37.6065 24.5431C38.9183 24.5431 39.9817 25.6064 39.9817 26.9183C40.0158 28.1959 39.0076 29.2593 37.73 29.2933Z" fill="white"/>
<path d="M12.5161 32.8864C12.4752 32.8858 12.4344 32.8858 12.3935 32.8864C9.73634 32.8864 7.5824 35.0405 7.5824 37.6975C7.5824 40.3546 9.73646 42.5086 12.3935 42.5086C15.0507 42.5086 17.2046 40.3546 17.2046 37.6975C17.2385 35.0744 15.1394 32.9203 12.5161 32.8864ZM14.7686 37.6976C14.7691 38.9758 13.7332 40.0122 12.4552 40.0127C12.4347 40.0127 12.414 40.0124 12.3935 40.0118C11.0818 40.0114 10.0188 38.9477 10.0191 37.636C10.0196 36.3242 11.0833 35.2612 12.395 35.2616C13.7068 35.262 14.7698 36.3257 14.7694 37.6375C14.7694 37.6575 14.7692 37.6776 14.7686 37.6976Z" fill="white"/>
<path d="M25.1226 32.8864C25.0817 32.8858 25.0409 32.8858 25 32.8864C22.3428 32.8864 20.1888 35.0405 20.1888 37.6975C20.1888 40.3546 22.3429 42.5086 25 42.5086C27.657 42.5086 29.8111 40.3546 29.8111 37.6975C29.8451 35.0744 27.7459 32.9203 25.1226 32.8864ZM27.3751 37.6976C27.3756 38.9758 26.3398 40.0122 25.0617 40.0127C25.0411 40.0127 25.0206 40.0124 25.0001 40.0118C23.6883 40.0114 22.6253 38.9477 22.6257 37.636C22.6262 36.3242 23.6898 35.2612 25.0016 35.2616C26.3133 35.262 27.3763 36.3257 27.376 37.6375C27.376 37.6575 27.3757 37.6776 27.3751 37.6976Z" fill="white"/>
<path d="M37.729 32.8864C37.6881 32.8858 37.6473 32.8858 37.6064 32.8864C34.9492 32.8864 32.7953 35.0405 32.7953 37.6975C32.7953 40.3546 34.9493 42.5086 37.6064 42.5086C40.2636 42.5086 42.4175 40.3546 42.4175 37.6975C42.4515 35.0744 40.3524 32.9203 37.729 32.8864ZM39.9816 37.6976C39.9821 38.9758 38.9462 40.0122 37.6682 40.0127C37.6477 40.0127 37.627 40.0124 37.6065 40.0118C36.2948 40.0114 35.2318 38.9477 35.2321 37.636C35.2326 36.3242 36.2963 35.2612 37.608 35.2616C38.9198 35.262 39.9829 36.3257 39.9824 37.6375C39.9824 37.6575 39.9822 37.6776 39.9816 37.6976Z" fill="white"/>
</g>
<defs>
<clipPath id="clip0">
<rect width="50" height="50" fill="white"/>
</clipPath>
</defs>
</svg>
