<svg width="426" height="360" viewBox="0 0 426 360" fill="none" xmlns="http://www.w3.org/2000/svg">
<g clip-path="url(#clip0)">
<path opacity="0.1" d="M397.872 198.923C381.509 225.896 384.575 262.642 391.762 291.615C394.166 301.316 396.936 311.557 394.881 322.413C392.366 335.688 383.199 346.113 373.921 352.083C357.007 362.94 337.693 362.639 323.629 351.288C311.484 341.483 303.486 324.382 291.085 315.104C270.35 299.572 241.878 308.985 217.156 323.501C199.673 333.746 180.429 346.783 164.27 339.402C152.901 334.218 145.812 319.595 142.503 303.681C140.906 295.998 139.94 287.605 136.278 281.752C134.099 278.273 131.103 275.944 127.998 274.033C99.6531 256.618 61.3032 271.179 33.9691 251.457C15.5066 238.142 5.01144 210.639 1.56158 181.229C-1.88828 151.82 0.948369 120.352 4.49969 89.3693C7.02753 67.3416 10.4465 43.7765 21.7931 25.8621C33.797 6.91383 52.7183 -1.56009 69.1647 0.238086C85.611 2.03626 99.8913 12.6545 112.2 25.6329C127.583 41.8524 141.457 62.5675 161.367 67.8002C174.928 71.3651 189.738 67.2382 204.159 64.9051C228.238 61.0031 251.981 62.1224 275.556 63.5879C298.126 64.9905 320.832 66.7347 341.862 74.8266C356.742 80.5583 368.164 92.4892 382.052 100.248C391.104 105.306 401.317 105.949 409.752 112.692C420.141 120.999 429.132 136.333 424.972 155.718C421.006 174.158 406.554 184.61 397.872 198.923Z" fill="#6C63FF"/>
<path d="M293.145 137.956C293.145 137.956 337.702 99.9113 347.611 80.7292C357.519 61.5472 370.132 45.0174 370.132 45.0174" stroke="#08107C" stroke-width="2" stroke-miterlimit="10"/>
<path d="M364.273 87.8995L344.999 83.4715C344.999 83.4715 349.547 104.187 364.273 87.8995Z" fill="#6C63FF"/>
<path d="M334.821 66.7529L345.912 83.6783C345.912 83.6783 324.229 85.2742 334.821 66.7529Z" fill="#0D083F"/>
<path d="M371.857 71.9901L354.241 68.8433C354.241 68.8433 365.305 85.9934 371.857 71.9901Z" fill="#6C63FF"/>
<path d="M345.789 56.8629L354.466 68.4432C354.466 68.4432 339.105 69.9267 345.789 56.8629Z" fill="#0D083F"/>
<path d="M363.351 54.5568C363.351 54.5568 378.351 55.285 380.115 56.7461C381.88 58.2071 377.878 66.7709 372.174 65.3728C366.47 63.9747 363.351 54.5568 363.351 54.5568Z" fill="#0D083F"/>
<path d="M357.356 40.8951C357.356 40.8951 363.483 52.2731 363.254 54.4399C363.025 56.6067 353.915 59.0387 352.075 50.8435C350.236 42.6483 357.356 40.8951 357.356 40.8951Z" fill="#0D083F"/>
<path d="M376.411 49.585C377.105 47.3467 375.887 44.9592 373.69 44.2523C371.494 43.5455 369.151 44.787 368.457 47.0253C367.763 49.2637 368.982 51.6512 371.178 52.358C373.375 53.0649 375.718 51.8234 376.411 49.585Z" fill="#2C1178"/>
<path d="M369.882 45.2112C370.576 42.9728 369.357 40.5853 367.161 39.8784C364.964 39.1716 362.621 40.4131 361.927 42.6515C361.234 44.8898 362.452 47.2774 364.649 47.9842C366.845 48.691 369.188 47.4495 369.882 45.2112Z" fill="#2C1178"/>
<path d="M154.167 287.093C154.167 287.093 161.318 265.416 115.985 239.284C115.985 239.284 69.9545 225.604 74.6616 178.627C74.6616 178.627 21.5991 218.241 57.505 268.702C93.4109 319.163 124.402 308.15 124.402 308.15L154.167 287.093Z" fill="#0D083F"/>
<path d="M140.346 296.884C140.346 296.884 118.226 272.523 97.0239 263.105C92.7885 261.163 88.8967 258.521 85.5053 255.288C71.9882 242.7 66.0943 223.707 69.5795 205.388L74.6749 178.627" stroke="#2C1178" stroke-width="2" stroke-miterlimit="10"/>
<path d="M336.904 14.9249H85.1744V312.762H336.904V14.9249Z" fill="url(#paint0_linear)"/>
<path d="M333.974 18.3909H88.1081V309.287H333.974V18.3909Z" fill="#F7F7FD"/>
<path d="M165.112 51.1807H102.958V56.2246H165.112V51.1807Z" fill="#E2E2EC"/>
<path d="M209.113 63.5117H102.958V68.5556H209.113V63.5117Z" fill="#E2E2EC"/>
<path d="M322.2 46.3616H278.089V85.1483H322.2V46.3616Z" fill="white"/>
<path d="M321.966 46.5863V84.9235H278.291V46.5863H321.966ZM322.407 46.1368H277.85V85.373H322.407V46.1368Z" fill="#E2E2EC"/>
<path d="M277.647 46.3616H233.536V85.1483H277.647V46.3616Z" fill="white"/>
<path d="M277.409 46.5863V84.9235H233.734V46.5863H277.409ZM277.85 46.1368H233.293V85.373H277.85V46.1368Z" fill="#E2E2EC"/>
<path d="M322.2 85.5978H278.089V124.385H322.2V85.5978Z" fill="white"/>
<path d="M321.966 85.8226V124.16H278.291V85.8226H321.966ZM322.407 85.373H277.85V124.609H322.407V85.373Z" fill="#E2E2EC"/>
<path d="M277.647 85.5978H233.536V124.385H277.647V85.5978Z" fill="white"/>
<path d="M277.409 85.8226V124.16H233.734V85.8226H277.409ZM277.85 85.373H233.293V124.609H277.85V85.373Z" fill="#E2E2EC"/>
<path d="M233.095 85.5978H188.983V124.385H233.095V85.5978Z" fill="white"/>
<path d="M232.874 85.8226V124.16H189.2V85.8226H232.874ZM233.315 85.373H188.758V124.609H233.315V85.373Z" fill="#E2E2EC"/>
<path d="M188.542 85.5978H144.431V124.385H188.542V85.5978Z" fill="white"/>
<path d="M188.322 85.8226V124.16H144.647V85.8226H188.322ZM188.763 85.373H144.206V124.609H188.763V85.373Z" fill="#E2E2EC"/>
<path d="M143.99 85.5978H99.8782V124.385H143.99V85.5978Z" fill="white"/>
<path d="M143.769 85.8226V124.16H100.094V85.8226H143.769ZM144.21 85.373H99.6532V124.609H144.21V85.373Z" fill="#E2E2EC"/>
<path d="M322.2 124.83H278.089V163.616H322.2V124.83Z" fill="white"/>
<path d="M321.966 125.059V163.396H278.291V125.059H321.966ZM322.407 124.609H277.85V163.846H322.407V124.609Z" fill="#E2E2EC"/>
<path d="M277.647 124.83H233.536V163.616H277.647V124.83Z" fill="white"/>
<path d="M277.409 125.059V163.396H233.734V125.059H277.409ZM277.85 124.609H233.293V163.846H277.85V124.609Z" fill="#E2E2EC"/>
<path d="M233.095 124.83H188.983V163.616H233.095V124.83Z" fill="white"/>
<path d="M232.874 125.059V163.396H189.2V125.059H232.874ZM233.315 124.609H188.758V163.846H233.315V124.609Z" fill="#E2E2EC"/>
<path d="M188.542 124.83H144.431V163.616H188.542V124.83Z" fill="white"/>
<path d="M188.322 125.059V163.396H144.647V125.059H188.322ZM188.763 124.609H144.206V163.846H188.763V124.609Z" fill="#E2E2EC"/>
<path d="M143.99 124.83H99.8782V163.616H143.99V124.83Z" fill="white"/>
<path d="M143.769 125.059V163.396H100.094V125.059H143.769ZM144.21 124.609H99.6532V163.846H144.21V124.609Z" fill="#E2E2EC"/>
<path d="M322.2 164.066H278.089V202.853H322.2V164.066Z" fill="white"/>
<path d="M321.966 164.291V202.628H278.291V164.291H321.966ZM322.407 163.841H277.85V203.077H322.407V163.841Z" fill="#E2E2EC"/>
<path d="M277.647 164.066H233.536V202.853H277.647V164.066Z" fill="white"/>
<path d="M277.409 164.291V202.628H233.734V164.291H277.409ZM277.85 163.841H233.293V203.077H277.85V163.841Z" fill="#E2E2EC"/>
<path d="M233.095 164.066H188.983V202.853H233.095V164.066Z" fill="white"/>
<path d="M232.874 164.291V202.628H189.2V164.291H232.874ZM233.315 163.841H188.758V203.077H233.315V163.841Z" fill="#E2E2EC"/>
<path d="M188.542 164.066H144.431V202.853H188.542V164.066Z" fill="white"/>
<path d="M188.322 164.291V202.628H144.647V164.291H188.322ZM188.763 163.841H144.206V203.077H188.763V163.841Z" fill="#E2E2EC"/>
<path d="M143.99 164.066H99.8782V202.853H143.99V164.066Z" fill="white"/>
<path d="M143.769 164.291V202.628H100.094V164.291H143.769ZM144.21 163.841H99.6532V203.077H144.21V163.841Z" fill="#E2E2EC"/>
<path d="M322.2 203.298H278.089V242.084H322.2V203.298Z" fill="white"/>
<path d="M321.966 203.527V241.86H278.291V203.527H321.966ZM322.407 203.077H277.85V242.309H322.407V203.077Z" fill="#E2E2EC"/>
<path d="M277.647 203.298H233.536V242.084H277.647V203.298Z" fill="white"/>
<path d="M277.409 203.527V241.86H233.734V203.527H277.409ZM277.85 203.077H233.293V242.309H277.85V203.077Z" fill="#E2E2EC"/>
<path d="M233.095 203.298H188.983V242.084H233.095V203.298Z" fill="white"/>
<path d="M232.874 203.527V241.86H189.2V203.527H232.874ZM233.315 203.077H188.758V242.309H233.315V203.077Z" fill="#E2E2EC"/>
<path d="M188.542 203.298H144.431V242.084H188.542V203.298Z" fill="white"/>
<path d="M188.322 203.527V241.86H144.647V203.527H188.322ZM188.763 203.077H144.206V242.309H188.763V203.077Z" fill="#E2E2EC"/>
<path d="M143.99 203.298H99.8782V242.084H143.99V203.298Z" fill="white"/>
<path d="M143.769 203.527V241.86H100.094V203.527H143.769ZM144.21 203.077H99.6532V242.309H144.21V203.077Z" fill="#E2E2EC"/>
<path d="M322.2 242.534H278.089V281.321H322.2V242.534Z" fill="white"/>
<path d="M321.966 242.759V281.096H278.291V242.759H321.966ZM322.407 242.309H277.85V281.545H322.407V242.309Z" fill="#E2E2EC"/>
<path d="M277.647 242.534H233.536V281.321H277.647V242.534Z" fill="white"/>
<path d="M277.409 242.759V281.096H233.734V242.759H277.409ZM277.85 242.309H233.293V281.545H277.85V242.309Z" fill="#E2E2EC"/>
<path d="M233.095 242.534H188.983V281.321H233.095V242.534Z" fill="white"/>
<path d="M232.874 242.759V281.096H189.2V242.759H232.874ZM233.315 242.309H188.758V281.545H233.315V242.309Z" fill="#E2E2EC"/>
<path d="M188.542 242.534H144.431V281.321H188.542V242.534Z" fill="white"/>
<path d="M188.322 242.759V281.096H144.647V242.759H188.322ZM188.763 242.309H144.206V281.545H188.763V242.309Z" fill="#E2E2EC"/>
<path d="M143.99 242.534H99.8782V281.321H143.99V242.534Z" fill="white"/>
<path d="M143.769 242.759V281.096H100.094V242.759H143.769ZM144.21 242.309H99.6532V281.545H144.21V242.309Z" fill="#E2E2EC"/>
<path d="M192.53 316.88C193.792 315.904 194.979 314.753 195.345 313.351C195.533 312.608 195.433 311.821 195.067 311.151C194.701 310.482 194.096 309.982 193.377 309.754C191.573 309.179 189.645 310.204 188.18 311.269C186.716 312.335 185.044 313.517 183.129 313.297C185.11 311.836 186.054 309.467 185.507 307.313C185.413 306.849 185.182 306.426 184.845 306.1C183.844 305.2 182.026 305.592 180.826 306.293C177.01 308.541 175.947 312.834 175.925 316.713C175.541 315.315 175.863 313.859 175.854 312.42C175.846 310.982 175.374 309.395 173.918 308.621C172.986 308.21 171.977 308.012 170.962 308.042C169.246 307.988 167.336 308.132 166.167 309.174C164.711 310.469 165.09 312.645 166.356 314.07C167.622 315.495 169.55 316.39 171.319 317.374C172.669 318.125 174.037 319.001 174.849 320.188C174.955 320.345 175.044 320.514 175.113 320.692H185.864C188.233 319.707 190.472 318.426 192.53 316.88Z" fill="#0D083F"/>
<path d="M105.697 94.0583C107.086 94.0583 108.212 92.911 108.212 91.4959C108.212 90.0807 107.086 88.9335 105.697 88.9335C104.308 88.9335 103.182 90.0807 103.182 91.4959C103.182 92.911 104.308 94.0583 105.697 94.0583Z" fill="#4E00FF"/>
<path d="M111.979 94.0583C113.368 94.0583 114.494 92.911 114.494 91.4959C114.494 90.0807 113.368 88.9335 111.979 88.9335C110.59 88.9335 109.465 90.0807 109.465 91.4959C109.465 92.911 110.59 94.0583 111.979 94.0583Z" fill="#FFD037"/>
<path d="M194.493 132.045C195.882 132.045 197.008 130.898 197.008 129.482C197.008 128.067 195.882 126.92 194.493 126.92C193.105 126.92 191.979 128.067 191.979 129.482C191.979 130.898 193.105 132.045 194.493 132.045Z" fill="#6C63FF"/>
<path d="M200.78 132.045C202.169 132.045 203.295 130.898 203.295 129.482C203.295 128.067 202.169 126.92 200.78 126.92C199.391 126.92 198.265 128.067 198.265 129.482C198.265 130.898 199.391 132.045 200.78 132.045Z" fill="#6C63FF"/>
<path d="M328.945 205.455C330.334 205.455 331.46 204.308 331.46 202.893C331.46 201.478 330.334 200.331 328.945 200.331C327.556 200.331 326.431 201.478 326.431 202.893C326.431 204.308 327.556 205.455 328.945 205.455Z" fill="#6C63FF"/>
<path d="M330.202 202.471C331.591 202.471 332.717 201.323 332.717 199.908C332.717 198.493 331.591 197.346 330.202 197.346C328.814 197.346 327.688 198.493 327.688 199.908C327.688 201.323 328.814 202.471 330.202 202.471Z" fill="#6C63FF"/>
<path d="M331.46 199.908C332.849 199.908 333.974 198.761 333.974 197.346C333.974 195.93 332.849 194.783 331.46 194.783C330.071 194.783 328.945 195.93 328.945 197.346C328.945 198.761 330.071 199.908 331.46 199.908Z" fill="#6C63FF"/>
<path d="M284.547 94.0583C285.936 94.0583 287.062 92.911 287.062 91.4959C287.062 90.0807 285.936 88.9335 284.547 88.9335C283.158 88.9335 282.032 90.0807 282.032 91.4959C282.032 92.911 283.158 94.0583 284.547 94.0583Z" fill="#6C63FF"/>
<path d="M290.829 94.0583C292.218 94.0583 293.344 92.911 293.344 91.4959C293.344 90.0807 292.218 88.9335 290.829 88.9335C289.44 88.9335 288.315 90.0807 288.315 91.4959C288.315 92.911 289.44 94.0583 290.829 94.0583Z" fill="#6C63FF"/>
<path d="M297.116 94.0583C298.504 94.0583 299.63 92.911 299.63 91.4959C299.63 90.0807 298.504 88.9335 297.116 88.9335C295.727 88.9335 294.601 90.0807 294.601 91.4959C294.601 92.911 295.727 94.0583 297.116 94.0583Z" fill="#6C63FF"/>
<path d="M303.398 94.0583C304.786 94.0583 305.912 92.911 305.912 91.4959C305.912 90.0807 304.786 88.9335 303.398 88.9335C302.009 88.9335 300.883 90.0807 300.883 91.4959C300.883 92.911 302.009 94.0583 303.398 94.0583Z" fill="#6C63FF"/>
<path d="M284.547 173.443C285.936 173.443 287.062 172.296 287.062 170.881C287.062 169.466 285.936 168.319 284.547 168.319C283.158 168.319 282.032 169.466 282.032 170.881C282.032 172.296 283.158 173.443 284.547 173.443Z" fill="#6C63FF"/>
<path d="M290.829 173.443C292.218 173.443 293.344 172.296 293.344 170.881C293.344 169.466 292.218 168.319 290.829 168.319C289.44 168.319 288.315 169.466 288.315 170.881C288.315 172.296 289.44 173.443 290.829 173.443Z" fill="#6C63FF"/>
<path d="M297.116 173.443C298.504 173.443 299.63 172.296 299.63 170.881C299.63 169.466 298.504 168.319 297.116 168.319C295.727 168.319 294.601 169.466 294.601 170.881C294.601 172.296 295.727 173.443 297.116 173.443Z" fill="#6C63FF"/>
<path d="M303.398 173.443C304.786 173.443 305.912 172.296 305.912 170.881C305.912 169.466 304.786 168.319 303.398 168.319C302.009 168.319 300.883 169.466 300.883 170.881C300.883 172.296 302.009 173.443 303.398 173.443Z" fill="#6C63FF"/>
<path d="M150.095 132.045C151.484 132.045 152.61 130.898 152.61 129.482C152.61 128.067 151.484 126.92 150.095 126.92C148.707 126.92 147.581 128.067 147.581 129.482C147.581 130.898 148.707 132.045 150.095 132.045Z" fill="#FFD037"/>
<path d="M105.697 170.885C107.086 170.885 108.212 169.738 108.212 168.323C108.212 166.908 107.086 165.761 105.697 165.761C104.308 165.761 103.182 166.908 103.182 168.323C103.182 169.738 104.308 170.885 105.697 170.885Z" fill="#4E00FF"/>
<path d="M326.775 209.322C329.532 210.98 333.833 212.059 339.282 208.494L339.229 216.388C339.617 221.783 346.186 241.522 346.186 241.522L350.818 257.751C354.137 269.216 355.851 281.101 355.909 293.054C355.909 297.014 356.271 301.096 357.387 304.167C359.853 310.959 356.416 319.712 354.925 322.971C352.415 323.835 349.863 324.567 347.28 325.165C347.047 325.219 346.819 325.29 346.596 325.376L346.565 325.331C346.565 325.331 339.612 328.141 336.524 327.754C334.221 327.466 332.779 330.393 334.583 332.546C332.88 332.996 331.133 333.315 329.955 333.167C326.867 332.78 325.319 338.193 331.116 339.739C336.912 341.285 369.757 339.739 369.757 339.739C370.681 339.268 371.425 338.498 371.872 337.549C372.319 336.6 372.444 335.526 372.227 334.497C374.751 334.398 376.326 334.322 376.326 334.322C376.326 334.322 382.122 331.625 376.326 324.266L376.017 324.504L374.777 320.786V315.765C374.777 315.765 382.118 279.801 379.802 275.549C377.486 271.296 376.326 249.641 376.326 249.641L377.111 226.054C379.206 221.648 380.278 214.743 380.821 209.344C381.609 206.768 382.107 204.109 382.303 201.419C382.396 200.151 382.471 198.82 382.519 197.44C382.539 194.413 382.053 191.404 381.081 188.544C383.287 185.307 386.874 180.303 389.834 177.345C394.47 172.706 393.31 167.289 393.31 167.289L391.378 154.14L386.741 131.712C387.324 125.49 386.049 121.908 384.641 119.885C384.977 117.875 385.29 115.866 385.524 113.847C386.551 105.07 386.093 96.1775 384.169 87.5578C383.499 84.5504 382.586 81.4665 380.517 79.1873C378.174 76.6069 374.371 75.0335 373.498 71.6529C373.282 70.8123 373.273 69.9177 372.96 69.1085C372.113 66.8968 369.43 66.0921 367.083 65.8044C362.901 65.2874 356.853 64.9053 352.834 66.5686C350.028 67.7374 346.164 70.9562 344.628 74.4087C343.746 75.9956 343.336 77.6634 343.711 79.2323C343.859 79.8104 344.083 80.3653 344.377 80.8821C343.778 82.5357 343.473 84.2848 343.477 86.0474C343.491 89.0772 344.4 92.0325 346.085 94.5286C347.771 97.0246 350.155 98.9457 352.927 100.042C353.019 100.338 353.103 100.631 353.174 100.918C353.349 101.611 353.476 102.316 353.553 103.027C353.478 104.375 353.394 105.764 353.332 107.136C353.288 107.324 353.241 107.51 353.191 107.693C349.868 109.192 346.628 110.876 343.486 112.737C345.806 116.216 343.098 130.912 343.098 130.912C337.301 134.391 331.504 143.288 337.689 152.567C343.874 161.845 340.393 171.897 340.393 171.897L339.427 187.015V187.042L339.233 190.068H339.308L339.233 191.214L339.401 191.245V192.477C336.688 193.493 332.722 195.543 330.357 199.333C329.239 201.197 327.878 202.898 326.311 204.39C325.952 204.707 325.672 205.108 325.495 205.558C325.318 206.008 325.249 206.495 325.294 206.978C325.34 207.46 325.498 207.925 325.755 208.333C326.013 208.741 326.362 209.08 326.775 209.322ZM373.432 169.15C373.199 166.535 373.673 163.904 374.804 161.544C375.712 161.562 376.623 161.572 377.534 161.575C377.627 162.227 377.737 162.848 377.87 163.414C378.655 166.822 375.518 168.453 373.427 169.146L373.432 169.15Z" fill="url(#paint1_linear)"/>
<path d="M374.195 319.024L375.682 323.569L370.829 328.514L354.841 332.304L343.314 331.166L344.059 326.999C344.28 326.103 344.738 325.286 345.384 324.638C346.03 323.99 346.838 323.536 347.721 323.326C352.459 322.193 361.494 319.604 363.391 316.012L374.195 319.024Z" fill="#DB8B8B"/>
<path opacity="0.1" d="M374.195 319.024L375.682 323.569L370.829 328.514L354.841 332.304L343.314 331.166L344.059 326.999C344.28 326.103 344.738 325.286 345.384 324.638C346.03 323.99 346.838 323.536 347.721 323.326C352.459 322.193 361.494 319.604 363.391 316.012L374.195 319.024Z" fill="black"/>
<path d="M347.05 330.011L349.283 326.981L347.05 323.47C347.05 323.47 340.358 326.221 337.385 325.844C334.411 325.466 332.924 330.789 338.501 332.286C344.077 333.783 375.681 332.286 375.681 332.286C375.681 332.286 381.258 329.633 375.681 322.436L370.829 326.226C370.829 326.226 362.65 330.771 358.56 330.015L347.05 330.011Z" fill="#FFE600"/>
<path d="M337.01 336.444L348.537 337.581L364.525 333.792L369.377 328.847L368.985 327.642L368.429 325.951L367.873 324.306L357.091 321.276C356.54 322.192 355.784 322.963 354.885 323.524C351.382 325.965 345.092 327.727 341.399 328.608C341.249 328.646 341.102 328.692 340.958 328.748C340.176 329.015 339.473 329.479 338.913 330.097C338.353 330.714 337.955 331.465 337.755 332.281L337.01 336.444Z" fill="#DB8B8B"/>
<path opacity="0.1" d="M337.01 336.444L348.537 337.581L364.525 333.792L369.377 328.847L368.985 327.642L364.547 331.121C364.547 331.121 356.368 335.666 352.278 334.911H340.729L342.961 331.881L340.958 328.734C340.176 329.002 339.473 329.466 338.913 330.083C338.353 330.701 337.955 331.452 337.755 332.268L337.01 336.444Z" fill="black"/>
<path d="M340.729 335.316L342.961 332.286L340.729 328.775C340.729 328.775 334.036 331.526 331.063 331.148C328.089 330.771 326.603 336.093 332.179 337.59C337.755 339.087 369.36 337.59 369.36 337.59C369.36 337.59 374.936 334.938 369.36 327.741L364.507 331.53C364.507 331.53 356.328 336.075 352.238 335.32L340.729 335.316Z" fill="#FFE600"/>
<path d="M350.024 115.564C350.024 115.564 367.873 117.457 365.27 109.882C364.542 107.734 364.353 105.435 364.719 103.193C365.182 100.414 366.26 97.7785 367.873 95.4878L351.14 98.1401C352.143 99.8487 352.906 101.692 353.407 103.616C355.401 111.649 350.024 115.564 350.024 115.564Z" fill="#DB8B8B"/>
<path d="M380.512 201.949C380.512 201.949 380.142 218.241 376.423 226.197L375.677 249.309C375.677 249.309 376.793 270.527 379.025 274.694C381.258 278.862 374.173 314.097 374.173 314.097V320.161C374.173 320.161 362.261 324.706 358.926 319.402L362.275 274.312L360.788 211.799L380.512 201.949Z" fill="#0F0665"/>
<path opacity="0.1" d="M380.586 202C380.586 202 380.215 218.292 376.496 226.248L375.751 249.36C375.751 249.36 376.867 270.578 379.099 274.745C381.331 278.913 374.246 314.148 374.246 314.148V320.212C374.246 320.212 362.335 324.757 359 319.453L362.348 274.363L360.862 211.85L380.586 202Z" fill="white"/>
<path d="M387.95 149.662L390.182 155.727L392.04 168.611C392.291 170.406 392.118 172.235 391.535 173.949C390.953 175.662 389.978 177.208 388.691 178.46C384.231 183.005 378.28 192.477 378.28 192.477L371.221 170.899C371.221 170.899 378.28 169.762 377.173 164.835C376.065 159.908 376.423 150.782 376.423 150.782L387.95 149.662Z" fill="#FFE600"/>
<path opacity="0.05" d="M387.729 149L389.961 155.064L391.818 167.948C392.069 169.743 391.896 171.573 391.314 173.286C390.732 174.999 389.757 176.546 388.47 177.798C384.01 182.343 378.059 191.815 378.059 191.815L371 170.236C371 170.236 378.059 169.099 376.951 164.172C375.844 159.245 376.201 150.119 376.201 150.119L387.729 149Z" fill="black"/>
<path opacity="0.1" d="M354.903 323.528C359.672 331.171 367.097 326.842 368.411 325.978L367.873 324.306L357.091 321.276C356.546 322.192 355.796 322.964 354.903 323.528Z" fill="black"/>
<path d="M339.987 216.726C340.358 222.03 346.68 241.352 346.68 241.352L351.14 257.252C354.336 268.495 355.985 280.135 356.041 291.84C356.041 295.72 356.39 299.721 357.466 302.728C360.439 311.063 354.493 322.432 354.493 322.432C359.698 331.903 368.61 325.461 368.61 325.461V319.402C368.61 319.402 375.668 286.436 373.815 279.999C371.963 273.562 371.213 256.128 371.213 256.128V224.66C377.169 218.612 380.791 210.583 381.417 202.039C381.505 200.798 381.575 199.495 381.624 198.141C381.924 189.6 376.189 179.571 373.948 176.001C373.41 175.138 373.065 174.653 373.065 174.653L340.234 187.923L340.159 187.955V189.249V192.113L339.987 216.726Z" fill="#0F0665"/>
<path opacity="0.1" d="M351.14 98.1356C352.143 99.8442 352.906 101.687 353.407 103.611C355.225 104.314 357.162 104.638 359.105 104.566C361.048 104.493 362.957 104.025 364.719 103.189C365.182 100.411 366.261 97.7772 367.873 95.4878L351.14 98.1356Z" fill="black"/>
<path d="M358.578 103.813C366.586 103.813 373.079 97.1977 373.079 89.0368C373.079 80.876 366.586 74.2603 358.578 74.2603C350.569 74.2603 344.077 80.876 344.077 89.0368C344.077 97.1977 350.569 103.813 358.578 103.813Z" fill="#DB8B8B"/>
<path opacity="0.1" d="M339.987 192.1L340.146 192.131C355.737 195.399 375.311 178.838 375.311 178.838C374.786 177.937 374.334 176.994 373.957 176.019C373.418 175.156 373.074 174.671 373.074 174.671L340.243 187.941L340.159 189.267L339.987 192.1Z" fill="black"/>
<path d="M344.077 115.182C344.077 115.182 364.9 102.298 371.592 107.603L380.887 119.741C380.887 119.741 386.838 121.633 385.74 133.758L390.182 155.727L376.798 159.139C376.798 159.139 368.989 166.718 375.311 177.705C375.311 177.705 355.604 194.374 339.987 190.967L341.104 173.16C341.104 173.16 344.452 163.311 338.501 154.216C332.549 145.122 338.13 136.41 343.706 132.998C343.706 132.993 346.305 118.594 344.077 115.182Z" fill="#FFE600"/>
<path d="M342.961 192.477C342.961 192.477 335.152 193.992 331.433 200.056C330.36 201.875 329.052 203.539 327.542 205.001C327.203 205.315 326.94 205.705 326.774 206.141C326.608 206.576 326.544 207.045 326.587 207.51C326.63 207.975 326.778 208.423 327.02 208.82C327.263 209.216 327.593 209.55 327.983 209.794C330.935 211.592 335.748 212.711 341.827 207.622C352.256 198.919 342.961 192.477 342.961 192.477Z" fill="#DB8B8B"/>
<path opacity="0.1" d="M354.488 122.384C354.488 122.384 361.926 121.624 363.783 141.328C365.641 161.031 368.636 165.576 368.636 165.576C368.636 165.576 370.493 175.808 366.033 181.868C361.573 187.928 353.019 200.812 353.019 200.812C353.019 200.812 343.724 203.464 341.867 193.992L353.394 172.018C353.394 172.018 355.251 164.439 350.791 159.134C346.331 153.83 342.961 118.594 354.488 122.384Z" fill="black"/>
<path d="M353.729 121.247C353.729 121.247 361.167 120.487 363.025 140.191C364.882 159.894 367.877 164.439 367.877 164.439C367.877 164.439 369.735 174.671 365.275 180.731C360.814 186.79 352.26 199.674 352.26 199.674C352.26 199.674 342.965 202.327 341.108 192.855L352.635 170.881C352.635 170.881 354.493 163.302 350.033 157.997C345.572 152.692 342.215 117.457 353.729 121.247Z" fill="#FFE600"/>
<path opacity="0.1" d="M347.606 135.452C347.606 135.452 346.865 147.185 350.2 153.641C353.535 160.096 353.549 168.417 350.2 172.971" fill="black"/>
<path opacity="0.1" d="M345.749 121.058C345.749 121.058 348.722 118.028 357.276 117.646C365.83 117.264 369.545 114.616 369.545 114.616" fill="black"/>
<path opacity="0.1" d="M366.43 69.9447C368.689 70.2279 371.283 71.0191 372.086 73.1814C372.386 73.9771 372.395 74.8537 372.602 75.6764C373.445 78.985 377.102 80.5269 379.356 83.0579C381.346 85.3056 382.224 88.3131 382.886 91.2576C384.742 99.7013 385.189 108.403 384.209 116.999C383.486 123.292 382.003 129.469 381.589 135.781C381.174 142.092 381.933 148.732 385.316 154.037C386.772 156.316 388.696 158.321 389.728 160.829C387.597 162.591 384.655 162.843 381.906 162.938C378.709 163.048 375.511 163.048 372.311 162.938C370.635 162.879 368.883 162.767 367.436 161.904C366.365 161.205 365.485 160.242 364.878 159.103C363.047 155.956 362.588 152.135 362.672 148.467C362.756 144.798 363.32 141.148 363.386 137.475C363.422 135.475 363.267 133.348 362.138 131.712C361.322 130.53 360.082 129.734 359.023 128.777C355.053 125.18 353.677 119.417 353.544 114C353.412 108.583 354.29 103.157 353.84 97.758C353.663 95.6451 352.887 93.1052 350.849 92.6961C350.205 92.5658 349.525 92.6961 348.908 92.4444C347.271 91.8015 347.43 89.4504 346.962 87.7287C346.437 85.7956 344.818 84.3031 344.364 82.3341C343.292 77.7488 349.018 72.2778 352.772 70.6819C356.588 69.0546 362.407 69.4412 366.43 69.9447Z" fill="black"/>
<path d="M366.801 69.1895C369.06 69.4727 371.654 70.2639 372.457 72.4262C372.757 73.2219 372.765 74.0985 372.973 74.9212C373.815 78.2298 377.473 79.7717 379.727 82.3027C381.717 84.5504 382.594 87.5579 383.256 90.5024C385.113 98.9461 385.56 107.648 384.58 116.243C383.856 122.537 382.374 128.714 381.959 135.025C381.544 141.337 382.303 147.977 385.687 153.281C387.143 155.561 389.066 157.565 390.099 160.074C387.968 161.836 385.025 162.088 382.277 162.182C379.08 162.293 375.881 162.293 372.682 162.182C371.005 162.124 369.254 162.011 367.807 161.148C366.735 160.45 365.855 159.487 365.248 158.348C363.417 155.201 362.958 151.38 363.042 147.711C363.126 144.043 363.691 140.393 363.757 136.72C363.792 134.72 363.638 132.593 362.509 130.957C361.692 129.775 360.453 128.979 359.394 128.021C355.424 124.425 354.047 118.662 353.915 113.245C353.782 107.828 354.66 102.402 354.21 97.0028C354.034 94.8899 353.257 92.35 351.219 91.9409C350.575 91.8106 349.896 91.9409 349.278 91.6892C347.641 91.0463 347.8 88.6952 347.333 86.9735C346.808 85.0404 345.189 83.5479 344.734 81.5789C343.662 76.9936 349.388 71.5226 353.143 69.9267C356.959 68.2949 362.778 68.6815 366.801 69.1895Z" fill="#472727"/>
</g>
<defs>
<linearGradient id="paint0_linear" x1="211.041" y1="312.757" x2="211.041" y2="14.9249" gradientUnits="userSpaceOnUse">
<stop stop-color="#808080" stop-opacity="0.25"/>
<stop offset="0.54" stop-color="#808080" stop-opacity="0.12"/>
<stop offset="1" stop-color="#808080" stop-opacity="0.1"/>
</linearGradient>
<linearGradient id="paint1_linear" x1="-124226" y1="222006" x2="-124226" y2="53697.3" gradientUnits="userSpaceOnUse">
<stop stop-color="#808080" stop-opacity="0.25"/>
<stop offset="0.54" stop-color="#808080" stop-opacity="0.12"/>
<stop offset="1" stop-color="#808080" stop-opacity="0.1"/>
</linearGradient>
<clipPath id="clip0">
<rect width="426" height="360" fill="white"/>
</clipPath>
</defs>
</svg>
