<svg width="50" height="50" viewBox="0 0 50 50" fill="none" xmlns="http://www.w3.org/2000/svg">
<path d="M48.8806 20.7444L43.0325 19.3253C42.706 18.2965 42.2943 17.301 41.8025 16.3504L44.8028 11.3501C45.1486 10.7737 45.0578 10.0359 44.5825 9.56064L40.4395 5.41748C39.9642 4.94219 39.2263 4.85137 38.6501 5.19717L33.6494 8.19736C32.6987 7.70537 31.703 7.29375 30.6747 6.96738L29.2556 1.11943C29.0961 0.4625 28.508 0 27.832 0H21.9727C21.2967 0 20.7086 0.4625 20.5491 1.11943L19.13 6.96738C18.1017 7.29375 17.106 7.70547 16.1553 8.19736L11.1547 5.19717C10.5784 4.85137 9.84072 4.94219 9.36533 5.41748L5.22217 9.56055C4.74687 10.0358 4.65605 10.7736 5.00186 11.35L8.00215 16.3503C7.50928 17.3028 7.09687 18.3006 6.77012 19.3316L1.10967 20.7468C0.45752 20.9099 0 21.4958 0 22.168V28.0273C0 28.6995 0.45752 29.2854 1.10957 29.4484L6.77002 30.8636C7.09697 31.8948 7.50908 32.8923 8.00195 33.8448L5.00176 38.8451C4.65596 39.4215 4.74678 40.1593 5.22207 40.6346L9.36523 44.7778C9.84043 45.2531 10.5782 45.3439 11.1547 44.9981L16.155 41.9979C17.1075 42.4908 18.1054 42.9031 19.1363 43.23L20.5515 48.8904C20.7146 49.5425 21.3005 50 21.9727 50H27.832C28.5042 50 29.0901 49.5425 29.2531 48.8904L30.6683 43.23C31.6993 42.9031 32.6971 42.4908 33.6496 41.9979L38.6499 44.9981C39.2262 45.3439 39.9641 45.2531 40.4394 44.7778L44.5825 40.6346C45.0578 40.1593 45.1486 39.4215 44.8028 38.8451L41.8026 33.8448C42.2944 32.8944 42.706 31.8989 43.0325 30.8701L48.8806 29.4509C49.5375 29.2915 50 28.7033 50 28.0273V22.168C50 21.492 49.5375 20.9038 48.8806 20.7444ZM47.0703 26.8755L41.5191 28.2227C40.9983 28.349 40.5881 28.7497 40.4495 29.2675C40.0837 30.6345 39.5443 31.9391 38.8467 33.1449C38.58 33.606 38.5844 34.1754 38.8585 34.6321L41.7022 39.3717L39.1766 41.8975L34.4371 39.0538C33.9804 38.7797 33.4108 38.7752 32.9499 39.0419C31.7436 39.7397 30.4389 40.279 29.0721 40.6449C28.5578 40.7825 28.1587 41.1883 28.0297 41.7047L26.6883 47.0703H23.1164L21.775 41.7047C21.646 41.1883 21.2469 40.7825 20.7326 40.6449C19.3658 40.2791 18.0611 39.7397 16.8548 39.0419C16.3938 38.7753 15.8244 38.7797 15.3676 39.0538L10.6281 41.8975L8.10244 39.3717L10.9462 34.6321C11.2203 34.1754 11.2248 33.6059 10.958 33.1449C10.2603 31.9391 9.721 30.6345 9.35518 29.2675C9.21758 28.7533 8.81182 28.3542 8.29531 28.2251L2.92969 26.8836V23.3116L8.29531 21.9702C8.81172 21.8411 9.21748 21.4421 9.35518 20.9278C9.721 19.5608 10.2604 18.2563 10.9581 17.0501C11.2247 16.5891 11.2202 16.0196 10.9462 15.5629L8.10244 10.8233L10.6281 8.29766L15.3679 11.1414C15.8244 11.4154 16.3939 11.4199 16.855 11.1532C18.0618 10.4551 19.3665 9.91582 20.7325 9.55029C21.2503 9.41182 21.651 9.00156 21.7774 8.48066L23.1245 2.92969H26.6802L28.0272 8.48086C28.1537 9.00166 28.5544 9.41191 29.0722 9.55049C30.4382 9.91602 31.7429 10.4553 32.9497 11.1534C33.4105 11.4201 33.9802 11.4156 34.4368 11.1416L39.1766 8.29785L41.7022 10.8235L38.8585 15.5631C38.5845 16.0198 38.5799 16.5893 38.8466 17.0503C39.5444 18.2564 40.0837 19.561 40.4495 20.928C40.5881 21.4457 40.9983 21.8465 41.5191 21.9729L47.0703 23.3198V26.8755Z" fill="white"/>
<path d="M24.9023 14.8438C19.2483 14.8438 14.6484 19.4437 14.6484 25.0977C14.6484 30.7517 19.2483 35.3516 24.9023 35.3516C30.5563 35.3516 35.1562 30.7517 35.1562 25.0977C35.1562 19.4437 30.5563 14.8438 24.9023 14.8438ZM24.9023 32.4219C20.8638 32.4219 17.5781 29.1362 17.5781 25.0977C17.5781 21.0591 20.8638 17.7734 24.9023 17.7734C28.9409 17.7734 32.2266 21.0591 32.2266 25.0977C32.2266 29.1362 28.9409 32.4219 24.9023 32.4219Z" fill="white"/>
</svg>
