<svg width="50" height="50" viewBox="0 0 50 50" fill="none" xmlns="http://www.w3.org/2000/svg">
<g clip-path="url(#clip0)">
<path d="M47.9004 40.039H46.4333C46.6215 39.6722 46.7285 39.2571 46.7285 38.8173L46.7275 13.4272C46.7275 11.9465 45.5228 10.7417 44.042 10.7417H40.0879V9.84717C40.0879 9.1418 39.5141 8.56787 38.8086 8.56787H37.5964V4.89258C37.5964 4.47959 37.3955 4.09004 37.0592 3.85039C36.7228 3.61084 36.289 3.54834 35.8985 3.6834L33.5915 4.48115C33.2093 4.61338 33.0065 5.03037 33.1387 5.4127C33.2709 5.79492 33.6876 5.99815 34.0702 5.86553L36.1314 5.15274V22.7679L25.7324 26.3641V8.74893L31.1169 6.88691C31.4992 6.75469 31.7019 6.3377 31.5697 5.95537C31.4375 5.57315 31.0209 5.37012 30.6382 5.50254L25 7.45225L14.1015 3.6834C13.711 3.54824 13.2772 3.61084 12.9408 3.85039C12.6045 4.09004 12.4036 4.47959 12.4036 4.89258V8.56777H11.1914C10.4859 8.56777 9.91211 9.1417 9.91211 9.84707V10.7426H5.95703C4.47617 10.7426 3.27148 11.9474 3.27148 13.4281L3.27158 16.0327C3.27158 16.4373 3.59951 16.7651 4.004 16.7651C4.4085 16.7651 4.73643 16.4372 4.73643 16.0327L4.73633 13.4282C4.73633 12.7551 5.28389 12.2075 5.95703 12.2075H9.91211V13.6724H6.93359C6.73936 13.6724 6.55303 13.7495 6.41572 13.8869C6.27832 14.0242 6.20117 14.2105 6.20117 14.4048L6.20215 37.8417C6.20215 38.2463 6.53008 38.5741 6.93457 38.5741L43.0664 38.5731C43.2606 38.5731 43.447 38.496 43.5844 38.3586C43.7217 38.2213 43.7988 38.035 43.7988 37.8407L43.7979 14.4038C43.7979 13.9992 43.4699 13.6714 43.0654 13.6714H40.0879V12.2065H44.042C44.7151 12.2065 45.2627 12.7541 45.2627 13.4272L45.2637 38.8173C45.2637 39.4904 44.7161 40.038 44.043 40.038L5.95801 40.039C5.28486 40.039 4.7373 39.4914 4.7373 38.8183L4.73662 19.1669C4.73662 18.7623 4.40869 18.4345 4.0042 18.4345C3.59971 18.4345 3.27178 18.7624 3.27178 19.1669L3.27246 38.8183C3.27246 39.2577 3.3792 39.6725 3.56719 40.039H2.09961C0.941895 40.039 0 40.9809 0 42.1386V44.287C0 45.4448 0.941895 46.3867 2.09961 46.3867H31.2188C31.6234 46.3867 31.9513 46.0589 31.9513 45.6543C31.9513 45.2497 31.6234 44.9219 31.2188 44.9219H2.09961C1.74961 44.9219 1.46484 44.6371 1.46484 44.2871V42.1387C1.46484 41.7887 1.74961 41.5039 2.09961 41.5039H20.0684V42.0185C20.0684 43.0271 20.889 43.8477 21.8976 43.8477H28.1025C29.1111 43.8477 29.9316 43.0272 29.9316 42.0185V41.5039H47.9004C48.2504 41.5039 48.5352 41.7887 48.5352 42.1387V44.2871C48.5352 44.6371 48.2504 44.9219 47.9004 44.9219H34.4165C34.0119 44.9219 33.6841 45.2497 33.6841 45.6543C33.6841 46.0589 34.0119 46.3867 34.4165 46.3867H47.9004C49.0581 46.3867 50 45.4448 50 44.2871V42.1387C50 40.9809 49.0581 40.039 47.9004 40.039ZM36.7353 24.109C37.2503 23.9308 37.5964 23.4448 37.5964 22.8999V10.0327H38.623V26.6599H29.359L36.7353 24.109ZM13.8685 5.15274L24.2676 8.74893V26.3641L13.8685 22.7679V5.15274ZM11.377 10.0327H12.4036V22.9C12.4036 23.4449 12.7497 23.9309 13.2649 24.1092L20.641 26.66H11.377V10.0327ZM42.333 15.1362L42.334 37.1083L7.66689 37.1093L7.66602 15.1372H9.91211V26.8454C9.91211 27.5508 10.4859 28.1247 11.1914 28.1247H38.8086C39.5141 28.1247 40.0879 27.5508 40.0879 26.8454V15.1362H42.333ZM28.4668 42.0185C28.4668 42.2193 28.3033 42.3828 28.1025 42.3828H21.8976C21.6967 42.3828 21.5332 42.2193 21.5332 42.0185V41.5038H28.4668V42.0185Z" fill="#4E00FF"/>
<path d="M34.6203 30.2136H15.3798C14.9753 30.2136 14.6473 30.5414 14.6473 30.946C14.6473 31.3506 14.9753 31.6784 15.3798 31.6784H34.6203C35.0249 31.6784 35.3527 31.3506 35.3527 30.946C35.3527 30.5414 35.0248 30.2136 34.6203 30.2136Z" fill="#4E00FF"/>
<path d="M27.8577 33.3205H15.3798C14.9753 33.3205 14.6473 33.6483 14.6473 34.0529C14.6473 34.4575 14.9753 34.7854 15.3798 34.7854H27.8577C28.2623 34.7854 28.5901 34.4575 28.5901 34.0529C28.5901 33.6483 28.2622 33.3205 27.8577 33.3205Z" fill="#4E00FF"/>
</g>
<defs>
<clipPath id="clip0">
<rect width="50" height="50" fill="white"/>
</clipPath>
</defs>
</svg>
