<svg width="52" height="52" viewBox="0 0 52 52" fill="none" xmlns="http://www.w3.org/2000/svg">
<path d="M20.5312 0.75H4.90625C2.61427 0.75 0.75 2.61427 0.75 4.90625V26.7812C0.75 29.0732 2.61427 30.9375 4.90625 30.9375H20.5312C22.8232 30.9375 24.6875 29.0732 24.6875 26.7812V4.90625C24.6875 2.61427 22.8232 0.75 20.5312 0.75ZM22.625 26.7812C22.625 27.9355 21.6856 28.875 20.5312 28.875H4.90625C3.75195 28.875 2.8125 27.9355 2.8125 26.7812V4.90625C2.8125 3.75203 3.75195 2.8125 4.90625 2.8125H20.5312C21.6856 2.8125 22.625 3.75203 22.625 4.90625V26.7812Z" fill="white" stroke="white" stroke-width="0.5"/>
<path d="M20.5312 33.5625H4.90625C2.61427 33.5625 0.75 35.4268 0.75 37.7188V47.0938C0.75 49.3857 2.61427 51.25 4.90625 51.25H20.5312C22.8232 51.25 24.6875 49.3857 24.6875 47.0938V37.7188C24.6875 35.4268 22.8232 33.5625 20.5312 33.5625ZM22.625 47.0938C22.625 48.248 21.6856 49.1875 20.5312 49.1875H4.90625C3.75195 49.1875 2.8125 48.248 2.8125 47.0938V37.7188C2.8125 36.5645 3.75195 35.625 4.90625 35.625H20.5312C21.6856 35.625 22.625 36.5645 22.625 37.7188V47.0938Z" fill="white" stroke="white" stroke-width="0.5"/>
<path d="M51.25 47.0938V25.2188C51.25 22.9268 49.3857 21.0625 47.0938 21.0625H31.4688C29.1768 21.0625 27.3125 22.9268 27.3125 25.2188V47.0938C27.3125 49.3857 29.1768 51.25 31.4688 51.25H47.0938C49.3857 51.25 51.25 49.3857 51.25 47.0938ZM49.1875 47.0938C49.1875 48.248 48.2481 49.1875 47.0938 49.1875H31.4688C30.3144 49.1875 29.375 48.248 29.375 47.0938V25.2188C29.375 24.0645 30.3144 23.125 31.4688 23.125H47.0938C48.2481 23.125 49.1875 24.0645 49.1875 25.2188V47.0938Z" fill="white" stroke="white" stroke-width="0.5"/>
<path d="M51.25 14.2812V4.90625C51.25 2.61427 49.3857 0.75 47.0938 0.75H31.4688C29.1768 0.75 27.3125 2.61427 27.3125 4.90625V14.2812C27.3125 16.5732 29.1768 18.4375 31.4688 18.4375H47.0938C49.3857 18.4375 51.25 16.5732 51.25 14.2812ZM49.1875 14.2812C49.1875 15.4355 48.2481 16.375 47.0938 16.375H31.4688C30.3144 16.375 29.375 15.4355 29.375 14.2812V4.90625C29.375 3.75203 30.3144 2.8125 31.4688 2.8125H47.0938C48.2481 2.8125 49.1875 3.75203 49.1875 4.90625V14.2812Z" fill="white" stroke="white" stroke-width="0.5"/>
</svg>
