<svg width="30" height="31" viewBox="0 0 30 31" fill="none" xmlns="http://www.w3.org/2000/svg">
<g clip-path="url(#clip0)">
<path d="M28.4615 5.16664H1.5385C0.692285 5.16664 0 5.882 0 6.75636V24.2436C0 25.1179 0.692285 25.8333 1.5385 25.8333H28.4616C29.3077 25.8333 30.0001 25.118 30.0001 24.2436V6.75636C30 5.882 29.3077 5.16664 28.4615 5.16664ZM27.8842 6.35887L15.885 15.659C15.6693 15.8286 15.3381 15.9348 14.9999 15.9332C14.6619 15.9348 14.3307 15.8286 14.1149 15.659L2.11576 6.35887H27.8842ZM21.4746 16.2726L28.0131 24.6188C28.0196 24.6272 28.0277 24.6336 28.0346 24.6411H1.96535C1.97227 24.6332 1.98035 24.6272 1.98691 24.6188L8.52539 16.2726C8.72572 16.0167 8.68775 15.6415 8.43961 15.434C8.19193 15.227 7.82883 15.2662 7.62844 15.5222L1.15383 23.7869V7.10408L13.423 16.6127C13.8842 16.9677 14.4453 17.1239 14.9999 17.1254C15.5537 17.1242 16.1153 16.968 16.5768 16.6127L28.8459 7.10408V23.7868L22.3715 15.5222C22.1711 15.2663 21.8077 15.2269 21.5603 15.434C21.3122 15.641 21.2742 16.0167 21.4746 16.2726Z" fill="#C0C0C0"/>
</g>
<defs>
<clipPath id="clip0">
<rect width="30" height="31" fill="white"/>
</clipPath>
</defs>
</svg>
