<svg width="40" height="39" viewBox="0 0 40 39" fill="none" xmlns="http://www.w3.org/2000/svg">
<path d="M7.6445 27.3368C7.76914 27.4332 7.91817 27.4808 8.06652 27.4808C8.26568 27.4808 8.4628 27.3956 8.59693 27.2318C8.82996 26.9465 8.78186 26.531 8.48922 26.3038C7.94662 25.8824 7.42096 25.4247 6.92781 24.9433L1.91637 20.0571L7.08429 15.0184C12.0524 10.1752 19.2796 8.52203 25.9425 10.7029C26.2968 10.8172 26.6809 10.6322 26.8008 10.2868C26.9193 9.94138 26.729 9.56623 26.374 9.44999C19.2193 7.10863 11.4603 8.88397 6.12644 14.0838L0 20.0571L5.96928 25.8772C6.49833 26.3936 7.06261 26.8844 7.6445 27.3368Z" fill="#C0C0C0"/>
<path d="M34.0307 14.0845C33.1176 13.1942 32.1164 12.391 31.0542 11.6962C30.744 11.4935 30.3219 11.5741 30.114 11.8765C29.9053 12.179 29.9886 12.5899 30.2989 12.7933C31.2879 13.4399 32.2214 14.1888 33.0722 15.0184L38.0836 19.9045L32.9157 24.9432C27.9131 29.8208 20.3749 31.47 13.71 29.1412C13.3577 29.0177 12.9696 29.1967 12.8436 29.5401C12.7176 29.8836 12.9005 30.2613 13.2527 30.3848C15.4082 31.1378 17.6491 31.503 19.875 31.503C25.0375 31.503 30.1201 29.5368 33.8736 25.8772L39.9993 19.9045L34.0307 14.0845Z" fill="#C0C0C0"/>
<path d="M20.6872 27.5904C19.2288 27.5904 17.8076 27.1954 16.5754 26.4478C16.259 26.2563 15.8411 26.35 15.6426 26.6598C15.4448 26.9696 15.5423 27.3764 15.86 27.5693C17.3063 28.4477 18.9761 28.9113 20.6872 28.9113C25.7298 28.9113 29.8322 24.9115 29.8322 19.995C29.8322 18.2217 29.2991 16.5084 28.2911 15.0402C28.0824 14.737 27.6611 14.6558 27.3515 14.8586C27.0406 15.062 26.9573 15.4721 27.1652 15.7746C28.0235 17.0249 28.4774 18.4839 28.4774 19.995C28.4774 24.1837 24.9826 27.5904 20.6872 27.5904Z" fill="#C0C0C0"/>
<path d="M20.6872 12.3996C22.0861 12.3996 23.4571 12.7649 24.6534 13.4564C24.9745 13.642 25.3904 13.5389 25.5815 13.2246C25.7718 12.9108 25.6661 12.506 25.3437 12.3197C23.9388 11.508 22.3286 11.0787 20.6865 11.0787C15.644 11.0787 11.5416 15.0785 11.5416 19.995C11.5416 21.3714 11.8546 22.6917 12.4723 23.9189C12.5902 24.1527 12.8307 24.2887 13.0813 24.2887C13.1809 24.2887 13.2832 24.2669 13.3787 24.2214C13.7147 24.0602 13.8536 23.6646 13.689 23.3377C13.1633 22.2928 12.8964 21.1687 12.8964 19.9957C12.8971 15.807 16.3918 12.3996 20.6872 12.3996Z" fill="#C0C0C0"/>
<path d="M37.0005 3.67683C36.7356 3.41859 36.3075 3.41859 36.0426 3.67683L4.54334 34.3886C4.27848 34.6469 4.27848 35.0643 4.54334 35.3225C4.67544 35.4513 4.84885 35.516 5.02227 35.516C5.19568 35.516 5.3691 35.4513 5.50119 35.3225L37.0005 4.61073C37.2653 4.35315 37.2653 3.93507 37.0005 3.67683Z" fill="#C0C0C0"/>
</svg>
