<svg width="49" height="51" viewBox="0 0 49 51" fill="none" xmlns="http://www.w3.org/2000/svg">
<g clip-path="url(#clip0)">
<path d="M49 25.9133C49 12.1047 38.0324 0.91333 24.5 0.91333C10.9676 0.91333 0 12.1047 0 25.9133C0 39.7219 10.9676 50.9133 24.5 50.9133C24.6436 50.9133 24.7871 50.9133 24.9307 50.9036V31.4504H19.667V25.1907H24.9307V20.5813C24.9307 15.2395 28.1271 12.3293 32.7975 12.3293C35.0369 12.3293 36.9605 12.4954 37.5156 12.5735V18.1594H34.3C31.7639 18.1594 31.2662 19.3899 31.2662 21.1965V25.1809H37.3434L36.549 31.4407H31.2662V49.9465C41.5064 46.9485 49 37.3293 49 25.9133Z" fill="black"/>
</g>
<defs>
<clipPath id="clip0">
<rect width="49" height="50" fill="white" transform="translate(0 0.91333)"/>
</clipPath>
</defs>
</svg>
