<svg width="96" height="91" viewBox="0 0 96 91" fill="none" xmlns="http://www.w3.org/2000/svg">
<path d="M95.5 45.5C95.5 70.3279 74.2591 90.5 48 90.5C21.7409 90.5 0.5 70.3279 0.5 45.5C0.5 20.672 21.7409 0.5 48 0.5C74.2591 0.5 95.5 20.672 95.5 45.5Z" stroke="#CDCDCD"/>
<g clip-path="url(#clip0)">
<path d="M57.6598 31.1398H62.6808V24.3028C61.8146 24.2096 58.8354 24 55.3658 24C48.1264 24 43.1673 27.56 43.1673 34.1032V40.125H35.1785V47.7682H43.1673V67H52.9619V47.77H60.6275L61.8444 40.1268H52.9596V34.8611C52.9619 32.652 53.7227 31.1398 57.6598 31.1398Z" fill="#4E00FF"/>
</g>
<defs>
<clipPath id="clip0">
<rect width="55" height="43" fill="white" transform="translate(21 24)"/>
</clipPath>
</defs>
</svg>
