<svg width="97" height="92" viewBox="0 0 97 92" fill="none" xmlns="http://www.w3.org/2000/svg">
<path d="M96 46C96 70.8279 74.7591 91 48.5 91C22.2409 91 1 70.8279 1 46C1 21.172 22.2409 1 48.5 1C74.7591 1 96 21.172 96 46Z" stroke="#CDCDCD"/>
<path d="M49.9972 22.9684C37.5744 22.9684 27.5 33.0821 27.5 45.5583C27.5 55.5371 33.9463 64.0027 42.89 66.9924C44.015 67.2005 44.4256 66.503 44.4256 65.904C44.4256 65.3668 44.4059 63.9465 44.3947 62.0621C38.1369 63.4262 36.815 59.033 36.815 59.033C35.7941 56.423 34.3175 55.7283 34.3175 55.7283C32.2728 54.3277 34.4694 54.3558 34.4694 54.3558C36.7278 54.5162 37.9147 56.6846 37.9147 56.6846C39.9228 60.1355 43.1825 59.1399 44.465 58.5605C44.6675 57.1008 45.2497 56.1052 45.8937 55.5399C40.8987 54.969 35.645 53.0312 35.645 44.3771C35.645 41.9105 36.5225 39.894 37.9625 38.3134C37.7291 37.7424 36.9584 35.4446 38.1819 32.3368C38.1819 32.3368 40.0719 31.7293 44.3694 34.6515C46.1638 34.1509 48.0875 33.9005 50.0028 33.8921C51.9125 33.9034 53.8391 34.1509 55.6362 34.6543C59.9309 31.7321 61.8181 32.3396 61.8181 32.3396C63.0444 35.4502 62.2737 37.7452 62.0431 38.3162C63.4859 39.8968 64.355 41.9134 64.355 44.3799C64.355 53.0565 59.0956 54.9662 54.0837 55.5258C54.8909 56.2233 55.6109 57.6015 55.6109 59.708C55.6109 62.7287 55.5828 65.1643 55.5828 65.904C55.5828 66.5087 55.9878 67.2118 57.1297 66.9896C66.0594 63.9971 72.5 55.5343 72.5 45.5583C72.5 33.0821 62.4256 22.9684 49.9972 22.9684Z" fill="black"/>
</svg>
