<svg width="96" height="91" viewBox="0 0 96 91" fill="none" xmlns="http://www.w3.org/2000/svg">
<path d="M95.5 45.5C95.5 70.328 74.2591 90.5 48 90.5C21.7409 90.5 0.5 70.328 0.5 45.5C0.5 20.672 21.7409 0.5 48 0.5C74.2591 0.5 95.5 20.672 95.5 45.5Z" stroke="#CDCDCD"/>
<path d="M51.3125 43.35V48.725H64.5875C63.2375 56.25 56.9375 61.625 49.0625 61.625C39.8375 61.625 32.1875 54.315 32.1875 45.5C32.1875 36.685 39.8375 29.375 49.0625 29.375C53.7875 29.375 57.8375 31.31 60.7625 34.32L64.8125 30.45C60.7625 26.58 55.3625 24 49.0625 24C36.6875 24 26.5625 33.675 26.5625 45.5C26.5625 57.325 36.6875 67 49.0625 67C61.4375 67 70.4375 57.325 70.4375 45.5V43.35H51.3125Z" fill="#4E00FF"/>
</svg>
