<svg width="50" height="50" viewBox="0 0 50 50" fill="none" xmlns="http://www.w3.org/2000/svg">
<g clip-path="url(#clip0)">
<path d="M41.2047 20.6822V43.9764H32.4094V33.9018C32.4094 33.0185 31.6935 32.3027 30.8103 32.3027H19.5629C18.6796 32.3027 17.9638 33.0186 17.9638 33.9018V43.9764H9.2218V20.6822H6.02356V45.5756C6.02356 46.4589 6.73948 47.1747 7.62268 47.1747H19.563C20.4463 47.1747 21.1621 46.4588 21.1621 45.5756V35.5011H29.2112V45.5757C29.2112 46.459 29.9271 47.1748 30.8103 47.1748H42.8039C43.6872 47.1748 44.4031 46.4589 44.4031 45.5757V20.6822H41.2047Z" fill="white"/>
<path d="M49.4936 24.952L26.3059 3.25693C25.6956 2.68496 24.7468 2.68124 24.1311 3.24677L0.517081 24.9419C-0.133212 25.5394 -0.175887 26.5507 0.421671 27.201C0.73671 27.5448 1.16737 27.7186 1.5997 27.7186C1.98612 27.7186 2.37421 27.5789 2.68124 27.2969L25.2036 6.60498L47.3086 27.2873C47.9547 27.8912 48.9653 27.8566 49.5687 27.2121C50.1717 26.5671 50.1386 25.5554 49.4936 24.952Z" fill="white"/>
</g>
<defs>
<clipPath id="clip0">
<rect width="50" height="50" fill="white"/>
</clipPath>
</defs>
</svg>
