<svg width="88" height="82" viewBox="0 0 88 82" fill="none" xmlns="http://www.w3.org/2000/svg">
<path d="M6.253 6.35743C-0.519399 12.8862 0.86668 19.8216 0.86668 40.8909C0.86668 58.3876 -2.42257 75.9276 14.7921 80.0568C20.1677 81.3399 67.7971 81.3399 73.1654 80.0502C80.3328 78.3338 86.1644 72.9382 86.9616 63.53C87.0729 62.2169 87.0729 19.5883 86.958 18.2485C86.1106 8.22708 79.4638 2.45151 70.7057 1.28173C68.6984 1.01178 68.2962 0.931792 57.9976 0.915129C21.4676 0.931792 13.4599 -0.577923 6.253 6.35743V6.35743Z" fill="url(#paint0_linear)"/>
<path d="M43.9501 11.3765C30.9116 11.3765 18.5303 10.3 13.8011 21.5645C11.8476 26.217 12.1313 32.2592 12.1313 40.9109C12.1313 48.5028 11.8692 55.6381 13.8011 60.2539C18.5195 71.5251 31.0014 70.4453 43.9429 70.4453C56.4284 70.4453 69.3017 71.6517 74.0883 60.2539C76.0454 55.5548 75.7581 49.6026 75.7581 40.9109C75.7581 29.3731 76.444 21.9245 70.4149 16.3322C64.3104 10.6666 56.0549 11.3765 43.9357 11.3765H43.9501ZM41.0989 16.6988C68.2963 16.6588 71.7579 13.8527 69.8475 52.8353C69.1688 66.6227 57.8576 65.1096 43.9537 65.1096C18.6021 65.1096 17.8731 64.4364 17.8731 40.8975C17.8731 17.0854 19.884 16.7121 41.0989 16.6921V16.6988ZM60.935 21.6012C58.8271 21.6012 57.1178 23.1876 57.1178 25.1439C57.1178 27.1002 58.8271 28.6865 60.935 28.6865C63.0428 28.6865 64.7521 27.1002 64.7521 25.1439C64.7521 23.1876 63.0428 21.6012 60.935 21.6012V21.6012ZM43.9501 25.7437C34.9262 25.7437 27.6116 32.5358 27.6116 40.9109C27.6116 49.286 34.9262 56.0747 43.9501 56.0747C52.974 56.0747 60.285 49.286 60.285 40.9109C60.285 32.5358 52.974 25.7437 43.9501 25.7437V25.7437ZM43.9501 31.0661C57.9725 31.0661 57.9904 50.7557 43.9501 50.7557C29.9313 50.7557 29.9098 31.0661 43.9501 31.0661Z" fill="white"/>
<defs>
<linearGradient id="paint0_linear" x1="6.41825" y1="75.7913" x2="81.3499" y2="5.91486" gradientUnits="userSpaceOnUse">
<stop stop-color="#FFDD55"/>
<stop offset="0.5" stop-color="#FF543E"/>
<stop offset="1" stop-color="#C837AB"/>
</linearGradient>
</defs>
</svg>
