<svg width="60" height="61" viewBox="0 0 60 61" fill="none" xmlns="http://www.w3.org/2000/svg">
<g clip-path="url(#clip0)">
<path d="M59.9413 18.5535C59.8008 15.3655 59.2852 13.1737 58.5467 11.2745C57.7849 9.25862 56.6128 7.45376 55.0771 5.95338C53.5767 4.42964 51.76 3.24563 49.7674 2.49567C47.8572 1.75715 45.6769 1.24161 42.4889 1.10105C39.2771 0.948585 38.2574 0.91333 30.1113 0.91333C21.9652 0.91333 20.9456 0.948585 17.7456 1.08915C14.5576 1.22971 12.3659 1.74571 10.4671 2.48377C8.45075 3.24563 6.6459 4.41774 5.14551 5.95338C3.62178 7.45376 2.43823 9.27052 1.68781 11.2631C0.949292 13.1737 0.433749 15.3536 0.293188 18.5416C0.140723 21.7534 0.105469 22.7731 0.105469 30.9192C0.105469 39.0653 0.140723 40.085 0.281284 43.2849C0.421845 46.4729 0.937845 48.6647 1.67636 50.5638C2.43823 52.5798 3.62178 54.3846 5.14551 55.885C6.6459 57.4087 8.46266 58.5928 10.4552 59.3427C12.3659 60.0812 14.5457 60.5968 17.7342 60.7373C20.9337 60.8784 21.9538 60.9131 30.0999 60.9131C38.246 60.9131 39.2656 60.8784 42.4656 60.7373C45.6536 60.5968 47.8453 60.0812 49.744 59.3427C53.7764 57.7837 56.9644 54.5957 58.5234 50.5638C59.2614 48.6532 59.7774 46.4729 59.918 43.2849C60.0586 40.085 60.0938 39.0653 60.0938 30.9192C60.0938 22.7731 60.0819 21.7534 59.9413 18.5535ZM54.5382 43.0505C54.4091 45.9807 53.9169 47.5631 53.5067 48.618C52.4985 51.2318 50.424 53.3064 47.8101 54.3146C46.7552 54.7248 45.1614 55.217 42.2426 55.3457C39.0779 55.4867 38.1288 55.5215 30.1232 55.5215C22.1177 55.5215 21.1566 55.4867 18.0034 55.3457C15.0731 55.217 13.4908 54.7248 12.4359 54.3146C11.1351 53.8338 9.95114 53.072 8.9901 52.0757C7.99382 51.1027 7.23195 49.9306 6.7512 48.6299C6.34097 47.575 5.84878 45.9807 5.72012 43.0624C5.5791 39.8977 5.5443 38.9481 5.5443 30.9425C5.5443 22.937 5.5791 21.9759 5.72012 18.8232C5.84878 15.8929 6.34097 14.3106 6.7512 13.2557C7.23195 11.9545 7.99382 10.7709 9.00201 9.80942C9.97449 8.81313 11.1466 8.05126 12.4478 7.57097C13.5027 7.16074 15.0969 6.66854 18.0153 6.53943C21.18 6.39887 22.1296 6.36361 30.1347 6.36361C38.1521 6.36361 39.1013 6.39887 42.2545 6.53943C45.1847 6.66854 46.7671 7.16074 47.822 7.57097C49.1227 8.05126 50.3067 8.81313 51.2678 9.80942C52.2641 10.7824 53.0259 11.9545 53.5067 13.2557C53.9169 14.3106 54.4091 15.9044 54.5382 18.8232C54.6788 21.9879 54.714 22.937 54.714 30.9425C54.714 38.9481 54.6788 39.8858 54.5382 43.0505Z" fill="black"/>
<path d="M30.1114 15.506C21.6022 15.506 14.6982 22.4096 14.6982 30.9192C14.6982 39.4289 21.6022 46.3324 30.1114 46.3324C38.6211 46.3324 45.5246 39.4289 45.5246 30.9192C45.5246 22.4096 38.6211 15.506 30.1114 15.506ZM30.1114 40.9173C24.5911 40.9173 20.1133 36.44 20.1133 30.9192C20.1133 25.3984 24.5911 20.9211 30.1114 20.9211C35.6322 20.9211 40.1095 25.3984 40.1095 30.9192C40.1095 36.44 35.6322 40.9173 30.1114 40.9173Z" fill="black"/>
<path d="M49.7331 14.8966C49.7331 16.8837 48.122 18.4949 46.1344 18.4949C44.1473 18.4949 42.5361 16.8837 42.5361 14.8966C42.5361 12.9091 44.1473 11.2983 46.1344 11.2983C48.122 11.2983 49.7331 12.9091 49.7331 14.8966Z" fill="black"/>
</g>
<defs>
<clipPath id="clip0">
<rect width="60" height="60" fill="white" transform="translate(0 0.91333)"/>
</clipPath>
</defs>
</svg>
