<svg width="12" height="20" viewBox="0 0 12 20" fill="none" xmlns="http://www.w3.org/2000/svg">
<path d="M3.97868 10.0042L11.5182 2.52195C11.7258 2.31642 11.84 2.04163 11.84 1.74862C11.84 1.45545 11.7258 1.18081 11.5182 0.974959L10.8575 0.319675C10.6503 0.113496 10.3732 0 10.0779 0C9.78267 0 9.50592 0.113496 9.29848 0.319675L0.321483 9.22797C0.113227 9.43447 -0.000814874 9.71041 4.38983e-06 10.0037C-0.000814874 10.2984 0.113063 10.574 0.321483 10.7807L9.29013 19.6803C9.49756 19.8865 9.77431 20 10.0697 20C10.365 20 10.6417 19.8865 10.8493 19.6803L11.5098 19.025C11.9396 18.5985 11.9396 17.9042 11.5098 17.4779L3.97868 10.0042Z" fill="#4E00FF"/>
</svg>
