<svg width="169" height="99" viewBox="0 0 169 99" fill="none" xmlns="http://www.w3.org/2000/svg">
<path d="M28.5 18.0254C19.9673 18.0254 13.0254 24.9673 13.0254 33.5C13.0254 42.0327 19.9673 48.9746 28.5 48.9746C37.0327 48.9746 43.9746 42.0327 43.9746 33.5C43.9746 24.9673 37.0327 18.0254 28.5 18.0254ZM28.5 45.6348C21.8088 45.6348 16.3652 40.1912 16.3652 33.5C16.3652 26.8088 21.8088 21.3652 28.5 21.3652C35.1912 21.3652 40.6348 26.8088 40.6348 33.5C40.6348 40.1912 35.1912 45.6348 28.5 45.6348Z" fill="#FFE600"/>
<path d="M28.5 14.0892C29.4222 14.0892 30.1699 13.3415 30.1699 12.4192V6.66992C30.1699 5.74768 29.4222 5 28.5 5C27.5778 5 26.8301 5.74768 26.8301 6.66992V12.4192C26.8301 13.3415 27.5778 14.0892 28.5 14.0892Z" fill="#FFE600"/>
<path d="M55.3301 31.8301H49.5808C48.6585 31.8301 47.9108 32.5778 47.9108 33.5C47.9108 34.4222 48.6585 35.1699 49.5808 35.1699H55.3301C56.2523 35.1699 57 34.4222 57 33.5C57 32.5778 56.2523 31.8301 55.3301 31.8301Z" fill="#FFE600"/>
<path d="M28.5 52.9108C27.5778 52.9108 26.8301 53.6585 26.8301 54.5808V60.3301C26.8301 61.2523 27.5778 62 28.5 62C29.4222 62 30.1699 61.2523 30.1699 60.3301V54.5808C30.1699 53.6585 29.4222 52.9108 28.5 52.9108Z" fill="#FFE600"/>
<path d="M9.08916 33.5C9.08916 32.5778 8.34148 31.8301 7.41924 31.8301H1.66992C0.74768 31.8301 0 32.5778 0 33.5C0 34.4222 0.74768 35.1699 1.66992 35.1699H7.41924C8.34148 35.1699 9.08916 34.4222 9.08916 33.5Z" fill="#FFE600"/>
<path d="M43.4064 20.2635C43.8338 20.2635 44.2612 20.1006 44.5871 19.7744L48.6525 15.709C49.3047 15.0568 49.3047 13.9996 48.6525 13.3474C48.0004 12.6952 46.9431 12.6952 46.2909 13.3474L42.2255 17.4128C41.5734 18.0649 41.5734 19.1222 42.2255 19.7744C42.5517 20.1006 42.9791 20.2635 43.4064 20.2635Z" fill="#FFE600"/>
<path d="M44.5871 47.2256C43.9351 46.5736 42.8777 46.5736 42.2255 47.2256C41.5734 47.8778 41.5734 48.9351 42.2255 49.5872L46.291 53.6526C46.6171 53.9787 47.0445 54.1417 47.4717 54.1417C47.899 54.1417 48.3265 53.9786 48.6525 53.6525C49.3047 53.0003 49.3047 51.9431 48.6525 51.2909L44.5871 47.2256Z" fill="#FFE600"/>
<path d="M12.4127 47.2255L8.34738 51.2909C7.69522 51.9431 7.69522 53.0004 8.34738 53.6525C8.67346 53.9786 9.10085 54.1417 9.52813 54.1417C9.9554 54.1417 10.3829 53.9787 10.7089 53.6525L14.7742 49.5871C15.4264 48.935 15.4264 47.8777 14.7742 47.2255C14.1223 46.5734 13.0648 46.5734 12.4127 47.2255Z" fill="#FFE600"/>
<path d="M12.4129 19.7744C12.7389 20.1004 13.1663 20.2635 13.5936 20.2635C14.0209 20.2635 14.4484 20.1006 14.7743 19.7744C15.4265 19.1222 15.4265 18.0649 14.7743 17.4128L10.709 13.3474C10.0569 12.6952 8.99954 12.6952 8.34738 13.3474C7.69522 13.9996 7.69522 15.0568 8.34738 15.709L12.4129 19.7744Z" fill="#FFE600"/>
<path d="M35.9492 15.5754C36.1588 15.6625 36.3758 15.7037 36.5894 15.7037C37.2439 15.7037 37.8652 15.3163 38.1321 14.6741L40.3384 9.36508C40.6923 8.51342 40.2889 7.53607 39.4372 7.18215C38.5857 6.82835 37.6083 7.23158 37.2543 8.08336L35.048 13.3924C34.6942 14.2441 35.0976 15.2215 35.9492 15.5754Z" fill="#FFE600"/>
<path d="M53.9165 42.2544L48.6075 40.0481C47.7558 39.6942 46.7785 40.0975 46.4246 40.9493C46.0707 41.801 46.4741 42.7783 47.3258 43.1322L52.6348 45.3385C52.8444 45.4256 53.0614 45.4668 53.2751 45.4668C53.9296 45.4668 54.5509 45.0795 54.8177 44.4372C55.1716 43.5857 54.7682 42.6083 53.9165 42.2544Z" fill="#FFE600"/>
<path d="M21.0508 51.4246C20.199 51.0708 19.2218 51.474 18.8679 52.3258L16.6616 57.6348C16.3077 58.4865 16.7111 59.4638 17.5628 59.8177C17.7724 59.9048 17.9894 59.946 18.203 59.946C18.8575 59.946 19.4789 59.5587 19.7457 58.9164L21.952 53.6074C22.3058 52.7559 21.9024 51.7785 21.0508 51.4246Z" fill="#FFE600"/>
<path d="M3.08345 24.7456L8.39246 26.9519C8.60209 27.0389 8.81907 27.0801 9.03271 27.0801C9.68721 27.0801 10.3085 26.6928 10.5754 26.0506C10.9293 25.1989 10.5258 24.2216 9.67418 23.8677L4.36517 21.6615C3.51351 21.3078 2.53616 21.711 2.18225 22.5627C1.82833 23.4143 2.23179 24.3917 3.08345 24.7456Z" fill="#FFE600"/>
<path d="M46.442 26.0928C46.7079 26.7368 47.3303 27.1259 47.9862 27.1259C48.1985 27.1259 48.4144 27.0852 48.6228 26.9991L53.9369 24.8052C54.7894 24.4533 55.1953 23.4769 54.8434 22.6244C54.4913 21.7718 53.5148 21.3661 52.6625 21.718L47.3484 23.912C46.4959 24.264 46.0901 25.2404 46.442 26.0928Z" fill="#FFE600"/>
<path d="M38.088 52.3483C37.7361 51.4957 36.7595 51.0902 35.9072 51.442C35.0547 51.7939 34.6489 52.7702 35.0008 53.6228L37.1947 58.937C37.4607 59.5811 38.083 59.9702 38.739 59.9702C38.9513 59.9702 39.1671 59.9294 39.3755 59.8434C40.2281 59.4914 40.6339 58.515 40.282 57.6625L38.088 52.3483Z" fill="#FFE600"/>
<path d="M10.558 40.9072C10.2061 40.0548 9.22999 39.6488 8.37721 40.0009L3.06296 42.1948C2.21052 42.5468 1.80462 43.5231 2.15653 44.3757C2.42249 45.0197 3.04471 45.4088 3.70076 45.4088C3.91295 45.4088 4.12893 45.368 4.33734 45.282L9.65158 43.088C10.5041 42.736 10.9099 41.7597 10.558 40.9072Z" fill="#FFE600"/>
<path d="M18.912 14.6517C19.1779 15.2957 19.8003 15.6848 20.4562 15.6848C20.6685 15.6848 20.8844 15.6441 21.0928 15.558C21.9453 15.2061 22.3511 14.2298 21.9992 13.3772L19.8053 8.06297C19.4532 7.21042 18.4767 6.80474 17.6245 7.15665C16.7719 7.50855 16.3661 8.48501 16.718 9.33745L18.912 14.6517Z" fill="#FFE600"/>
<path d="M53.2038 41.1586C51.9201 41.1586 50.7647 40.8943 49.7378 40.3657C48.7108 39.8371 47.9029 39.082 47.3139 38.1004C46.74 37.1036 46.4531 35.9408 46.4531 34.6118C46.4531 33.2828 46.74 32.1274 47.3139 31.1458C47.9029 30.1491 48.7108 29.3864 49.7378 28.8578C50.7647 28.3292 51.9201 28.065 53.2038 28.065C54.4874 28.065 55.6428 28.3292 56.6697 28.8578C57.6967 29.3864 58.4971 30.1491 59.071 31.1458C59.66 32.1274 59.9544 33.2828 59.9544 34.6118C59.9544 35.9408 59.66 37.1036 59.071 38.1004C58.4971 39.082 57.6967 39.8371 56.6697 40.3657C55.6428 40.8943 54.4874 41.1586 53.2038 41.1586ZM53.2038 36.8091C53.6719 36.8091 54.0646 36.6279 54.3817 36.2655C54.6989 35.8879 54.8574 35.3367 54.8574 34.6118C54.8574 33.8869 54.6989 33.3432 54.3817 32.9807C54.0646 32.6032 53.6719 32.4144 53.2038 32.4144C52.7356 32.4144 52.3429 32.6032 52.0258 32.9807C51.7086 33.3432 51.5501 33.8869 51.5501 34.6118C51.5501 35.3367 51.7011 35.8879 52.0031 36.2655C52.3203 36.6279 52.7205 36.8091 53.2038 36.8091ZM60.8547 34.6118C60.8547 33.2677 61.0813 32.1048 61.5343 31.1232C62.0025 30.1264 62.6368 29.3713 63.4372 28.8578C64.2376 28.3292 65.1362 28.065 66.133 28.065C66.9636 28.065 67.6734 28.2386 68.2624 28.586C68.8665 28.9182 69.3271 29.3788 69.6442 29.9678V24.2365H74.6733V41H69.6442V39.2557C69.3271 39.8447 68.8665 40.3128 68.2624 40.6602C67.6734 40.9924 66.9636 41.1586 66.133 41.1586C65.1362 41.1586 64.2376 40.9018 63.4372 40.3884C62.6368 39.8598 62.0025 39.1047 61.5343 38.123C61.0813 37.1263 60.8547 35.9559 60.8547 34.6118ZM69.6669 34.6118C69.6669 33.9322 69.4932 33.4036 69.1459 33.026C68.7985 32.6485 68.353 32.4597 67.8093 32.4597C67.2656 32.4597 66.8201 32.6485 66.4728 33.026C66.1254 33.4036 65.9517 33.9322 65.9517 34.6118C65.9517 35.2914 66.1254 35.8199 66.4728 36.1975C66.8201 36.5751 67.2656 36.7638 67.8093 36.7638C68.353 36.7638 68.7985 36.5751 69.1459 36.1975C69.4932 35.8199 69.6669 35.2914 69.6669 34.6118ZM89.3002 34.4985C89.3002 34.8458 89.2776 35.1781 89.2323 35.4952H81.145C81.2205 36.5977 81.6812 37.1489 82.5269 37.1489C83.0706 37.1489 83.4632 36.8997 83.7049 36.4014H89.0284C88.8472 37.3075 88.4621 38.123 87.8731 38.8479C87.2992 39.5577 86.5667 40.1241 85.6757 40.5469C84.7998 40.9547 83.8332 41.1586 82.7761 41.1586C81.5075 41.1586 80.3748 40.8943 79.3781 40.3657C78.3964 39.8371 77.6262 39.082 77.0674 38.1004C76.5238 37.1036 76.2519 35.9408 76.2519 34.6118C76.2519 33.2828 76.5238 32.1274 77.0674 31.1458C77.6262 30.1491 78.3964 29.3864 79.3781 28.8578C80.3748 28.3292 81.5075 28.065 82.7761 28.065C84.0447 28.065 85.1698 28.3292 86.1514 28.8578C87.1482 29.3713 87.9184 30.1113 88.4621 31.0778C89.0208 32.0444 89.3002 33.1846 89.3002 34.4985ZM84.2032 33.2979C84.2032 32.875 84.0673 32.5579 83.7955 32.3464C83.5236 32.1199 83.1838 32.0066 82.7761 32.0066C81.885 32.0066 81.364 32.437 81.213 33.2979H84.2032ZM107.949 28.1329C109.58 28.1329 110.841 28.6237 111.732 29.6054C112.638 30.587 113.091 31.916 113.091 33.5924V41H108.085V34.2267C108.085 33.683 107.918 33.2601 107.586 32.9581C107.269 32.6409 106.839 32.4824 106.295 32.4824C105.736 32.4824 105.298 32.6409 104.981 32.9581C104.664 33.2601 104.505 33.683 104.505 34.2267V41H99.499V34.2267C99.499 33.683 99.3329 33.2601 99.0006 32.9581C98.6835 32.6409 98.2531 32.4824 97.7094 32.4824C97.1506 32.4824 96.7126 32.6409 96.3955 32.9581C96.0783 33.2601 95.9198 33.683 95.9198 34.2267V41H90.8907V28.2235H95.9198V29.9452C96.2822 29.4015 96.773 28.9635 97.3922 28.6313C98.0265 28.299 98.7665 28.1329 99.6123 28.1329C100.534 28.1329 101.349 28.3368 102.059 28.7446C102.769 29.1372 103.335 29.696 103.758 30.4209C104.226 29.7564 104.823 29.2127 105.547 28.7899C106.272 28.3519 107.073 28.1329 107.949 28.1329ZM121.341 41.1586C120.057 41.1586 118.902 40.8943 117.875 40.3657C116.848 39.8371 116.04 39.082 115.451 38.1004C114.877 37.1036 114.59 35.9408 114.59 34.6118C114.59 33.2828 114.877 32.1274 115.451 31.1458C116.04 30.1491 116.848 29.3864 117.875 28.8578C118.902 28.3292 120.057 28.065 121.341 28.065C122.624 28.065 123.78 28.3292 124.807 28.8578C125.834 29.3864 126.634 30.1491 127.208 31.1458C127.797 32.1274 128.091 33.2828 128.091 34.6118C128.091 35.9408 127.797 37.1036 127.208 38.1004C126.634 39.082 125.834 39.8371 124.807 40.3657C123.78 40.8943 122.624 41.1586 121.341 41.1586ZM121.341 36.8091C121.809 36.8091 122.202 36.6279 122.519 36.2655C122.836 35.8879 122.994 35.3367 122.994 34.6118C122.994 33.8869 122.836 33.3432 122.519 32.9807C122.202 32.6032 121.809 32.4144 121.341 32.4144C120.873 32.4144 120.48 32.6032 120.163 32.9807C119.846 33.3432 119.687 33.8869 119.687 34.6118C119.687 35.3367 119.838 35.8879 120.14 36.2655C120.457 36.6279 120.857 36.8091 121.341 36.8091ZM135.357 41.1586C134.149 41.1586 133.077 40.9622 132.14 40.5696C131.219 40.1769 130.487 39.6332 129.943 38.9385C129.399 38.2438 129.09 37.4585 129.014 36.5826H133.839C133.9 36.9602 134.058 37.2395 134.315 37.4208C134.587 37.602 134.927 37.6926 135.335 37.6926C135.591 37.6926 135.795 37.6398 135.946 37.534C136.097 37.4132 136.173 37.2698 136.173 37.1036C136.173 36.8167 136.014 36.6128 135.697 36.492C135.38 36.3712 134.844 36.2353 134.089 36.0842C133.167 35.903 132.405 35.7067 131.801 35.4952C131.212 35.2838 130.691 34.9214 130.238 34.4079C129.8 33.8944 129.581 33.1846 129.581 32.2785C129.581 31.4932 129.785 30.7834 130.192 30.1491C130.615 29.4997 131.234 28.9937 132.05 28.6313C132.865 28.2537 133.855 28.065 135.017 28.065C136.739 28.065 138.083 28.4878 139.05 29.3335C140.031 30.1793 140.62 31.2817 140.817 32.6409H136.354C136.278 32.2936 136.12 32.0293 135.878 31.8481C135.637 31.6517 135.312 31.5536 134.904 31.5536C134.647 31.5536 134.451 31.6064 134.315 31.7121C134.179 31.8028 134.111 31.9462 134.111 32.1426C134.111 32.3993 134.27 32.5956 134.587 32.7315C134.904 32.8524 135.41 32.9807 136.105 33.1166C137.026 33.2979 137.804 33.5018 138.438 33.7283C139.072 33.9548 139.624 34.3475 140.092 34.9063C140.56 35.4499 140.794 36.205 140.794 37.1716C140.794 37.9267 140.575 38.6063 140.137 39.2104C139.699 39.8145 139.065 40.2902 138.234 40.6375C137.419 40.9849 136.46 41.1586 135.357 41.1586Z" fill="white"/>
<path d="M43.1804 28.1671C43.1804 30.1683 42.7174 31.9902 41.7915 33.633C40.8656 35.2458 39.4917 36.5302 37.6697 37.4859C35.8777 38.4417 33.6973 38.9196 31.1287 38.9196H27.1861V49H17.2401V17.2803H31.1287C35.0115 17.2803 37.9833 18.2659 40.0442 20.2372C42.135 22.2085 43.1804 24.8518 43.1804 28.1671ZM30.0086 31.0793C32.0695 31.0793 33.0999 30.1086 33.0999 28.1671C33.0999 26.2257 32.0695 25.255 30.0086 25.255H27.1861V31.0793H30.0086Z" fill="white"/>
</svg>
