<svg width="505" height="500" viewBox="0 0 505 500" fill="none" xmlns="http://www.w3.org/2000/svg">
<path fill-rule="evenodd" clip-rule="evenodd" d="M380 466C380 466 503 402 505 248.5C497 41.5 309.5 6.5 309.5 6.5C444.799 131.827 473.5 299 380 466ZM365 475.5C365 475.5 321 500 250 500C111.929 500 0 388.071 0 250C0 111.929 111.929 0 250 0C265.94 0 296.642 4.34325 296.642 4.34325C446 139 456 323 365 475.5Z" fill="#4E00FF"/>
<g filter="url(#filter0_d)">
<path d="M297.607 169.121V165.865H317.143V169.121H309.003V200.867H305.747V169.121H297.607Z" fill="white"/>
<path fill-rule="evenodd" clip-rule="evenodd" d="M117.712 229.357V208.193H126.666C131.55 209.414 134.399 216.333 126.666 219.589H120.561V229.357H117.712ZM120.561 210.635V217.147H125.038V210.635H120.561Z" fill="white"/>
<path d="M125.038 217.147V210.635C125.038 210.635 128.701 210.635 128.701 213.891C128.701 217.147 125.038 217.147 125.038 217.147Z" fill="#00B0B0"/>
<path fill-rule="evenodd" clip-rule="evenodd" d="M201.961 165.051L190.565 228.543H197.891L205.624 184.18L232.894 228.543L259.349 184.18L265.861 228.543H273.187L267.833 197.611L271.966 189.064H286.618L291.909 200.46H295.572L279.292 165.458L266.635 190.692L262.198 165.051L232.894 216.74L201.961 165.051ZM279.292 173.598L273.594 184.994H284.583L279.292 173.598Z" fill="white"/>
<path d="M232.488 213.077L204.29 163.626H260.685L232.488 213.077Z" fill="#00B0B0"/>
<path d="M75.3853 166.679V201.681H92.0723V197.611H79.0483V166.679H75.3853Z" fill="white"/>
<path d="M97.3633 166.679V201.681H100.619V166.679H97.3633Z" fill="white"/>
<path d="M107.131 201.681L112.422 166.679L126.667 195.169L140.912 166.679L146.203 201.681H142.947L139.284 177.668L126.667 201.681L114.05 177.668L110.387 201.681H107.131Z" fill="white"/>
<path d="M149.866 177.261C151.553 171.415 152.835 168.436 158.006 166.272H189.345V171.563H179.984C178.573 179.423 178.634 184.199 178.763 192.727C182.79 199.76 185.124 198.642 189.345 192.727C188.472 197.667 188.963 200.732 181.612 203.716C177.399 202.85 175.681 201.338 174.286 195.983C173.644 185.936 173.511 180.407 175.507 171.563H165.332C165.056 180.669 164.449 186.061 162.89 195.983C162.341 200.913 161.149 202.757 156.785 203.716C154.486 201.722 154.377 200.298 154.75 197.611C157.433 193.669 158.93 191.454 160.448 186.622C162.05 176.221 162.286 172.925 161.262 171.563H156.785C151.158 178.231 150.303 178.474 149.866 177.261Z" fill="white"/>
<path fill-rule="evenodd" clip-rule="evenodd" d="M50.1505 202.495C60.4904 202.495 68.8725 194.113 68.8725 183.773C68.8725 173.433 60.4904 165.051 50.1505 165.051C39.8106 165.051 31.4285 173.433 31.4285 183.773C31.4285 194.113 39.8106 202.495 50.1505 202.495ZM50.1505 199.239C58.6922 199.239 65.6165 192.315 65.6165 183.773C65.6165 175.231 58.6922 168.307 50.1505 168.307C41.6089 168.307 34.6845 175.231 34.6845 183.773C34.6845 192.315 41.6089 199.239 50.1505 199.239Z" fill="white"/>
<circle cx="50.152" cy="183.773" r="13.024" fill="#FFD600"/>
<path fill-rule="evenodd" clip-rule="evenodd" d="M284.992 229.357C290.611 229.357 295.167 224.802 295.167 219.182C295.167 213.563 290.611 209.007 284.992 209.007C279.372 209.007 274.817 213.563 274.817 219.182C274.817 224.802 279.372 229.357 284.992 229.357ZM284.992 227.588C289.634 227.588 293.397 223.824 293.397 219.182C293.397 214.54 289.634 210.777 284.992 210.777C280.349 210.777 276.586 214.54 276.586 219.182C276.586 223.824 280.349 227.588 284.992 227.588Z" fill="white"/>
<path fill-rule="evenodd" clip-rule="evenodd" d="M144.167 229.357C149.786 229.357 154.342 224.802 154.342 219.182C154.342 213.563 149.786 209.007 144.167 209.007C138.547 209.007 133.992 213.563 133.992 219.182C133.992 224.802 138.547 229.357 144.167 229.357ZM144.167 227.588C148.809 227.588 152.572 223.824 152.572 219.182C152.572 214.54 148.809 210.777 144.167 210.777C139.525 210.777 135.762 214.54 135.762 219.182C135.762 223.824 139.525 227.588 144.167 227.588Z" fill="white"/>
<path d="M144.574 217.961V226.101C144.574 226.101 137.089 225.287 137.089 219.182C137.089 211.445 144.574 212.263 144.574 212.263V217.961Z" fill="#FFD600"/>
<path d="M307.376 212.263C306.005 210.305 305.178 209.28 302.492 209.007C299.643 208.6 297.608 210.228 297.608 213.484C298.422 218.775 305.748 219.589 305.748 223.659C305.252 225.561 304.45 226.304 302.085 226.915C300.171 226.224 299.266 225.537 298.015 223.659L296.794 225.287C298.579 227.587 299.695 228.456 302.085 228.543C306.499 228.331 307.423 226.917 308.19 223.659C307.783 217.554 300.235 217.702 300.05 213.891C299.643 211.042 302.492 211.449 302.492 211.449C304.278 211.462 304.992 211.994 305.748 213.891L307.376 212.263Z" fill="white"/>
<path d="M177.948 228.543V209.007H189.345V211.449H180.39V217.147H189.345V219.589H180.39V226.101H189.345V228.543H177.948Z" fill="white"/>
<path fill-rule="evenodd" clip-rule="evenodd" d="M159.227 209.821V228.543H167.367C171.16 226.605 174.693 226.508 175.1 218.368C174.286 213.077 172.537 212.058 168.181 209.821H159.227ZM168.181 212.263C168.181 212.263 172.743 213.241 172.658 218.368C172.581 223.001 171 223.953 168.577 225.409C168.319 225.565 168.051 225.726 167.774 225.898L161.669 226.101L161.492 212.263H168.181Z" fill="white"/>
</g>
<path d="M170.917 253.727C170.917 246.594 166.734 242.146 160.965 242.146C155.197 242.146 151.013 246.594 151.013 253.727C151.013 260.861 155.197 265.308 160.965 265.308C166.734 265.308 170.917 260.861 170.917 253.727ZM168.275 253.727C168.275 259.584 165.06 262.754 160.965 262.754C156.87 262.754 153.656 259.584 153.656 253.727C153.656 247.871 156.87 244.7 160.965 244.7C165.06 244.7 168.275 247.871 168.275 253.727ZM175.507 265H188.718V262.578H178.238V242.455H175.507V265ZM195.675 242.455H192.945V265H195.675V242.455ZM201.149 242.455V265H203.703V247.871H203.923L210.969 265H213.435L220.48 247.871H220.7V265H223.254V242.455H219.996L212.334 261.169H212.07L204.408 242.455H201.149ZM228.728 265H231.458V256.766H236.39C241.641 256.766 244.008 253.573 244.008 249.588C244.008 245.603 241.641 242.455 236.346 242.455H228.728V265ZM231.458 254.344V244.876H236.258C239.924 244.876 241.322 246.88 241.322 249.588C241.322 252.296 239.924 254.344 236.302 254.344H231.458ZM251.136 242.455H248.406V265H251.136V242.455ZM248.582 240.165H250.872L254.306 235.057H251.268L248.582 240.165ZM257.535 265L259.802 258.615H268.918L271.185 265H274.047L265.769 242.455H262.951L254.672 265H257.535ZM260.661 256.193L264.272 246.021H264.448L268.059 256.193H260.661ZM284.517 265C291.386 265 295.261 260.729 295.261 253.683C295.261 246.682 291.386 242.455 284.825 242.455H277.559V265H284.517ZM280.289 262.578V244.876H284.649C289.933 244.876 292.619 248.223 292.619 253.683C292.619 259.188 289.933 262.578 284.34 262.578H280.289ZM299.706 265L301.973 258.615H311.088L313.356 265H316.218L307.94 242.455H305.122L296.843 265H299.706ZM302.832 256.193L306.443 246.021H306.619L310.23 256.193H302.832ZM115.142 303H117.872V294.766H122.804C128.055 294.766 130.422 291.573 130.422 287.588C130.422 283.603 128.055 280.455 122.76 280.455H115.142V303ZM117.872 292.344V282.876H122.672C126.338 282.876 127.736 284.88 127.736 287.588C127.736 290.296 126.338 292.344 122.716 292.344H117.872ZM153.843 291.727C153.843 284.594 149.659 280.146 143.891 280.146C138.123 280.146 133.939 284.594 133.939 291.727C133.939 298.861 138.123 303.308 143.891 303.308C149.659 303.308 153.843 298.861 153.843 291.727ZM151.201 291.727C151.201 297.584 147.986 300.754 143.891 300.754C139.796 300.754 136.581 297.584 136.581 291.727C136.581 285.871 139.796 282.7 143.891 282.7C147.986 282.7 151.201 285.871 151.201 291.727ZM165.391 303C172.26 303 176.135 298.729 176.135 291.683C176.135 284.682 172.26 280.455 165.699 280.455H158.433V303H165.391ZM161.163 300.578V282.876H165.523C170.807 282.876 173.493 286.223 173.493 291.683C173.493 297.188 170.807 300.578 165.214 300.578H161.163ZM180.714 303H194.497V300.578H183.445V292.916H193.616V290.494H183.445V282.876H194.321V280.455H180.714V303ZM199.242 280.455V303H201.796V285.871H202.016L209.061 303H211.527L218.573 285.871H218.793V303H221.347V280.455H218.088L210.426 299.169H210.162L202.5 280.455H199.242ZM245.844 291.727C245.844 284.594 241.66 280.146 235.892 280.146C230.123 280.146 225.94 284.594 225.94 291.727C225.94 298.861 230.123 303.308 235.892 303.308C241.66 303.308 245.844 298.861 245.844 291.727ZM243.202 291.727C243.202 297.584 239.987 300.754 235.892 300.754C231.797 300.754 228.582 297.584 228.582 291.727C228.582 285.871 231.797 282.7 235.892 282.7C239.987 282.7 243.202 285.871 243.202 291.727ZM262.764 286.091H265.406C265.285 282.689 262.147 280.146 257.788 280.146C253.473 280.146 250.082 282.656 250.082 286.443C250.082 289.482 252.284 291.287 255.806 292.3L258.581 293.092C260.958 293.753 263.072 294.589 263.072 296.835C263.072 299.301 260.694 300.93 257.568 300.93C254.882 300.93 252.504 299.741 252.284 297.188H249.465C249.73 300.886 252.724 303.396 257.568 303.396C262.764 303.396 265.714 300.534 265.714 296.879C265.714 292.652 261.707 291.287 259.373 290.67L257.083 290.054C255.41 289.614 252.724 288.733 252.724 286.311C252.724 284.153 254.706 282.568 257.7 282.568C260.43 282.568 262.5 283.867 262.764 286.091ZM285.879 303C292.748 303 296.623 298.729 296.623 291.683C296.623 284.682 292.748 280.455 286.187 280.455H278.922V303H285.879ZM281.652 300.578V282.876H286.011C291.295 282.876 293.981 286.223 293.981 291.683C293.981 297.188 291.295 300.578 285.703 300.578H281.652ZM301.203 303H314.985V300.578H303.933V292.916H314.105V290.494H303.933V282.876H314.809V280.455H301.203V303ZM117.927 318.455V341H120.481V323.871H120.702L127.747 341H130.213L137.258 323.871H137.479V341H140.032V318.455H136.774L129.112 337.169H128.848L121.186 318.455H117.927ZM146.431 341L148.699 334.615H157.814L160.082 341H162.944L154.666 318.455H151.847L143.569 341H146.431ZM149.558 332.193L153.168 322.021H153.345L156.955 332.193H149.558ZM162.589 320.876H169.678V341H172.409V320.876H179.498V318.455H162.589V320.876ZM183.712 341H197.494V338.578H186.442V330.916H196.614V328.494H186.442V320.876H197.318V318.455H183.712V341ZM202.239 318.455V341H204.793V323.871H205.013L212.059 341H214.524L221.57 323.871H221.79V341H224.344V318.455H221.085L213.424 337.169H213.159L205.497 318.455H202.239ZM230.743 341L233.01 334.615H242.126L244.393 341H247.256L238.977 318.455H236.159L227.881 341H230.743ZM233.869 332.193L237.48 322.021H237.656L241.267 332.193H233.869ZM236.379 316.165H238.669L242.104 311.057H239.065L236.379 316.165ZM246.9 320.876H253.99V341H256.72V320.876H263.81V318.455H246.9V320.876ZM270.753 318.455H268.023V341H270.753V318.455ZM294.369 325.5C293.533 320.876 289.834 318.146 285.298 318.146C279.53 318.146 275.347 322.594 275.347 329.727C275.347 336.861 279.53 341.308 285.298 341.308C289.834 341.308 293.533 338.578 294.369 333.955H291.639C290.979 337.081 288.293 338.754 285.298 338.754C281.203 338.754 277.989 335.584 277.989 329.727C277.989 323.871 281.203 320.7 285.298 320.7C288.293 320.7 290.979 322.374 291.639 325.5H294.369ZM299.706 341L301.973 334.615H311.088L313.356 341H316.218L307.94 318.455H305.122L296.843 341H299.706ZM302.832 332.193L306.443 322.021H306.619L310.23 332.193H302.832Z" fill="white"/>
<path d="M146.107 409.571H182.009V402.513H157.453V402.114L168.293 390.768C178.28 380.674 181.13 375.853 181.13 369.754C181.13 360.991 173.992 354.28 163.712 354.28C153.511 354.28 146.054 360.885 146.054 370.846H153.91C153.884 364.986 157.666 361.151 163.552 361.151C169.092 361.151 173.3 364.56 173.3 369.994C173.3 374.814 170.423 378.277 164.564 384.482L146.107 403.605V409.571ZM211.093 410.477C223.69 410.477 231.068 400.196 231.068 382.325C231.068 364.587 223.584 354.28 211.093 354.28C198.575 354.28 191.117 364.56 191.091 382.325C191.091 400.169 198.468 410.45 211.093 410.477ZM211.093 403.365C203.715 403.365 199.267 395.961 199.267 382.325C199.294 368.742 203.742 361.258 211.093 361.258C218.417 361.258 222.891 368.742 222.891 382.325C222.891 395.961 218.443 403.365 211.093 403.365ZM240.516 409.571H276.418V402.513H251.862V402.114L262.702 390.768C272.689 380.674 275.539 375.853 275.539 369.754C275.539 360.991 268.401 354.28 258.121 354.28C247.92 354.28 240.463 360.885 240.463 370.846H248.32C248.293 364.986 252.075 361.151 257.961 361.151C263.501 361.151 267.709 364.56 267.709 369.994C267.709 374.814 264.832 378.277 258.973 384.482L240.516 403.605V409.571ZM307.206 355.026H299.19L285.58 363.921V371.805L298.63 363.282H298.95V409.571H307.206V355.026Z" fill="white"/>
<defs>
<filter id="filter0_d" x="27.4285" y="163.626" width="293.714" height="73.7309" filterUnits="userSpaceOnUse" color-interpolation-filters="sRGB">
<feFlood flood-opacity="0" result="BackgroundImageFix"/>
<feColorMatrix in="SourceAlpha" type="matrix" values="0 0 0 0 0 0 0 0 0 0 0 0 0 0 0 0 0 0 127 0"/>
<feOffset dy="4"/>
<feGaussianBlur stdDeviation="2"/>
<feColorMatrix type="matrix" values="0 0 0 0 0 0 0 0 0 0 0 0 0 0 0 0 0 0 0.25 0"/>
<feBlend mode="normal" in2="BackgroundImageFix" result="effect1_dropShadow"/>
<feBlend mode="normal" in="SourceGraphic" in2="effect1_dropShadow" result="shape"/>
</filter>
</defs>
</svg>
