<svg width="28" height="33" viewBox="0 0 28 33" fill="none" xmlns="http://www.w3.org/2000/svg">
<path d="M27.671 30.2955L20.253 20.781C22.143 18.9582 23.449 16.5064 23.796 13.7028C24.601 7.20498 19.968 1.26339 13.47 0.459085C6.972 -0.345215 1.03099 4.28738 0.226987 10.7852C-0.578013 17.2831 4.05501 23.2246 10.553 24.0289C13.356 24.376 16.053 23.7072 18.281 22.3179L25.7 31.8325C25.912 32.1043 26.214 32.2652 26.532 32.3045C26.85 32.3439 27.182 32.2616 27.454 32.0496C27.999 31.6246 28.096 30.8406 27.671 30.2955ZM10.86 21.5479C5.72898 20.9128 2.07201 16.2231 2.70801 11.0923C3.34301 5.96149 8.03199 2.30499 13.163 2.94009C18.294 3.57519 21.951 8.26479 21.315 13.3956C20.68 18.5265 15.991 22.183 10.86 21.5479Z" fill="#9C98A6"/>
</svg>
