<svg width="50" height="50" viewBox="0 0 50 50" fill="none" xmlns="http://www.w3.org/2000/svg">
<path d="M32.8118 15.706C32.6968 15.3524 32.3911 15.0949 32.0233 15.0415L27.7749 14.4253L25.874 10.5762C25.7094 10.243 25.37 10.0321 24.9984 10.0321H24.9982C24.6265 10.0322 24.2871 10.2433 24.1226 10.5767L22.2239 14.4268L17.9758 15.0452C17.608 15.0987 17.3025 15.3565 17.1877 15.7101C17.073 16.0636 17.1689 16.4517 17.4351 16.711L20.5099 19.7067L19.7854 23.9378C19.7226 24.3043 19.8734 24.6745 20.1742 24.8929C20.3443 25.0165 20.5457 25.0793 20.748 25.0793C20.9035 25.0793 21.0596 25.0422 21.2026 24.967L25.0018 22.9683L28.802 24.9649C29.131 25.1379 29.5297 25.1089 29.8304 24.8903C30.1311 24.6717 30.2816 24.3014 30.2187 23.9351L29.4919 19.7043L32.5652 16.7071C32.8311 16.4476 32.9267 16.0595 32.8118 15.706ZM27.7606 18.6646C27.5305 18.889 27.4255 19.2122 27.4799 19.529L27.9586 22.3157L25.4556 21.0006C25.1711 20.8511 24.8311 20.8512 24.5467 21.0008L22.0443 22.3172L22.5216 19.5303C22.5759 19.2135 22.4707 18.8903 22.2405 18.6659L20.2153 16.6929L23.0133 16.2856C23.3313 16.2393 23.6062 16.0394 23.7484 15.7512L24.999 13.2154L26.2511 15.7506C26.3935 16.0388 26.6685 16.2385 26.9865 16.2846L29.7847 16.6904L27.7606 18.6646Z" fill="white"/>
<path d="M46.9473 42.9072L38.8754 28.8671C41.313 25.8243 42.7735 21.9665 42.7735 17.7735C42.7735 7.97319 34.8003 0 24.9999 0C15.1996 0 7.22638 7.97319 7.22638 17.7735C7.22638 21.9665 8.68674 25.8243 11.1245 28.8671L3.05253 42.9072C2.86718 43.2296 2.88105 43.6295 3.08837 43.9383C3.2957 44.2471 3.66084 44.4114 4.0291 44.3619L10.3292 43.5159L12.7466 49.3949C12.8882 49.7392 13.2132 49.973 13.5847 49.9979C13.6066 49.9993 13.6284 50 13.6501 50C13.9972 50 14.3204 49.8151 14.4956 49.5117L22.6443 35.3977C22.6456 35.3955 22.6465 35.3933 22.6478 35.391C23.4177 35.4933 24.2027 35.547 25.0001 35.547C25.7976 35.547 26.5826 35.4933 27.3525 35.391C27.3538 35.3932 27.3546 35.3954 27.3559 35.3977L35.5047 49.5117C35.6799 49.8151 36.0031 50 36.3502 50C36.3719 50 36.3936 49.9993 36.4155 49.9979C36.787 49.973 37.112 49.7392 37.2536 49.3949L39.6711 43.5159L45.9712 44.3619C46.3403 44.4114 46.7046 44.2471 46.912 43.9383C47.1187 43.6295 47.1327 43.2296 46.9473 42.9072ZM13.7973 46.8146L12.0375 42.5351L13.6168 39.958C13.8986 39.4982 13.7543 38.8969 13.2944 38.6152C12.8345 38.3334 12.2332 38.4777 11.9515 38.9375L10.3557 41.5416L5.7336 42.1623L12.4989 30.395C14.7149 32.59 17.5036 34.2075 20.6185 35.0001L13.7973 46.8146ZM24.9998 33.5939C16.2764 33.5939 9.17942 26.4969 9.17942 17.7735C9.17942 9.05015 16.2764 1.95314 24.9998 1.95314C33.7232 1.95314 40.8202 9.05015 40.8202 17.7735C40.8202 26.4969 33.7232 33.5939 24.9998 33.5939ZM39.6441 41.5416L38.0482 38.9375C37.7665 38.4777 37.1652 38.3332 36.7054 38.6152C36.2455 38.897 36.1012 39.4982 36.383 39.958L37.9622 42.5351L36.2024 46.8146L29.3813 35.0001C32.4962 34.2075 35.2849 32.59 37.5009 30.395L44.2662 42.1623L39.6441 41.5416Z" fill="white"/>
<path d="M24.9999 5.07816C22.8206 5.07816 20.6705 5.63988 18.7819 6.70277C18.3118 6.96723 18.1452 7.56274 18.4097 8.03276C18.6742 8.50278 19.2697 8.66958 19.7397 8.40493C21.3365 7.5063 23.1554 7.03129 24.9999 7.03129C30.9232 7.03129 35.7421 11.8503 35.7421 17.7735C35.7421 19.3921 35.3914 20.9473 34.6998 22.3958C34.4675 22.8826 34.6737 23.4655 35.1604 23.6979C35.2962 23.7627 35.4394 23.7934 35.5805 23.7934C35.945 23.7934 36.2949 23.5882 36.4624 23.2373C37.2804 21.524 37.6953 19.6857 37.6953 17.7735C37.6953 10.7733 32.0002 5.07816 24.9999 5.07816Z" fill="white"/>
<path d="M34.0871 25.2367C33.7001 24.8611 33.0818 24.8704 32.7063 25.2574L32.6846 25.2796C32.3078 25.6655 32.3151 26.2839 32.701 26.6606C32.8909 26.8461 33.1371 26.9385 33.3831 26.9385C33.6369 26.9385 33.8906 26.8401 34.0819 26.6441L34.1077 26.6176C34.4834 26.2306 34.4741 25.6124 34.0871 25.2367Z" fill="white"/>
<path d="M31.5028 27.5729C31.2425 27.1006 30.6486 26.9286 30.1762 27.1889C28.6009 28.057 26.811 28.5158 24.9999 28.5158C19.0767 28.5158 14.2577 23.6968 14.2577 17.7736C14.2577 16.2219 14.581 14.7254 15.2186 13.3257C15.4423 12.8348 15.2256 12.2557 14.7347 12.0321C14.2439 11.8086 13.6648 12.0252 13.4412 12.516C12.6869 14.1717 12.3044 15.9405 12.3044 17.7736C12.3044 24.7738 17.9996 30.4689 24.9998 30.4689C27.1396 30.4689 29.2555 29.9263 31.1188 28.8995C31.5912 28.6391 31.7632 28.0453 31.5028 27.5729Z" fill="white"/>
<path d="M17.0899 9.07223C16.6953 8.70455 16.0773 8.72662 15.7097 9.12115L15.6881 9.14449C15.3219 9.54039 15.3458 10.1583 15.7417 10.5245C15.9295 10.6983 16.1673 10.7842 16.4046 10.7842C16.6673 10.7842 16.9292 10.6789 17.1217 10.4709L17.1389 10.4524C17.5064 10.0578 17.4846 9.43981 17.0899 9.07223Z" fill="white"/>
</svg>
