<svg width="100" height="100" viewBox="0 0 100 100" fill="none" xmlns="http://www.w3.org/2000/svg">
<rect width="100" height="100" rx="50" fill="#4E00FF"/>
<path d="M72.2224 25H27.7776C26.2472 25 25 26.4031 25 28.1248V34.375C25 36.0968 26.2472 37.4999 27.7776 37.4999H72.2224C73.7528 37.4999 75 36.0968 75 34.375V28.1248C75 26.4031 73.7528 25 72.2224 25V25Z" fill="#FFD600"/>
<path d="M72.2224 43.7501H27.7776C26.2472 43.7501 25 45.1531 25 46.8749V53.1251C25 54.8469 26.2472 56.2499 27.7776 56.2499H72.2224C73.7528 56.2499 75 54.8469 75 53.1251V46.8749C75 45.1531 73.7528 43.7501 72.2224 43.7501V43.7501Z" fill="#FFD600"/>
<path d="M72.2224 62.5001H27.7776C26.2472 62.5001 25 63.9032 25 65.625V71.8752C25 73.5969 26.2472 75 27.7776 75H72.2224C73.7528 75 75 73.5969 75 71.8752V65.625C75 63.9032 73.7528 62.5001 72.2224 62.5001V62.5001Z" fill="#FFD600"/>
</svg>
