<svg width="508" height="152" viewBox="0 0 508 152" fill="none" xmlns="http://www.w3.org/2000/svg">
<g filter="url(#filter0_d)">
<path d="M469.812 38.4615V32.7635H504V38.4615H489.755V94.0171H484.057V38.4615H469.812Z" fill="white"/>
<path fill-rule="evenodd" clip-rule="evenodd" d="M154.997 143.875V106.838H170.667C179.214 108.974 184.2 121.083 170.667 126.781H159.983V143.875H154.997ZM159.983 111.111V122.507H167.818V111.111H159.983Z" fill="white"/>
<path d="M167.817 122.507V111.111C167.817 111.111 174.227 111.111 174.227 116.809C174.227 122.507 167.817 122.507 167.817 122.507Z" fill="#00B0B0"/>
<path fill-rule="evenodd" clip-rule="evenodd" d="M302.433 31.339L282.49 142.45H295.311L308.844 64.8148L356.564 142.45L402.861 64.8148L414.257 142.45H427.077L417.708 88.3191L424.94 73.3618H450.581L459.841 93.3049H466.251L437.761 32.0513L415.613 76.2108L407.846 31.339L356.564 121.795L302.433 31.339ZM437.761 46.2963L427.789 66.2393H447.02L437.761 46.2963Z" fill="white"/>
<path d="M355.852 115.385L306.506 28.8461L405.198 28.8461L355.852 115.385Z" fill="#00B0B0"/>
<path d="M80.9226 34.1881V95.4417H110.125V88.3191H87.3329V34.1881H80.9226Z" fill="white"/>
<path d="M119.384 34.1881V95.4417H125.082V34.1881H119.384Z" fill="white"/>
<path d="M136.478 95.4417L145.737 34.1881L170.666 84.0456L195.595 34.1881L204.854 95.4417H199.156L192.746 53.4188L170.666 95.4417L148.586 53.4188L142.176 95.4417H136.478Z" fill="white"/>
<path d="M211.265 52.7066C214.216 42.4761 216.46 37.2632 225.51 33.4758H280.353V42.7351H263.971C261.501 56.491 261.607 64.8487 261.834 79.7721C268.881 92.0804 272.966 90.1237 280.353 79.7721C278.824 88.4166 279.684 93.7818 266.82 99.0029C259.446 97.4876 256.441 94.8415 254 85.4701C252.876 67.8881 252.643 58.2119 256.136 42.7351H238.33C237.846 58.6707 236.784 68.1075 234.057 85.4701C233.096 94.0983 231.01 97.3248 223.373 99.0029C219.348 95.5141 219.158 93.0219 219.812 88.3191C224.506 81.4208 227.126 77.5443 229.783 69.0884C232.585 50.8862 233 45.1185 231.208 42.7351H223.373C213.524 54.4036 212.03 54.8302 211.265 52.7066Z" fill="white"/>
<path fill-rule="evenodd" clip-rule="evenodd" d="M36.7635 96.8661C54.8584 96.8661 69.5271 82.1974 69.5271 64.1026C69.5271 46.0078 54.8584 31.3391 36.7635 31.3391C18.6687 31.3391 4 46.0078 4 64.1026C4 82.1974 18.6687 96.8661 36.7635 96.8661ZM36.7635 91.1681C51.7114 91.1681 63.8291 79.0505 63.8291 64.1026C63.8291 49.1547 51.7114 37.0371 36.7635 37.0371C21.8157 37.0371 9.69801 49.1547 9.69801 64.1026C9.69801 79.0505 21.8157 91.1681 36.7635 91.1681Z" fill="white"/>
<circle cx="36.764" cy="64.1026" r="22.792" fill="#FFD600"/>
<path fill-rule="evenodd" clip-rule="evenodd" d="M447.733 143.875C457.567 143.875 465.539 135.903 465.539 126.068C465.539 116.234 457.567 108.262 447.733 108.262C437.899 108.262 429.927 116.234 429.927 126.068C429.927 135.903 437.899 143.875 447.733 143.875ZM447.733 140.778C455.857 140.778 462.443 134.192 462.443 126.068C462.443 117.945 455.857 111.359 447.733 111.359C439.609 111.359 433.024 117.945 433.024 126.068C433.024 134.192 439.609 140.778 447.733 140.778Z" fill="white"/>
<path fill-rule="evenodd" clip-rule="evenodd" d="M201.294 143.875C211.128 143.875 219.1 135.903 219.1 126.068C219.1 116.234 211.128 108.262 201.294 108.262C191.459 108.262 183.487 116.234 183.487 126.068C183.487 135.903 191.459 143.875 201.294 143.875ZM201.294 140.778C209.417 140.778 216.003 134.192 216.003 126.068C216.003 117.945 209.417 111.359 201.294 111.359C193.17 111.359 186.584 117.945 186.584 126.068C186.584 134.192 193.17 140.778 201.294 140.778Z" fill="white"/>
<path d="M202.005 123.932V138.177C202.005 138.177 188.906 136.752 188.906 126.068C188.906 112.529 202.005 113.96 202.005 113.96V123.932Z" fill="#FFD600"/>
<path d="M486.906 113.96C484.506 110.533 483.06 108.74 478.359 108.262C473.373 107.55 469.812 110.399 469.812 116.097C471.236 125.356 484.057 126.781 484.057 133.903C483.188 137.232 481.784 138.532 477.647 139.601C474.296 138.392 472.713 137.19 470.524 133.903L468.387 136.752C471.511 140.778 473.464 142.298 477.647 142.45C485.37 142.079 486.987 139.604 488.33 133.903C487.618 123.219 474.408 123.478 474.085 116.809C473.373 111.823 478.359 112.536 478.359 112.536C481.483 112.558 482.732 113.49 484.057 116.809L486.906 113.96Z" fill="white"/>
<path d="M260.41 142.45V108.262H280.353V112.536H264.683V122.507H280.353V126.781H264.683V138.177H280.353V142.45H260.41Z" fill="white"/>
<path fill-rule="evenodd" clip-rule="evenodd" d="M227.646 109.687V142.45H241.891C248.528 139.057 254.712 138.889 255.424 124.644C254 115.385 250.939 113.601 243.316 109.687H227.646ZM243.316 113.96C243.316 113.96 251.299 115.671 251.151 124.644C251.016 132.752 248.248 134.416 244.009 136.965C243.557 137.237 243.088 137.52 242.604 137.821L231.92 138.177L231.609 113.96H243.316Z" fill="white"/>
</g>
<defs>
<filter id="filter0_d" x="0" y="28.8461" width="508" height="123.029" filterUnits="userSpaceOnUse" color-interpolation-filters="sRGB">
<feFlood flood-opacity="0" result="BackgroundImageFix"/>
<feColorMatrix in="SourceAlpha" type="matrix" values="0 0 0 0 0 0 0 0 0 0 0 0 0 0 0 0 0 0 127 0"/>
<feOffset dy="4"/>
<feGaussianBlur stdDeviation="2"/>
<feColorMatrix type="matrix" values="0 0 0 0 0 0 0 0 0 0 0 0 0 0 0 0 0 0 0.25 0"/>
<feBlend mode="normal" in2="BackgroundImageFix" result="effect1_dropShadow"/>
<feBlend mode="normal" in="SourceGraphic" in2="effect1_dropShadow" result="shape"/>
</filter>
</defs>
</svg>
