<svg width="50" height="50" viewBox="0 0 50 50" fill="none" xmlns="http://www.w3.org/2000/svg">
<path d="M43.3447 18.6779L43.4028 18.7958L43.5329 18.8147L49.1767 19.6349L45.0926 23.6155L44.9985 23.7073L45.0207 23.8368L45.9849 29.4583L40.9367 26.8043L40.8203 26.7432L40.704 26.8043L35.6558 29.4583L36.62 23.8368L36.6422 23.7073L36.548 23.6155L32.464 19.6349L38.1078 18.8147L38.2379 18.7958L38.296 18.6779L40.8203 13.5635L43.3447 18.6779ZM42.3096 24.7811L42.758 25.0168L42.6723 24.5175L42.3879 22.8595L43.5927 21.6852L43.9554 21.3316L43.4541 21.2587L41.7893 21.0167L41.0445 19.508L40.8203 19.0538L40.5961 19.508L39.8517 21.0167L38.1866 21.2583L37.6852 21.3311L38.048 21.6848L39.2528 22.8591L38.9683 24.5175L38.8827 25.0168L39.3311 24.7811L40.8203 23.9981L42.3096 24.7811Z" fill="#4E00FF" stroke="white" stroke-width="0.5"/>
<path d="M11.704 18.6779L11.7622 18.7958L11.8922 18.8147L17.536 19.6349L13.452 23.6155L13.3579 23.7073L13.3801 23.8368L14.3443 29.4583L9.29602 26.8043L9.17969 26.7432L9.06336 26.8043L4.01512 29.4583L4.97663 23.8525L4.9993 23.7203L4.90171 23.6283L0.665596 19.6349L6.46782 18.8121L6.5985 18.7936L6.65691 18.6753L9.1797 13.5635L11.704 18.6779ZM10.669 24.7811L11.1174 25.0168L11.0317 24.5175L10.7472 22.8595L11.952 21.6852L12.3147 21.3316L11.8135 21.2587L10.1487 21.0167L9.40386 19.508L9.17966 19.0538L8.95551 19.508L8.20978 21.0189L6.52161 21.2582L6.00709 21.3312L6.38521 21.6877L7.61438 22.8465L7.32768 24.5175L7.24201 25.0168L7.69042 24.7811L9.17969 23.9981L10.669 24.7811Z" fill="#4E00FF" stroke="white" stroke-width="0.5"/>
<path d="M23.7852 38.2812V38.0312H23.5352H20.8555V35.6016H26.2148V41.2109V41.4609H26.4648H29.1445V43.8906H20.8555V41.4609H23.5352H23.7852V41.2109V38.2812Z" fill="#4E00FF" stroke="white" stroke-width="0.5"/>
<path d="M35.0039 38.2812V38.5312H35.2539H49.75V49.75H0.25V35.6016H14.7461H14.9961V35.3516V29.7422H35.0039V38.2812ZM47.3203 41.2109V40.9609H47.0703H35.2539H35.0039V41.2109V47.0703V47.3203H35.2539H47.0703H47.3203V47.0703V41.2109ZM17.6758 32.1719H17.4258V32.4219V47.0703V47.3203H17.6758H32.3242H32.5742V47.0703V32.4219V32.1719H32.3242H17.6758ZM2.67969 47.0703V47.3203H2.92969H14.7461H14.9961V47.0703V38.2812V38.0312H14.7461H2.92969H2.67969V38.2812V47.0703Z" fill="#4E00FF" stroke="white" stroke-width="0.5"/>
<path d="M30.7525 14.5935L30.8841 14.593C32.7614 14.5864 34.5348 13.8123 35.8807 12.4047L30.7525 14.5935ZM30.7525 14.5935L30.6784 14.7021M30.7525 14.5935L30.6784 14.7021M30.6784 14.7021C30.1611 15.4608 29.5363 16.2045 28.9152 16.9426L29.1065 17.1036M30.6784 14.7021L29.1065 17.1036M29.1065 17.1036L28.9152 16.9427L28.907 16.9525C28.2627 17.7184 27.5954 18.5117 27.0898 19.2817C26.5857 20.0493 26.2148 20.8332 26.2148 21.5755V23.6328V23.8828H26.4648H29.1445V26.3125H20.8555V23.8828H23.5352H23.7852V23.6328V21.5755C23.7852 20.8332 23.4143 20.0493 22.9102 19.2817C22.4046 18.5117 21.7373 17.7184 21.0931 16.9525L21.0848 16.9427L21.0848 16.9426C20.4637 16.2045 19.8389 15.4608 19.3216 14.7021L19.2475 14.5935L19.1159 14.593C17.2386 14.5864 15.4652 13.8123 14.1193 12.4047C12.7947 11.0189 12.0664 9.21476 12.0664 7.32422V3.17969H17.6758H17.9258V2.92969V0.25H32.0742V2.92969V3.17969H32.3242H37.9336V7.32422C37.9336 9.21474 37.2053 11.0189 35.8808 12.4047L29.1065 17.1036ZM35.5039 5.85938V5.60938H35.2539H32.3242H32.0742V5.85938V10.4492C32.0742 10.8516 32.041 11.2474 31.9755 11.6355L31.9047 12.0545L32.3053 11.9129C34.1442 11.2628 35.5039 9.42429 35.5039 7.32422V5.85938ZM14.7461 5.60938H14.4961V5.85938V7.32422C14.4961 9.42429 15.8558 11.2628 17.6947 11.9129L18.0953 12.0545L18.0245 11.6355C17.959 11.2474 17.9258 10.8516 17.9258 10.4492V5.85938V5.60938H17.6758H14.7461ZM22.9441 15.3785L22.9441 15.3785C23.5764 16.1302 24.2333 16.9114 24.7934 17.7334L25 18.0366L25.2066 17.7334C25.7667 16.9114 26.4236 16.1302 27.0559 15.3785L27.0559 15.3785L27.0752 15.3557C27.9122 14.3607 28.7309 13.3875 29.1682 12.5007C29.4845 11.8602 29.6445 11.1692 29.6445 10.4492V2.92969V2.67969H29.3945H20.6055H20.3555V2.92969V10.4492C20.3555 11.1692 20.5155 11.8602 20.8318 12.5007C21.2691 13.3875 22.0878 14.3608 22.9249 15.3557L22.9441 15.3785Z" fill="#4E00FF" stroke="white" stroke-width="0.5"/>
</svg>
