<svg width="12" height="20" viewBox="0 0 12 20" fill="none" xmlns="http://www.w3.org/2000/svg">
<path d="M11.5154 9.2196L2.54927 0.31951C2.34189 0.113495 2.06506 0 1.76989 0C1.47472 0 1.19789 0.113495 0.990517 0.31951L0.330227 0.974789C-0.0994283 1.40178 -0.0994283 2.09576 0.330227 2.52209L7.85927 9.99585L0.321873 17.4779C0.114498 17.6839 0 17.9586 0 18.2514C0 18.5446 0.114498 18.8192 0.321873 19.0254L0.982163 19.6805C1.1897 19.8865 1.46636 20 1.76154 20C2.05671 20 2.33354 19.8865 2.54091 19.6805L11.5154 10.7723C11.7232 10.5656 11.8374 10.2897 11.8367 9.99634C11.8374 9.70187 11.7232 9.4261 11.5154 9.2196Z" fill="#4E00FF"/>
</svg>
