<svg width="32" height="32" viewBox="0 0 32 32" fill="none" xmlns="http://www.w3.org/2000/svg">
<g clip-path="url(#clip0)">
<path d="M29.232 2.69628C25.6368 -0.8988 19.7871 -0.8988 16.1919 2.69628C14.7013 4.18694 13.788 6.07987 13.5507 8.17047C13.3488 9.94982 13.6741 11.7632 14.4698 13.3526L0.0717163 27.7508L4.17746 31.8565L5.84991 30.1841L7.66583 32L11.5627 28.1031L9.74679 26.2872L11.083 24.951L12.8989 26.7669L16.7958 22.87L14.9799 21.0541L18.5756 17.4583C20.1651 18.2541 21.9784 18.5794 23.7577 18.3775C25.8483 18.1402 27.7413 17.2269 29.2319 15.7363C32.8271 12.1412 32.8271 6.29142 29.232 2.69628ZM27.9059 14.4103C25.5024 16.8138 21.7984 17.2602 18.8986 15.4957L18.2691 15.1126L12.3277 21.0541L14.1437 22.87L12.8989 24.1148L11.083 22.2989L7.09459 26.2872L8.91051 28.1031L7.66583 29.3479L5.84991 27.5319L4.17746 29.2044L2.72392 27.7508L16.8156 13.6591L16.4326 13.0297C14.6681 10.1299 15.1145 6.42594 17.518 4.02235C20.3819 1.15848 25.0419 1.15848 27.9059 4.02235C30.7698 6.88634 30.7698 11.5463 27.9059 14.4103Z" fill="#C0C0C0"/>
<path d="M22.3213 5.26297C21.1237 6.46058 21.1237 8.40927 22.3213 9.607C22.9202 10.2057 23.7067 10.5052 24.4933 10.5052C25.2799 10.5052 26.0665 10.2057 26.6653 9.60694H26.6653C27.8629 8.40927 27.8629 6.46058 26.6653 5.26297C25.4677 4.06536 23.5189 4.06542 22.3213 5.26297ZM25.3393 8.28087C24.8727 8.7474 24.1138 8.74727 23.6475 8.28087C23.181 7.8144 23.181 7.05544 23.6474 6.5891C23.8807 6.35587 24.187 6.23922 24.4934 6.23922C24.7997 6.23922 25.1061 6.35581 25.3393 6.58904C25.8056 7.0555 25.8056 7.8144 25.3393 8.28087Z" fill="#C0C0C0"/>
</g>
<defs>
<clipPath id="clip0">
<rect width="32" height="32" fill="white"/>
</clipPath>
</defs>
</svg>
