<svg width="159" height="66" viewBox="0 0 159 66" fill="none" xmlns="http://www.w3.org/2000/svg">
<path d="M31.6964 41.9413C31.6964 40.3619 31.9625 38.9956 32.4947 37.8422C33.0446 36.671 33.7898 35.7838 34.7301 35.1805C35.6703 34.5594 36.7259 34.2489 37.8968 34.2489C38.8725 34.2489 39.7063 34.453 40.3982 34.8611C41.1078 35.2515 41.6489 35.7927 42.0215 36.4847V29.7506H47.9291V49.4473H42.0215V47.3977C41.6489 48.0897 41.1078 48.6399 40.3982 49.048C39.7063 49.4384 38.8725 49.6336 37.8968 49.6336C36.7259 49.6336 35.6703 49.3319 34.7301 48.7286C33.7898 48.1075 33.0446 47.2203 32.4947 46.0669C31.9625 44.8957 31.6964 43.5205 31.6964 41.9413ZM42.048 41.9413C42.048 41.1427 41.844 40.5216 41.436 40.0781C41.028 39.6344 40.5046 39.4126 39.866 39.4126C39.2273 39.4126 38.7039 39.6344 38.2959 40.0781C37.8879 40.5216 37.6839 41.1427 37.6839 41.9413C37.6839 42.7398 37.8879 43.3608 38.2959 43.8044C38.7039 44.2481 39.2273 44.4698 39.866 44.4698C40.5046 44.4698 41.028 44.2481 41.436 43.8044C41.844 43.3608 42.048 42.7398 42.048 41.9413ZM57.7137 49.6336C56.2057 49.6336 54.8486 49.323 53.6422 48.702C52.4358 48.0809 51.4867 47.1937 50.7948 46.0403C50.1206 44.8691 49.7835 43.5027 49.7835 41.9413C49.7835 40.3797 50.1206 39.0222 50.7948 37.8688C51.4867 36.6977 52.4358 35.8016 53.6422 35.1805C54.8486 34.5594 56.2057 34.2489 57.7137 34.2489C59.2216 34.2489 60.5788 34.5594 61.7851 35.1805C62.9915 35.8016 63.9318 36.6977 64.6059 37.8688C65.2978 39.0222 65.6437 40.3797 65.6437 41.9413C65.6437 43.5027 65.2978 44.8691 64.6059 46.0403C63.9318 47.1937 62.9915 48.0809 61.7851 48.702C60.5788 49.323 59.2216 49.6336 57.7137 49.6336ZM57.7137 44.5231C58.2636 44.5231 58.7249 44.3102 59.0974 43.8843C59.47 43.4406 59.6562 42.793 59.6562 41.9413C59.6562 41.0895 59.47 40.4507 59.0974 40.0248C58.7249 39.5812 58.2636 39.3594 57.7137 39.3594C57.1637 39.3594 56.7024 39.5812 56.3299 40.0248C55.9573 40.4507 55.7711 41.0895 55.7711 41.9413C55.7711 42.793 55.9484 43.4406 56.3033 43.8843C56.6758 44.3102 57.146 44.5231 57.7137 44.5231ZM73.4073 29.7506V49.4473H67.4996V29.7506H73.4073ZM81.9828 36.4847C82.3556 35.7927 82.8875 35.2515 83.5799 34.8611C84.2891 34.453 85.1318 34.2489 86.108 34.2489C87.2791 34.2489 88.334 34.5594 89.2745 35.1805C90.215 35.7838 90.9512 36.671 91.483 37.8422C92.0332 38.9956 92.3083 40.3619 92.3083 41.9413C92.3083 43.5205 92.0332 44.8957 91.483 46.0669C90.9512 47.2203 90.215 48.1075 89.2745 48.7286C88.334 49.3319 87.2791 49.6336 86.108 49.6336C85.1318 49.6336 84.2891 49.4384 83.5799 49.048C82.8875 48.6399 82.3556 48.0897 81.9828 47.3977V56.6339H76.0755V34.4352H81.9828V36.4847ZM86.3211 41.9413C86.3211 41.1427 86.1168 40.5216 85.709 40.0781C85.3003 39.6344 84.7772 39.4126 84.1388 39.4126C83.4996 39.4126 82.9765 39.6344 82.5687 40.0781C82.1609 40.5216 81.9566 41.1427 81.9566 41.9413C81.9566 42.7398 82.1609 43.3608 82.5687 43.8044C82.9765 44.2481 83.4996 44.4698 84.1388 44.4698C84.7772 44.4698 85.3003 44.2481 85.709 43.8044C86.1168 43.3608 86.3211 42.7398 86.3211 41.9413ZM104.674 34.3287C106.395 34.3287 107.734 34.9054 108.692 36.0588C109.668 37.2122 110.156 38.7738 110.156 40.7435V49.4473H104.275V41.4887C104.275 40.7789 104.08 40.22 103.689 39.8118C103.317 39.386 102.811 39.1731 102.173 39.1731C101.516 39.1731 101.002 39.386 100.63 39.8118C100.257 40.22 100.071 40.7789 100.071 41.4887V49.4473H94.163V29.7506H100.071V36.7243C100.532 36.0145 101.144 35.4378 101.906 34.9942C102.687 34.5505 103.609 34.3287 104.674 34.3287ZM115.698 33.2374C114.669 33.2374 113.844 32.9624 113.223 32.4123C112.602 31.8623 112.292 31.1702 112.292 30.3361C112.292 29.4844 112.602 28.7836 113.223 28.2334C113.844 27.6656 114.669 27.3817 115.698 27.3817C116.709 27.3817 117.526 27.6656 118.147 28.2334C118.767 28.7836 119.077 29.4844 119.077 30.3361C119.077 31.1702 118.767 31.8623 118.147 32.4123C117.526 32.9624 116.709 33.2374 115.698 33.2374ZM118.625 34.4352V49.4473H112.717V34.4352H118.625ZM131.805 34.3287C133.526 34.3287 134.865 34.9054 135.823 36.0588C136.799 37.2122 137.287 38.7738 137.287 40.7435V49.4473H131.406V41.4887C131.406 40.7789 131.211 40.22 130.82 39.8118C130.448 39.386 129.942 39.1731 129.304 39.1731C128.647 39.1731 128.133 39.386 127.76 39.8118C127.388 40.22 127.201 40.7789 127.201 41.4887V49.4473H121.293V34.4352H127.201V36.7243C127.663 36.0145 128.274 35.4378 129.037 34.9942C129.818 34.5505 130.74 34.3287 131.805 34.3287Z" fill="white"/>
<path d="M59.5009 25.7694C58.6949 26.6838 57.507 26.6838 57.1167 26.6838C56.3928 26.6838 55.4978 26.5555 54.2153 26.2677C53.2078 26.0416 52.3404 25.8162 51.5756 25.6177C50.0708 25.2266 48.9833 24.9439 47.9596 24.9439C47.3826 24.9439 46.3297 25.2114 45.2148 25.4948C43.479 25.9359 41.3188 26.4848 39.2293 26.4848C37.1197 26.4848 34.8993 26.3093 33.5003 26.1739C33.0356 28.0375 31.9301 31.1107 29.4206 33.3104C26.009 36.3008 23.4795 37.6348 23.3734 37.6901C22.7255 38.0281 21.9463 37.8511 21.4834 37.2599C21.0204 36.6692 20.9927 35.8173 21.4166 35.194C21.4306 35.1727 23.1358 32.594 23.0703 29.6959C23.0443 28.5429 23.0052 27.6395 22.9652 26.9515C20.8402 27.6216 17.2219 29.1197 15.3555 31.9397C12.5281 36.211 11.3682 42.7872 11.6789 44.9444C12.0024 47.1921 12.0411 47.1921 13.038 47.1921C15.2101 47.1921 17.0349 47.2873 19.0903 48.4842C20.9084 49.5428 21.9097 50.7009 22.0177 50.8295C22.4254 51.3141 22.534 52.0075 22.2962 52.6076C22.0582 53.2082 21.517 53.6068 20.9079 53.6301C20.3205 53.6536 18.5427 53.812 17.4002 54.2557C16.7935 54.4913 16.2709 54.7671 15.7654 55.034C14.9567 55.4608 14.1929 55.8639 13.3018 55.9765C13.0121 56.0132 12.7145 56.0311 12.4329 56.0255C12.1044 56.8418 11.5454 57.8148 10.6052 58.5868C9.88551 59.1779 9.15323 59.5425 8.50714 59.864C7.71378 60.259 7.08696 60.5711 6.60576 61.2094C5.34459 62.8825 4.92134 64.6966 4.91736 64.7148C4.7525 65.4393 4.15957 65.9644 3.46329 65.9982C3.43923 65.9995 3.41496 66 3.3909 66C2.72328 66 2.12429 65.5497 1.90649 64.8683C1.80837 64.5623 0.981323 61.758 2.08202 57.6532C2.47557 56.1858 3.08524 54.9156 3.6746 53.6867C4.63366 51.6882 5.46196 49.9622 5.11445 47.8472C3.48087 37.9067 3.59364 29.8243 5.44941 23.8253C8.33494 14.4952 15.3204 9.29678 16.6913 8.34972C17.3715 7.87945 17.9837 7.46582 18.4997 7.12201C18.0211 6.7142 17.413 6.28579 16.6899 5.95699C15.0442 5.2085 14.3525 5.00392 14.1609 4.95513C14.1485 4.95557 14.1366 4.95557 14.1247 4.95557C13.4415 4.9558 12.9164 4.47323 12.7167 3.76055C12.5091 3.02057 12.8947 2.2262 13.5163 1.83338C13.6345 1.7584 16.4617 0 20.1876 0C20.9565 0 21.7204 0.0754304 22.4579 0.224277C24.7557 0.688274 26.3797 1.38148 27.9501 2.05161C29.4834 2.7061 30.9319 3.32431 33.0943 3.81158C34.1449 4.04839 35.1123 4.23104 36.0477 4.40786C39.2661 5.01579 42.0456 5.54088 46.2013 7.81118C51.6251 10.7747 54.6749 14.017 54.7891 16.9405C54.8132 17.5567 54.8006 18.1073 54.7513 18.5912C55.2588 18.8627 55.8756 19.2058 56.4987 19.5851C59.035 21.1283 60.0987 22.2842 60.1696 23.5741C60.2188 24.4717 59.9939 25.2101 59.5009 25.7694Z" fill="white"/>
</svg>
