<svg width="60" height="61" viewBox="0 0 60 61" fill="none" xmlns="http://www.w3.org/2000/svg">
<path d="M56.9366 16.8539C56.2884 14.4441 54.3885 12.5445 51.9791 11.8957C47.5773 10.6913 29.97 10.6913 29.97 10.6913C29.97 10.6913 12.3634 10.6913 7.96165 11.85C5.59856 12.4982 3.65227 14.4445 3.00407 16.8539C1.8457 21.2553 1.8457 30.3832 1.8457 30.3832C1.8457 30.3832 1.8457 39.5572 3.00407 43.9126C3.65295 46.322 5.55221 48.2216 7.962 48.8705C12.4097 50.0752 29.9707 50.0752 29.9707 50.0752C29.9707 50.0752 47.5773 50.0752 51.9791 48.9165C54.3888 48.268 56.2884 46.3684 56.9373 43.9589C58.0954 39.5572 58.0954 30.4296 58.0954 30.4296C58.0954 30.4296 58.1417 21.2553 56.9366 16.8539ZM24.3642 38.8159V21.9506L39.0056 30.3832L24.3642 38.8159Z" fill="black"/>
</svg>
