<svg width="124" height="81" viewBox="0 0 124 81" fill="none" xmlns="http://www.w3.org/2000/svg">
<path d="M120.725 13.4308C119.306 8.53696 115.148 4.67943 109.876 3.36163C100.244 0.915161 61.7157 0.915161 61.7157 0.915161C61.7157 0.915161 23.1881 0.915161 13.556 3.26837C8.38546 4.5853 4.12674 8.53783 2.70779 13.4308C0.173218 22.3695 0.173218 40.9076 0.173218 40.9076C0.173218 40.9076 0.173218 59.5389 2.70779 68.3844C4.12768 73.2773 8.28404 77.1357 13.557 78.4535C23.2896 80.9 61.7167 80.9 61.7167 80.9C61.7167 80.9 100.244 80.9 109.876 78.5468C115.149 77.2299 119.306 73.3715 120.726 68.4785C123.26 59.5389 123.26 41.0017 123.26 41.0017C123.26 41.0017 123.362 22.3695 120.725 13.4308Z" fill="#FF0000"/>
<path d="M49.4486 58.0339L81.4873 40.9077L49.4486 23.7814V58.0339Z" fill="white"/>
</svg>
